<?xml version="1.0" encoding="UTF-8"?><svg version="1.1" xmlns="http://www.w3.org/2000/svg" xmlns:xlink="http://www.w3.org/1999/xlink" viewBox="0 0 1500 1500" width="1500" height="1500" x="0px" y="0px">
              
              <!-- ITEM 0 -->
<g transform="translate(705.0 132.0) scale(-1.005 1.0069204152249136) rotate(-345.2192530892539 200.00000000000003 144.5)">
<g transform="translate(-0.0 -0.0)">

<path fill="#1D72D8" d="M244.408,221.156c5.258-2.459,10.23-2.331,14.956,0V14.322c-3.562-1.942-8.469-2.049-14.956,0  L244.408,221.156L244.408,221.156z"/>
<rect x="56.066" y="14.274" fill="#428DFC" width="188.981" height="206.975"/>
<rect x="208.496" y="16.756" fill="#81AEF2" width="16.368" height="35.985"/>
<polygon fill="#428DFC" points="373.018,289 259.183,221.248 259.183,14.274 373.762,70.36 "/>
<polygon fill="#FFFFFF" points="270.095,229.19 369.05,286.517 369.05,73.826 260.141,21.468 249.017,21.771 "/>
<rect x="70.202" y="21.719" fill="#D6D7D8" width="178.565" height="206.975"/>
<polygon fill="#EEEEEE" points="248.766,228.694 73.922,239.117 73.922,32.143 248.766,21.719 "/>
<polygon fill="#EEEEEE" points="254.719,229.19 353.673,286.517 353.673,74.332 249.017,21.67 "/>
<polygon fill="#D6D7D8" points="248.766,228.694 346.233,286.767 346.233,79.791 248.766,21.719 "/>
<linearGradient id="SVGID_1_-i0" gradientUnits="userSpaceOnUse" x1="2313.7161" y1="2014.0402" x2="2818.9124" y2="2014.0402" gradientTransform="matrix(0.1782 0 0 0.1782 -163.5382 -205.4038)">
	<stop offset="0" style="stop-color:#D6D7D8"/>
	<stop offset="1" style="stop-color:#EEEEEE"/>
</linearGradient>
<polygon fill="url(#SVGID_1_-i0)" points="248.766,228.694 338.792,285.278 338.792,78.302 248.766,21.719 "/>
<rect x="352.681" y="73.835" fill="#D6D7D8" width="16.368" height="212.435"/>
<g>
	<polygon fill="#D6D7D8" points="320.936,115.562 262.159,80.881 262.159,67.597 320.936,102.277  "/>
	<polygon fill="#D6D7D8" points="320.936,143.605 262.159,108.924 262.159,95.641 320.936,130.321  "/>
	<polygon fill="#D6D7D8" points="320.936,171.648 262.159,136.968 262.159,123.683 320.936,158.364  "/>
	<polygon fill="#D6D7D8" points="320.936,199.692 262.159,165.011 262.159,151.728 320.936,186.407  "/>
	<polygon fill="#D6D7D8" points="320.936,227.734 262.159,193.054 262.159,179.771 320.936,214.452  "/>
	<polygon fill="#D6D7D8" points="320.936,255.778 262.159,221.098 262.159,207.814 320.936,242.494  "/>
</g>
<g>
	<polygon fill="#F6F6F6" points="226.446,77.916 98.475,84.278 98.475,70.995 226.446,64.632  "/>
	<polygon fill="#F6F6F6" points="226.446,105.959 98.475,112.323 98.475,99.038 226.446,92.675  "/>
	<polygon fill="#F6F6F6" points="226.446,134.002 98.475,140.365 98.475,127.083 226.446,120.718  "/>
	<polygon fill="#F6F6F6" points="226.446,162.046 98.475,168.409 98.475,155.125 226.446,148.762  "/>
	<polygon fill="#F6F6F6" points="226.446,190.088 98.475,196.453 98.475,183.169 226.446,176.806  "/>
	<polygon fill="#F6F6F6" points="226.446,218.133 98.475,224.496 98.475,211.212 226.446,204.848  "/>
</g>
<polygon fill="#A1C3FC" points="116.416,73.632 111.125,68.078 116.675,62.784 121.966,68.337 "/>
<polygon fill="#A1C3FC" points="54.212,174.964 48.921,169.41 54.471,164.116 59.762,169.67 "/>
<polygon fill="#FFFFFF" points="81.838,200.725 76.547,195.171 82.098,189.877 87.389,195.431 "/>
<rect x="24.085" y="6.6" transform="matrix(-0.2057 0.9786 -0.9786 -0.2057 49.3768 -14.1742)" fill="#E94A47" width="12.711" height="12.703"/>
<polygon fill="#23286B" points="367.447,137.963 379.746,134.781 382.926,147.089 370.627,150.27 "/>
<g>
	<path fill="#23286B" d="M129.559,45.758c-0.212,0-0.404-0.143-0.457-0.358c-2.606-10.545-11.407-18.318-18.782-23.912   C95.349,10.134,72.47-2.496,48.488,1.805c-0.255,0.05-0.5-0.124-0.547-0.381c-0.046-0.256,0.124-0.501,0.381-0.547   c24.326-4.361,47.449,8.393,62.568,19.858c7.499,5.688,16.451,13.605,19.128,24.437c0.062,0.252-0.091,0.508-0.344,0.57   C129.634,45.753,129.597,45.758,129.559,45.758z"/>
</g>
<g>
	<path fill="#23286B" d="M0.471,84.589c-0.048,0-0.097-0.008-0.145-0.023c-0.248-0.08-0.383-0.346-0.302-0.593   c1.176-3.622,2.472-6.643,4.979-9.614c2.184-2.588,4.591-4.739,6.778-6.059c11.498-6.933,21.138-9.307,29.477-7.253   c0.252,0.062,0.407,0.316,0.345,0.57c-0.062,0.254-0.313,0.41-0.57,0.345c-8.082-1.987-17.492,0.348-28.766,7.146   c-2.101,1.268-4.426,3.348-6.546,5.86c-2.406,2.853-3.66,5.779-4.801,9.296C0.853,84.462,0.67,84.589,0.471,84.589z"/>
</g>
<g>
	<path fill="#23286B" d="M373.811,174.275c-18.338,0-32.658-3.911-50.592-13.288c-0.231-0.121-0.319-0.405-0.2-0.636   c0.121-0.231,0.406-0.32,0.636-0.2c21.504,11.244,37.772,14.561,62.172,12.685c8.055-0.62,12.837-2.558,13.248-4.067   c0.068-0.251,0.328-0.4,0.578-0.331c0.251,0.069,0.398,0.328,0.331,0.578c-0.611,2.244-6.272,4.157-14.085,4.758   C381.648,174.105,377.641,174.275,373.811,174.275z"/>
</g>
<g>
	<path fill="#A1C3FC" d="M218.9,120.062c0.449-4.53-1.788-8.548-4.156-12.801c-0.813-1.46-1.643-2.957-2.359-4.481v30.83   c0.672-1.245,1.434-2.465,2.189-3.67C216.528,126.815,218.549,123.585,218.9,120.062z"/>
	<path fill="#A1C3FC" d="M219.486,65.871c1.118-6.36-1.531-12.288-4.336-18.563c-0.966-2.162-1.949-4.385-2.767-6.619v40.445   c0.808-1.72,1.754-3.381,2.682-5.001C217.007,72.745,218.84,69.546,219.486,65.871z"/>
	<path fill="#A1C3FC" d="M214.965,152.864c-0.518-1.335-1.242-2.635-1.943-3.894c-0.214-0.383-0.427-0.771-0.638-1.16v26.249   C215.225,166.913,217.532,159.475,214.965,152.864z"/>
	<path fill="#A1C3FC" d="M226.891,38.939c0.876,2.679,2.081,5.376,3.247,7.983c0.204,0.457,0.408,0.916,0.611,1.374V16.756h-4.154   C224.556,23.99,224.56,31.82,226.891,38.939z"/>
	<path fill="#A1C3FC" d="M225.362,142.06c0.295,2.295,1.418,4.314,2.609,6.45c0.717,1.287,1.458,2.617,1.999,4.011   c0.339,0.873,0.592,1.758,0.78,2.651v-26.767c-0.411,0.684-0.831,1.362-1.251,2.033   C227.097,134.276,224.828,137.901,225.362,142.06z"/>
	<path fill="#A1C3FC" d="M230.01,76.6c-1.275,2.225-2.595,4.527-3.502,6.925c-2.077,5.486-2.026,11.761,0.137,17.213   c0.816,2.056,1.95,4.093,3.046,6.063c0.354,0.636,0.708,1.275,1.056,1.919V75.304C230.504,75.739,230.257,76.171,230.01,76.6z"/>
	<path fill="#FFFFFF" d="M212.384,17.054c0.027-0.1,0.057-0.199,0.085-0.298h-0.085V17.054z"/>
	<path fill="#FFFFFF" d="M215.37,130.44c2.013-3.216,4.094-6.54,4.464-10.285c0.479-4.824-1.935-9.161-4.269-13.354   c-1.096-1.969-2.23-4.007-3.046-6.063c-0.052-0.13-0.087-0.266-0.137-0.397v2.439c0.717,1.525,1.546,3.022,2.359,4.481   c2.369,4.254,4.606,8.271,4.156,12.801c-0.349,3.524-2.372,6.753-4.327,9.877c-0.755,1.207-1.517,2.425-2.189,3.67v2.111   C213.174,133.956,214.256,132.221,215.37,130.44z"/>
	<path fill="#FFFFFF" d="M215.883,76.6c1.896-3.308,3.857-6.73,4.53-10.566c1.168-6.643-1.664-12.982-4.403-19.112   c-1.165-2.609-2.372-5.306-3.247-7.983c-0.141-0.431-0.255-0.872-0.38-1.309v3.057c0.818,2.235,1.801,4.459,2.767,6.619   c2.805,6.276,5.453,12.204,4.336,18.563c-0.646,3.673-2.479,6.873-4.42,10.26c-0.928,1.62-1.874,3.281-2.682,5.001v2.388   C213.291,81.124,214.609,78.825,215.883,76.6z"/>
	<path fill="#FFFFFF" d="M217.504,175.561h-0.508"/>
	<path fill="#FFFFFF" d="M226.647,100.738c-2.164-5.453-2.215-11.727-0.137-17.213c0.907-2.398,2.226-4.699,3.502-6.925   c0.246-0.429,0.494-0.862,0.738-1.296v-1.948c-0.496,0.92-1.02,1.839-1.556,2.775c-1.293,2.259-2.632,4.592-3.565,7.059   c-2.159,5.704-2.106,12.226,0.143,17.896c0.839,2.114,1.987,4.178,3.099,6.174c0.656,1.177,1.298,2.336,1.879,3.492v-2.032   c-0.348-0.643-0.702-1.284-1.056-1.919C228.597,104.832,227.463,102.796,226.647,100.738z"/>
	<path fill="#FFFFFF" d="M225.995,39.233c0.892,2.725,2.107,5.445,3.282,8.075c0.503,1.126,0.999,2.239,1.472,3.346v-2.358   c-0.203-0.459-0.408-0.917-0.611-1.374c-1.165-2.609-2.372-5.306-3.247-7.983c-2.331-7.121-2.335-14.95-0.295-22.185h-0.977   C223.602,24.097,223.634,32.02,225.995,39.233z"/>
	<path fill="#FFFFFF" d="M212.384,175.176h0.565c3.048-7.553,5.676-15.487,2.893-22.653c-0.541-1.394-1.282-2.725-1.999-4.011   c-0.523-0.938-1.028-1.854-1.46-2.779v2.078c0.211,0.389,0.424,0.777,0.638,1.16c0.701,1.258,1.426,2.56,1.943,3.894   c2.567,6.611,0.261,14.05-2.581,21.196C212.384,174.059,212.384,175.176,212.384,175.176z"/>
	<path fill="#A1C3FC" d="M215.841,152.522c2.783,7.166,0.155,15.1-2.893,22.653h3.695c3.036-7.483,5.731-15.354,3.03-22.312   c-0.518-1.335-1.242-2.635-1.943-3.894c-1.181-2.12-2.404-4.315-2.721-6.79c-0.576-4.494,1.888-8.433,4.272-12.241   c1.955-3.123,3.977-6.354,4.327-9.877c0.449-4.53-1.788-8.548-4.156-12.801c-1.111-1.996-2.259-4.06-3.099-6.174   c-2.25-5.669-2.302-12.192-0.143-17.896c0.933-2.468,2.272-4.802,3.565-7.059c1.942-3.387,3.775-6.586,4.42-10.26   c1.118-6.36-1.531-12.288-4.336-18.563c-1.175-2.631-2.39-5.351-3.282-8.075c-2.36-7.214-2.393-15.136-0.375-22.478h-3.732   c-0.028,0.1-0.057,0.199-0.085,0.298V37.63c0.124,0.437,0.238,0.877,0.38,1.309c0.876,2.679,2.081,5.376,3.247,7.983   c2.739,6.129,5.571,12.468,4.403,19.112c-0.673,3.836-2.634,7.258-4.53,10.566c-1.275,2.224-2.593,4.524-3.5,6.921v16.82   c0.049,0.131,0.085,0.267,0.137,0.397c0.816,2.056,1.95,4.093,3.046,6.063c2.335,4.193,4.749,8.53,4.269,13.354   c-0.371,3.743-2.453,7.069-4.464,10.285c-1.115,1.781-2.197,3.517-2.988,5.282v10.011c0.432,0.926,0.937,1.841,1.46,2.779   C214.56,149.798,215.301,151.128,215.841,152.522z"/>
	<path fill="#FFFFFF" d="M219.775,76.132c-1.293,2.258-2.632,4.592-3.565,7.059c-2.159,5.704-2.106,12.226,0.143,17.896   c0.839,2.114,1.987,4.178,3.099,6.174c2.369,4.254,4.606,8.271,4.156,12.801c-0.349,3.524-2.372,6.753-4.327,9.877   c-2.384,3.809-4.849,7.747-4.272,12.241c0.317,2.475,1.54,4.669,2.721,6.79c0.701,1.258,1.426,2.56,1.943,3.894   c2.701,6.958,0.007,14.829-3.03,22.312h1.014c3.048-7.553,5.676-15.487,2.893-22.653c-0.541-1.394-1.282-2.725-1.999-4.011   c-1.19-2.136-2.314-4.156-2.609-6.45c-0.533-4.16,1.735-7.784,4.137-11.621c2.013-3.216,4.094-6.54,4.464-10.285   c0.479-4.824-1.935-9.161-4.269-13.354c-1.096-1.969-2.23-4.007-3.046-6.063c-2.164-5.453-2.215-11.727-0.137-17.213   c0.907-2.398,2.226-4.699,3.502-6.925c1.896-3.308,3.857-6.73,4.53-10.566c1.168-6.643-1.664-12.982-4.403-19.112   c-1.165-2.609-2.372-5.306-3.247-7.983c-2.331-7.121-2.335-14.95-0.295-22.185h-0.977c-2.017,7.342-1.985,15.265,0.375,22.478   c0.892,2.725,2.107,5.445,3.282,8.075c2.805,6.276,5.453,12.204,4.336,18.563C223.549,69.546,221.717,72.745,219.775,76.132z"/>
	<path fill="#A1C3FC" d="M220.592,76.6c-1.275,2.225-2.595,4.527-3.502,6.925c-2.077,5.486-2.026,11.761,0.137,17.213   c0.816,2.056,1.95,4.093,3.046,6.063c2.335,4.193,4.749,8.53,4.269,13.354c-0.371,3.743-2.453,7.069-4.464,10.285   c-2.402,3.837-4.67,7.462-4.137,11.621c0.295,2.295,1.418,4.314,2.609,6.45c0.717,1.287,1.458,2.617,1.999,4.011   c2.783,7.166,0.155,15.1-2.893,22.653h3.695c3.036-7.483,5.731-15.354,3.03-22.312c-0.518-1.335-1.242-2.635-1.943-3.894   c-1.181-2.12-2.404-4.315-2.721-6.79c-0.576-4.494,1.888-8.433,4.272-12.241c1.955-3.123,3.977-6.354,4.327-9.877   c0.449-4.53-1.788-8.548-4.156-12.801c-1.111-1.996-2.259-4.06-3.099-6.174c-2.25-5.669-2.302-12.192-0.143-17.896   c0.933-2.468,2.272-4.802,3.565-7.059c1.942-3.387,3.775-6.586,4.42-10.26c1.118-6.36-1.531-12.288-4.336-18.563   c-1.175-2.631-2.39-5.351-3.282-8.075c-2.36-7.214-2.393-15.136-0.375-22.478h-3.732c-2.04,7.235-2.036,15.063,0.295,22.185   c0.876,2.679,2.081,5.376,3.247,7.983c2.739,6.129,5.571,12.468,4.403,19.112C224.449,69.871,222.488,73.292,220.592,76.6z"/>
	<path fill="#FFFFFF" d="M224.484,76.132c-1.293,2.258-2.632,4.592-3.565,7.059c-2.159,5.704-2.106,12.226,0.143,17.896   c0.839,2.114,1.987,4.178,3.099,6.174c2.369,4.254,4.606,8.271,4.156,12.801c-0.349,3.524-2.372,6.753-4.327,9.877   c-2.384,3.809-4.849,7.747-4.272,12.241c0.317,2.475,1.54,4.669,2.721,6.79c0.701,1.258,1.426,2.56,1.943,3.894   c2.701,6.958,0.007,14.829-3.03,22.312h1.014c3.048-7.553,5.676-15.487,2.893-22.653c-0.541-1.394-1.282-2.725-1.999-4.011   c-1.19-2.136-2.314-4.156-2.609-6.45c-0.533-4.16,1.735-7.784,4.137-11.621c2.013-3.216,4.094-6.54,4.464-10.285   c0.479-4.824-1.935-9.161-4.269-13.354c-1.096-1.969-2.23-4.007-3.046-6.063c-2.164-5.453-2.215-11.727-0.137-17.213   c0.907-2.398,2.226-4.699,3.502-6.925c1.896-3.308,3.857-6.73,4.53-10.566c1.168-6.643-1.664-12.982-4.403-19.112   c-1.165-2.609-2.372-5.306-3.247-7.983c-2.331-7.121-2.335-14.95-0.295-22.185h-0.977c-2.017,7.342-1.985,15.265,0.375,22.478   c0.892,2.725,2.107,5.445,3.282,8.075c2.805,6.276,5.453,12.204,4.336,18.563C228.259,69.546,226.426,72.745,224.484,76.132z"/>
	<path fill="#A1C3FC" d="M225.301,76.6c-1.275,2.225-2.595,4.527-3.502,6.925c-2.077,5.486-2.026,11.761,0.137,17.213   c0.816,2.056,1.95,4.093,3.046,6.063c2.335,4.193,4.749,8.53,4.269,13.354c-0.371,3.743-2.453,7.069-4.464,10.285   c-2.402,3.837-4.67,7.462-4.137,11.621c0.295,2.295,1.418,4.314,2.609,6.45c0.717,1.287,1.458,2.617,1.999,4.011   c2.783,7.166,0.155,15.1-2.893,22.653h3.695c3.036-7.483,5.731-15.354,3.03-22.312c-0.518-1.335-1.242-2.635-1.943-3.894   c-1.181-2.12-2.404-4.315-2.721-6.79c-0.576-4.494,1.888-8.433,4.272-12.241c0.703-1.122,1.411-2.258,2.049-3.416v-15.771   c-0.581-1.157-1.223-2.316-1.879-3.492c-1.111-1.996-2.259-4.06-3.099-6.174c-2.25-5.669-2.302-12.192-0.143-17.896   c0.933-2.468,2.272-4.802,3.565-7.059c0.536-0.934,1.06-1.855,1.556-2.775V50.654c-0.472-1.108-0.969-2.221-1.472-3.346   c-1.175-2.631-2.39-5.351-3.282-8.075c-2.36-7.214-2.393-15.136-0.375-22.478h-3.732c-2.04,7.235-2.036,15.063,0.295,22.185   c0.876,2.679,2.081,5.376,3.247,7.983c2.739,6.129,5.571,12.468,4.403,19.112C229.158,69.871,227.197,73.292,225.301,76.6z"/>
	<path fill="#FFFFFF" d="M227.148,148.969c0.701,1.258,1.426,2.56,1.943,3.894c2.683,6.911-0.103,14.868-3.118,22.312h1.103   c1.56-3.866,3.003-7.83,3.673-11.741v-8.26c-0.187-0.894-0.441-1.778-0.78-2.651c-0.541-1.394-1.282-2.725-1.999-4.011   c-1.19-2.136-2.314-4.156-2.609-6.45c-0.533-4.16,1.735-7.784,4.137-11.621c0.42-0.672,0.841-1.35,1.251-2.033v-1.883   c-0.639,1.159-1.347,2.294-2.049,3.416c-2.384,3.809-4.849,7.747-4.272,12.241C224.746,144.655,225.967,146.849,227.148,148.969z"/>
	<path fill="#A1C3FC" d="M230.75,175.176v-11.741c-0.671,3.912-2.113,7.875-3.673,11.741H230.75z"/>
</g>
<polygon fill="#1D72D8" points="231.906,117.156 226.615,111.602 232.165,106.307 237.456,111.861 "/>
<rect x="191.784" y="166.324" transform="matrix(0.9732 0.23 -0.23 0.9732 44.3711 -40.4229)" fill="#1D72D8" width="7.668" height="7.673"/>
<rect x="221.551" y="116.188" transform="matrix(-0.2057 0.9786 -0.9786 -0.2057 387.5283 -76.0356)" fill="#E94A47" width="6.143" height="6.139"/>

</g>
</g>

<!-- ITEM 1 -->
<g transform="translate(148.0 487.0) scale(1.8310810810810811 1.8266666666666667) rotate(0.0 147.99999999999997 225.0)">
<g transform="translate(-0.0 -0.0)">

<circle fill="#23286B" cx="124.086" cy="365.889" r="7.754"/>
<circle fill="#23286B" cx="183.387" cy="432.028" r="7.754"/>
<path fill="#A1C3FC" d="M233.49,442.893L233.49,442.893c-11.738,10.374-29.83,9.259-40.206-2.478L96.476,330.891  c-10.375-11.738-9.259-29.828,2.478-40.204l0,0c11.738-10.374,29.83-9.258,40.206,2.478l96.808,109.524  C246.344,414.427,245.227,432.518,233.49,442.893z"/>
<linearGradient id="SVGID_1_-i1" gradientUnits="userSpaceOnUse" x1="2062.7012" y1="3003.4109" x2="2543.8042" y2="3003.4109" gradientTransform="matrix(0.1585 0 0 0.1585 -197.116 -144.6894)">
	<stop offset="0" style="stop-color:#EA5350"/>
	<stop offset="1" style="stop-color:#D62929"/>
</linearGradient>
<path fill="url(#SVGID_1_-i1)" d="M192.773,330.583c-7.401-4.232-16.062-4.631-24.392-6.451c-1.946-0.425-29.754-4.758-38.302-11.691  c-0.342,12.223-0.379,17.251,0.11,29.469c0.026,0.662,0.068,1.364,0.451,1.903c0.309,0.435,0.798,0.701,1.27,0.951  c2.829,1.503,5.686,3.018,8.767,3.891c2.806,0.797,5.734,1.044,8.645,1.22c19.348,1.177,37.945-0.303,56.755-4.984  C206.078,338.444,195.784,332.305,192.773,330.583z"/>
<linearGradient id="SVGID_2_-i1" gradientUnits="userSpaceOnUse" x1="2338.5767" y1="3479.1699" x2="2707.3369" y2="3479.1699" gradientTransform="matrix(0.1585 0 0 0.1585 -197.116 -144.6894)">
	<stop offset="0" style="stop-color:#EA5350"/>
	<stop offset="1" style="stop-color:#D62929"/>
</linearGradient>
<path fill="url(#SVGID_2_-i1)" d="M193.393,420.797c6.081,3.618,12.215,7.262,18.9,9.578c6.687,2.317,11.167,3.436,17.973,1.503  c2.358-1.012,2.218-6.048,0.117-11.091c-3.917-9.406-11.837-16.391-18.918-23.717c-4.358-4.509-8.413-9.312-12.125-14.367  c-4.495,2.821-10.293,1.86-15.494,0.798c-2.2-0.449-4.549-0.978-6.079-2.62c-0.821-0.882-2.246,1.107-3.341,0.603  c-0.568,8.53-0.285,13.884-0.854,22.414c-0.03,0.439-0.057,0.89,0.071,1.311c0.136,0.448,0.436,0.823,0.737,1.181  C179.522,412.509,186.526,416.711,193.393,420.797z"/>
<polygon fill="#D6D7D8" points="40.456,111.668 72.084,114.405 66.61,79.738 36.502,75.481 "/>
<g>
	<path fill="#151A4F" d="M250.804,122.356c-0.06,0-0.122-0.013-0.182-0.037c-6.629-2.876-14.072-3.466-21.271-4.037l-0.364-0.03   c-19.009-1.508-40.991-3.669-61.298-10.238c-22.016-7.123-39.782-18.826-51.376-33.844c-0.153-0.199-0.117-0.487,0.082-0.64   c0.201-0.155,0.486-0.118,0.641,0.082c11.481,14.872,29.093,26.469,50.934,33.534c20.214,6.539,42.132,8.692,61.089,10.197   l0.364,0.029c7.274,0.576,14.793,1.173,21.563,4.109c0.231,0.1,0.338,0.368,0.236,0.601   C251.148,122.254,250.98,122.356,250.804,122.356z"/>
</g>
<g>
	<path fill="#23286B" d="M102.574,30.532c-1.381,0-2.745-0.748-4.037-1.597c-1.443-0.947-3.924-2.205-6.554-3.536   c-3.423-1.735-6.963-3.528-8.781-4.922c-0.2-0.153-0.239-0.44-0.084-0.64c0.153-0.199,0.44-0.237,0.64-0.084   c1.751,1.341,5.251,3.117,8.638,4.832c2.651,1.344,5.155,2.612,6.641,3.588c1.461,0.958,3.005,1.782,4.406,1.305   c1.43-0.486,2.048-2.028,2.702-3.66c0.225-0.562,0.458-1.144,0.727-1.678c1.244-2.469,3.848-4.144,6.965-4.48   c3.118-0.336,6.019,0.744,7.761,2.891c0.158,0.195,0.129,0.482-0.066,0.642c-0.195,0.159-0.482,0.13-0.642-0.066   c-1.546-1.906-4.152-2.867-6.955-2.558c-2.808,0.303-5.144,1.792-6.25,3.983c-0.251,0.499-0.468,1.038-0.696,1.606   c-0.703,1.752-1.428,3.564-3.256,4.185C103.348,30.474,102.96,30.532,102.574,30.532z"/>
</g>
<path fill="#1D72D8" d="M176.155,123.37c-3.387,3.008-7.461,5.175-10.816,8.219c-4.148,3.765-7.017,8.704-9.62,13.66  c-1.016,1.936-2.01,3.899-3.337,5.638c-1.58,2.072-3.595,3.772-5.663,5.359c-4.879,3.743-10.24,6.986-16.146,8.713  c-0.757,0.222-1.666,0.387-2.26-0.13c-0.649-0.565-0.529-1.588-0.32-2.421c1.163-4.632,3.362-8.932,5.628-13.138  c4.157-7.716,8.641-15.331,14.426-21.923c5.785-6.591,12.977-12.157,21.306-14.939c1.992-0.665,4.033-1.167,6.035-1.799  c1.232-0.387,2.47-0.829,3.761-0.879c1.291-0.051,2.676,0.357,3.461,1.379c0.761,0.99,0.82,2.382,0.445,3.572  c-0.375,1.189-1.127,2.221-1.894,3.206C179.638,119.842,178.009,121.723,176.155,123.37z"/>
<path fill="#FFBEB6" d="M265.107,30.463c0.097-1.026-0.948-1.872-1.976-1.952s-2.013,0.382-2.941,0.832  c-5.188,2.518-10.377,5.037-15.565,7.555c4.883-11.642,6.748-19.66,7.34-32.271c-0.806-3.727-0.912-4.409-2.281-2.585  c-0.53-3.598-1.73-2.099-2.737,1.825c-2.558,8.238-7.049,16.396-9.606,24.632c-1.685-2.275-0.439-5.497,1.037-7.912  s4.463-8.814,2.343-7.864c-5.307,4.089-8.375,10.921-7.905,17.603c-2.14-2.59-5.94-10.951-6.21-7.814  c1.586,5.411,3.172,10.824,4.758,16.235c-11.18,3.129-19.832,5.045-30.106,6.573c5.759,4.003,10.097,4.361,17.102,4.007  c4.157-0.211,11.752-2.702,15.906-2.964c9.318-0.588,17.186-6.14,24.846-11.48C261.085,33.507,263.381,32.143,265.107,30.463z"/>
<linearGradient id="SVGID_3_-i1" gradientUnits="userSpaceOnUse" x1="1956.4875" y1="1239.6412" x2="2750.6863" y2="1239.6412" gradientTransform="matrix(0.1585 0 0 0.1585 -197.116 -144.6894)">
	<stop offset="0" style="stop-color:#428DFC"/>
	<stop offset="1" style="stop-color:#1D72D8"/>
</linearGradient>
<path fill="url(#SVGID_3_-i1)" d="M188.248,45.207c11.43-1.155,22.075-6.18,33.232-8.921c1.325-0.326,2.75-0.614,4.025-0.13  c1.257,0.478,2.126,1.615,2.9,2.715c4.346,6.183,7.873,12.938,10.463,20.036c-13.271,4.702-27.625-2.155-41.689-2.808  c-6.446-0.3-12.873,0.724-19.245,1.745c-8.314,1.331-16.628,2.663-24.941,3.994c-5.28,0.845-10.981,1.909-14.593,5.851  c-5.238-10.83-14.936-20.809-25.413-26.723c11.482-5.044,25.791-2.842,38.089-0.389C163.373,43.03,175.771,46.467,188.248,45.207z"/>
<g>
	<path fill="#F5B2AA" d="M72.836,40.401c0.617,1.236,1.607,2.101,2.843,2.719c2.263-0.06,11.692,4.038,13.099,5.437   c2.224,2.224,4.573,4.325,7.167,6.302c5.315,0.247,5.18,0.703,12.022-1.425c0.635-0.198,4.011-2.756,4.258-3.497   c-1.483-1.73-8.248-8.053-9.977-9.412c-6.381-4.534-10.621-9.396-16.19-12.851C85.936,27.673,72.095,38.671,72.836,40.401z"/>
</g>
<g>
	
		<linearGradient id="SVGID_4_-i1" gradientUnits="userSpaceOnUse" x1="1721.4497" y1="1634.0021" x2="1923.651" y2="1634.0021" gradientTransform="matrix(0.1585 0 0 0.1585 -197.116 -144.6894)">
		<stop offset="0" style="stop-color:#428DFC"/>
		<stop offset="1" style="stop-color:#1D72D8"/>
	</linearGradient>
	<path fill="url(#SVGID_4_-i1)" d="M79.686,62.101c-8.747,1.673-0.548,18.339,1.554,29.337c4.573,24.22,1.487,26.617,6.961,54.29   c0.474,2.4,5.389,19.241,10.948,18.854c2.995,3.472,8.874,2.227,8.627-3.333c-0.123-2.966-3.704-14.684-3.457-17.648   c0.864-8.156-1.082-15.831-1.452-23.739c-0.989-17.3-0.968-27.44-9.495-41.032C93.37,78.578,83.136,61.441,79.686,62.101z"/>
</g>
<g>
	<path fill="#151A4F" d="M144.883,159.648c-0.494,0.37-0.742,0.864-1.113,1.359c0,0.864,0,1.606,0,2.348   c2.349,17.424,12.717,33.288,16.144,46.188c1.113,4.201,2.64,14.485,3.01,18.81c-0.864,3.708-1.853,7.291-2.719,10.998   c-1.113,3.955-2.596,7.414-4.696,10.627c-7.292,10.874-3.552,25.081-11.493,33.735c-4.261,4.644-13.131,18.351-14.341,34.073   c11.864,4.819,25.215,7.57,38.315,7.323c3.213-2.966,6.056-6.426,8.651-10.132c19.031-29.04,28.67-60.179,28.794-93.543   c-2.349-1.73-30.4-23.108-34.232-29.534c-3.708-6.426-6.179-13.223-7.292-20.636C162.308,161.255,145.502,159.031,144.883,159.648z   "/>
</g>
<linearGradient id="SVGID_5_-i1" gradientUnits="userSpaceOnUse" x1="2047.8357" y1="2476.6934" x2="2590.7024" y2="2476.6934" gradientTransform="matrix(0.1585 0 0 0.1585 -197.116 -144.6894)">
	<stop offset="0" style="stop-color:#23286B"/>
	<stop offset="1" style="stop-color:#151A4F"/>
</linearGradient>
<path fill="url(#SVGID_5_-i1)" d="M162.308,108.12c-3.061,1.154-37.073,11.245-34.726,16.93c2.102,4.819,3.584,9.762,4.573,14.829  c3.708,18.906,13.965,32.747,30.648,41.643c0.742,6.674,1.854,13.47,3.213,20.019c1.36,6.92,2.966,13.84,4.82,20.636  c2.349,9.021,6.426,16.311,12.111,21.996c0.617,3.955,0.124,7.909-1.36,11.739c-6.92,17.3-7.414,34.23-1.483,51.158  c0.742,2.224,0.742,4.325-0.247,6.179c-9.763,20.883-11.273,31.751-5.024,54.529c2.523,9.194-2.674,16.554-0.202,19.149  c1.236,0.37,28.534,2.01,29.029,0.403c0.989-2.719,2.149-14.643,2.396-16.745c0.247-2.471,0.494-4.943,0.742-7.414  c0.989-8.651,1.853-17.3,2.719-25.95c2.349-25.456,2.841-50.788,1.359-76.12c0.494-6.674,1.483-20.266,1.607-20.513  c0.37-6.92,0.797-9.528,1.013-16.102c0.128-3.878-0.642-11.825-1.137-16.026c-0.617-7.538-2.349-14.829-5.19-21.872  c-8.527-21.749-16.807-43.498-24.593-65.37C178.744,110.714,172.071,106.265,162.308,108.12z"/>
<linearGradient id="SVGID_6_-i1" gradientUnits="userSpaceOnUse" x1="1728.3096" y1="1558.916" x2="2400.2344" y2="1558.916" gradientTransform="matrix(0.1585 0 0 0.1585 -197.116 -144.6894)">
	<stop offset="0" style="stop-color:#428DFC"/>
	<stop offset="1" style="stop-color:#1D72D8"/>
</linearGradient>
<path fill="url(#SVGID_6_-i1)" d="M118.916,39.598c-6.546,0.491-6.69,0.912-12.714,4.388c0.123,0.123,4.281,2.987,0.397,6.56  c-3.801,3.497-13.703,2.546-14.445,3.041c-6.083,3.193-13.077,6.234-15.206,10.035c-0.217,0.388-1.572,20.675,13.381,32.538  c3.46,2.841,5.987,10.106,9.941,12.454c1.607,2.101,3.337,4.201,5.19,6.302c1.853,1.853,3.46,4.078,4.573,6.549  c4.696,9.762,8.403,19.772,11.122,30.275c1.236,4.449,2.966,8.403,5.315,12.11c0.864,1.483,2.102,1.73,3.337,0.864  c3.213-2.224,6.55-4.325,9.763-6.549c5.437-3.46,7.662-8.403,6.674-14.829c-0.617-4.572,0.494-8.526,3.09-11.987  c5.437-7.044,11.988-13.223,19.402-18.413c4.48-2.247,14.212,0.123,14.583-0.123c0.247-0.989-9.886-17.671-14.459-25.085  c-2.471-3.708-5.068-7.414-8.034-10.751c-4.82-5.807-10.258-11.121-15.818-15.941C139.075,50.782,124.998,39.142,118.916,39.598z"/>
<g>
	<path fill="#E94A47" d="M93.066,61.341c-6.92,5.067-15.354,11.265-22.275,16.208c-1.902,0.669-4.877,1.154-5.248,1.277   c-10.999,1.359-27.523-0.304-27.523-0.304s6.941,39.558,6.694,40.053c0.742,0,5.527-2.106,7.539-2.101   c9.108,0.022,13.809-1.062,21.349,0.668c1.214,0.165,4.038-0.475,6.386-1.216c7.146-5.322,16.384-12.18,23.18-16.134   C101.193,93.859,94.055,61.216,93.066,61.341z"/>
</g>
<g>
	<path fill="#FFBEB6" d="M81.734,13.71c-3.83-2.966-8.28-4.572-13.224-4.819c-0.617,0.123-1.236,0.37-1.73,0.617   c-0.123-0.123-0.123-0.123-0.123-0.123c-0.494,0.123-1.113,0.247-1.607,0.494c-0.494,0.37-0.989,0.742-1.36,1.112   c-0.742,0.37-1.36,0.742-1.853,1.236c-4.201,3.46-6.179,7.414-6.056,11.739c-0.247,0.494-0.494,1.112-0.494,1.73   c-0.247,3.83,1.113,7.167,4.079,10.01c1.236,0.989,2.349,1.977,3.583,2.719c4.696,5.067,10.628,7.414,17.672,7.044   c1.977,0,3.583-0.742,4.943-2.101c5.56-5.685,6.674-12.356,3.46-20.019c-0.864-1.73-1.73-3.46-2.841-5.067   C84.947,16.429,83.463,14.946,81.734,13.71z"/>
</g>
<g>
	<g>
		<path fill="#E94A47" d="M67.398,46.542c-1.684,0-3.122-0.586-4.277-1.739c-1.231-1.092-1.864-2.455-1.864-4.03    c0-1.436,0.628-2.794,1.864-4.03c1.196-1.064,2.668-1.617,4.277-1.617c1.822,0,3.295,0.522,4.505,1.598    c1.175,1.174,1.76,2.529,1.76,4.048c0,1.671-0.575,2.995-1.76,4.049C70.753,45.972,69.273,46.542,67.398,46.542z M67.398,36.038    c-1.382,0-2.644,0.474-3.651,1.368c-1.04,1.041-1.577,2.181-1.577,3.366c0,1.303,0.531,2.436,1.577,3.366    c0.997,0.995,2.22,1.49,3.651,1.49c1.641,0,2.874-0.468,3.879-1.472c0.999-0.889,1.474-1.99,1.474-3.385    c0-1.287-0.481-2.394-1.474-3.385C70.262,36.486,68.987,36.038,67.398,36.038z"/>
	</g>
	<g>
		<path fill="#E94A47" d="M78.52,34.926c-1.791,0-3.231-0.569-4.4-1.739c-1.231-1.092-1.864-2.454-1.864-4.03    c0-1.438,0.628-2.794,1.864-4.03c1.213-1.08,2.686-1.617,4.4-1.617c1.713,0,3.188,0.537,4.381,1.598    c1.174,1.174,1.76,2.529,1.76,4.049c0,1.672-0.575,2.995-1.76,4.048C81.751,34.357,80.312,34.926,78.52,34.926z M78.52,24.423    c-1.504,0-2.74,0.448-3.776,1.368c-1.04,1.041-1.577,2.181-1.577,3.366c0,1.303,0.531,2.436,1.577,3.366    c1.01,1.009,2.239,1.49,3.776,1.49s2.764-0.481,3.756-1.472c0.997-0.888,1.472-1.988,1.472-3.385c0-1.288-0.481-2.394-1.472-3.385    C81.26,24.869,80.027,24.423,78.52,24.423z"/>
	</g>
</g>
<path fill="#FFBEB6" d="M69.537,110.693c0.667-8.828-0.647-22.82,1.939-23.657c2.665-0.862,1.974,5.451,1.407,9.389  c-0.762,5.289-0.644,8.308,0.912,13.114c0.108,0.331,0.457,0.722,0.776,0.863c0.514,0.229,1.491,1.578,2.375,1.927  c2.431,0.963,4.736,1.079,7.341,0.859c-1.807,7.05-2.095,14.676-1.531,21.932c-4.329-2.996-7.802-7.044-11.705-10.58  c-3.902-3.536-5.474-6.398-10.715-6.905c-2.412-0.232-2.509,0-4.22-1.026c4.106-3.649,8.76-1.523,14.597,2.195  C69.193,116.473,69.327,113.47,69.537,110.693z"/>
<path fill="#FFBEB6" d="M77.786,94.714c0.602-0.489,1.399,0.049,1.597,0.798c0.797,3.025,0.757,2.326,0.874,5.453  c0.129,3.392,0.003,7.209,2.364,9.648c0.189-4.975,1.278-9.915,3.198-14.508c1.469,0.376,1.411,2.469,1.018,3.934  c-2.201,8.173-1.489,9.88-3.689,18.053c-0.449-0.045-3.826,6.564-4.172,6.853c-1.977-2.475-3.199-5.544-3.466-8.7  c-0.209-2.485-1.098-2.507-0.915-4.993c0.325-4.441,1.308-11.395,0.441-15.764c-0.312-1.575-0.696-3.238-0.159-4.751  c0.328-0.927,0.047-2.431,0.975-2.758C77.444,87.416,78.036,96.398,77.786,94.714z"/>
<path fill="#E94A47" d="M61.696,79.831c-7.895,0.63-15.861,0.367-23.699-0.781c4.119,12.762,6.674,26.028,7.589,39.405  c7.526-1.219,15.124-1.993,22.741-2.317C66.922,103.908,64.707,91.771,61.696,79.831z"/>
<linearGradient id="SVGID_7_-i1" gradientUnits="userSpaceOnUse" x1="1684.8622" y1="1834.6405" x2="1923.2065" y2="1834.6405" gradientTransform="matrix(0.1585 0 0 0.1585 -197.116 -144.6894)">
	<stop offset="0" style="stop-color:#428DFC"/>
	<stop offset="1" style="stop-color:#1D72D8"/>
</linearGradient>
<path fill="url(#SVGID_7_-i1)" d="M69.935,125.765c0,0,10.926-1.039,15.757-3.55c-0.769,0.768-0.568,2.051-0.218,3.081  c2.353,6.94,8.59,11.697,13.022,17.531c2.189,2.881,3.951,6.057,5.706,9.221c1.445,2.606,2.915,5.279,3.38,8.222  c0.463,2.943-0.275,6.259-2.6,8.124c-2.276,1.826-5.53,1.88-8.36,1.169c-6.031-1.516-10.965-6.021-14.312-11.262  c-3.347-5.24-5.316-11.222-7.249-17.131c-1.665-5.085-3.329-10.171-4.994-15.256C72.084,129.609,69.935,125.765,69.935,125.765z"/>
<path fill="#23286B" d="M52.946,4.749c-3.284,1.648-6.285,3.856-8.835,6.5c-2.822,2.927-5.083,6.369-8.015,9.187  c-5.448,5.237-13.162,8.029-20.7,7.491C10.075,27.546,3.904,25.851,0,29.488c3.126,0.367,5.095,3.703,5.467,6.829  c0.372,3.125-0.343,6.291-0.115,9.431c0.348,4.804,3.037,9.383,7.062,12.028c-0.873-4.43,2.55-8.671,6.5-10.856  s8.511-3.037,12.553-5.047c8.874-4.413,14.048-13.648,20.336-21.309S67.904,6.057,77.297,9.217c-2.2-4-6.589-6.526-11.117-7.112  S57.027,2.702,52.946,4.749z"/>
<path fill="#23286B" d="M80.656,12.751c-4.091-1.906-9.029,0.325-12.167,3.567c-6.726,6.95-7.876,17.368-9.664,26.874  c-1.789,9.505-5.571,20.017-14.516,23.695c-3.36,1.382-7.596,1.966-9.264,5.193c-0.817-3.584-3.96-6.276-7.407-7.559  c-3.446-1.283-7.2-1.395-10.876-1.492c-1.318-3.345-0.505-7.425,1.994-10.009c3.27-3.38,8.482-3.859,12.545-6.227  c6.658-3.88,9.242-12.082,10.896-19.608c1.654-7.525,3.251-15.72,9.007-20.844c4.371-3.893,10.47-5.289,16.322-5.383  c3.561-0.057,7.313,0.38,10.209,2.451C80.63,5.478,82.303,9.594,80.656,12.751z"/>
<g>
	<path fill="#23286B" d="M43.052,73.825c-0.174,0-0.34-0.099-0.416-0.268c-0.104-0.23-0.002-0.5,0.228-0.604   c9.846-4.442,17.517-13.728,20.02-24.239c0.745-3.133,1.073-6.422,1.39-9.604c0.424-4.263,0.864-8.672,2.313-12.795   c2.255-6.418,6.984-11.947,12.98-15.165c0.222-0.119,0.498-0.037,0.617,0.186c0.119,0.222,0.037,0.498-0.186,0.617   c-5.796,3.113-10.37,8.456-12.55,14.664c-1.412,4.02-1.846,8.374-2.265,12.584c-0.32,3.212-0.651,6.532-1.411,9.725   c-2.566,10.776-10.434,20.302-20.532,24.858C43.177,73.812,43.113,73.825,43.052,73.825z"/>
</g>
<g>
	<path fill="#151A4F" d="M226.61,146.515c-19.883,0-37.235-12.968-44.611-19.399c-7.703-6.715-14.639-14.458-21.346-21.945   c-6.837-7.632-13.905-15.525-21.776-22.307c-12.01-10.352-26.326-18.419-41.403-23.331c-4.533-1.477-9.486-2.685-13.266-1.33   c-0.919,0.329-3.006,1.624-3.173,1.435c-0.166-0.19-0.148-0.477,0.042-0.644c4.219-3.703,10.799-2.243,16.68-0.327   c15.19,4.949,29.615,13.077,41.716,23.507c7.914,6.822,15.003,14.735,21.86,22.389c6.688,7.467,13.605,15.188,21.267,21.866   c8.743,7.621,31.665,24.551,55.963,17.489l1.901-3.578c0.117-0.222,0.394-0.309,0.616-0.189c0.223,0.117,0.307,0.394,0.189,0.616   l-2.081,3.917l-0.184,0.055C234.809,145.978,230.657,146.515,226.61,146.515z"/>
</g>
<path fill="#1D72D8" d="M279.986,203.344c8.801-3.209,11.699-14.38,10.917-23.714c-2.125-25.346-21.543-46.462-43.938-58.522  c-1.222,8.79-5.435,17.138-11.78,23.342c5.411,12.201,10.819,24.401,16.23,36.601c2.711,6.113,5.527,12.383,10.292,17.074  C266.472,202.819,273.702,205.635,279.986,203.344z"/>
<path fill="#428DFC" d="M246.864,153.729c-3.41-3.39-9.65-12.261-12.692-7.7c3.361-8.557,10.851-17.357,12.164-26.456  c21.267,7.019,44.917,13.977,49.569,35.882c0.71,3.348-2.744,8.134-5.805,9.666c-3.151,1.576-6.829,1.625-10.345,1.412  c-7.182-0.435-14.359-1.848-20.931-4.778C254.418,159.79,250.29,157.133,246.864,153.729z"/>
<rect x="282.222" y="151.199" fill="#E94A47" width="6.995" height="6.995"/>
<rect x="278.878" y="172.791" fill="#23286B" width="6.995" height="6.995"/>
<g>
	<path fill="#E94A47" d="M70.947,36.864c-0.031,0-0.06,0-0.091-0.001c-0.252-0.007-0.451-0.217-0.443-0.469   c0.007-0.251,0.227-0.431,0.469-0.443c0.749,0.037,1.477-0.312,2.039-0.915c0.564-0.602,0.848-1.367,0.778-2.095   c-0.023-0.251,0.159-0.474,0.411-0.497c0.251-0.033,0.474,0.159,0.497,0.411c0.095,0.989-0.278,2.013-1.02,2.805   C72.868,36.429,71.91,36.864,70.947,36.864z"/>
</g>
<path id="texture_5_-i1" fill="#FFFFFF" d="M159.446,142.399c-0.053,0.18,0.013,0.357,0.193,0.41l0,0  c0.18,0.053,0.357-0.013,0.41-0.193l0,0c0.053-0.18-0.013-0.357-0.193-0.41l0,0C159.675,142.153,159.499,142.218,159.446,142.399  L159.446,142.399z M154.621,173.509c-0.176,0.065-0.229,0.246-0.164,0.422c0.065,0.176,0.246,0.229,0.422,0.164l0,0  c0.176-0.065,0.229-0.246,0.164-0.422C155.035,173.434,154.798,173.443,154.621,173.509L154.621,173.509L154.621,173.509z   M161.745,169.8c-0.176,0.065-0.229,0.246-0.164,0.422c0.065,0.176,0.246,0.229,0.422,0.164l0,0  c0.176-0.065,0.229-0.246,0.164-0.422l0,0C162.164,169.845,161.921,169.734,161.745,169.8L161.745,169.8z M153.465,156.357  c0.065,0.176,0.189,0.291,0.369,0.344c0.176-0.065,0.291-0.189,0.344-0.369c-0.065-0.176-0.189-0.291-0.307-0.286  C153.572,155.996,153.458,156.12,153.465,156.357z M161.534,155.709c0.065,0.176,0.189,0.291,0.369,0.344  c0.176-0.065,0.291-0.189,0.344-0.369c-0.065-0.176-0.189-0.291-0.307-0.286C161.639,155.347,161.467,155.533,161.534,155.709  L161.534,155.709z M167.3,183.58c-0.115,0.123-0.106,0.36,0.017,0.475c0.124,0.115,0.36,0.106,0.475-0.017l0,0  c0.115-0.123,0.106-0.36-0.017-0.475l0,0C167.653,183.448,167.415,183.456,167.3,183.58z M172.551,177.441  c-0.115,0.123-0.106,0.36,0.017,0.475c0.124,0.115,0.36,0.106,0.475-0.017c0.115-0.122,0.106-0.36-0.017-0.475l0,0  C172.904,177.309,172.667,177.318,172.551,177.441L172.551,177.441L172.551,177.441z M153.063,148.52  c0.004,0.118,0.131,0.353,0.307,0.286c0.118-0.004,0.353-0.131,0.286-0.307c-0.004-0.118-0.131-0.353-0.307-0.286l0,0  C153.169,148.158,153.055,148.281,153.063,148.52L153.063,148.52z M160.263,148.556c0.004,0.118,0.131,0.353,0.307,0.286  c0.118-0.004,0.295-0.071,0.286-0.307c-0.004-0.118-0.071-0.294-0.307-0.286l0,0C160.374,148.314,160.259,148.437,160.263,148.556  L160.263,148.556L160.263,148.556z M164.301,176.312c-0.115,0.123-0.168,0.304-0.044,0.418c0.124,0.115,0.242,0.111,0.418,0.044l0,0  c0.115-0.124,0.168-0.304,0.044-0.418l0,0C164.596,176.241,164.415,176.188,164.301,176.312L164.301,176.312z M169.416,171.308  c-0.115,0.123-0.168,0.304-0.044,0.418c0.123,0.115,0.242,0.111,0.418,0.044l0,0c0.115-0.124,0.168-0.304,0.044-0.418l0,0  C169.71,171.237,169.531,171.184,169.416,171.308L169.416,171.308z M159.126,161.506c-0.176,0.065-0.229,0.246-0.164,0.422  c0.065,0.176,0.246,0.229,0.422,0.164c0.176-0.065,0.229-0.246,0.164-0.422C159.482,161.493,159.301,161.44,159.126,161.506  L159.126,161.506z M146.477,152.266c-0.176,0.065-0.229,0.246-0.164,0.422c0.065,0.176,0.246,0.229,0.422,0.164  c0.176-0.065,0.229-0.246,0.164-0.422S146.652,152.201,146.477,152.266L146.477,152.266z M154.159,149.193  c-0.176,0.065-0.229,0.246-0.164,0.422s0.246,0.229,0.422,0.164c0.176-0.065,0.229-0.246,0.164-0.422  C154.515,149.18,154.335,149.127,154.159,149.193L154.159,149.193z M161.837,146c-0.176,0.065-0.229,0.246-0.164,0.422  c0.065,0.176,0.246,0.229,0.422,0.164c0.176-0.065,0.229-0.246,0.164-0.422C162.137,146.05,161.956,145.997,161.837,146z   M170.761,177.268c-0.053,0.18,0.013,0.357,0.193,0.41s0.357-0.013,0.41-0.193c0.053-0.18-0.013-0.357-0.193-0.41  C171.047,176.96,170.814,177.088,170.761,177.268L170.761,177.268z M163.626,134.574c-0.237,0.008-0.353,0.131-0.344,0.369   M158.502,164.028c-0.115,0.124-0.106,0.36,0.017,0.475c0.124,0.115,0.36,0.106,0.475-0.017c0.115-0.124,0.106-0.36-0.017-0.475l0,0  C158.855,163.897,158.616,163.905,158.502,164.028L158.502,164.028L158.502,164.028z M153.638,161.11  c-0.115,0.124-0.106,0.36,0.017,0.475c0.123,0.115,0.36,0.106,0.475-0.017c0.115-0.124,0.168-0.304-0.017-0.475  C153.989,160.978,153.753,160.988,153.638,161.11L153.638,161.11z M159.743,155.535c-0.115,0.123-0.106,0.36,0.017,0.475  c0.124,0.115,0.304,0.168,0.475-0.017c0.115-0.123,0.106-0.36,0.04-0.536C160.095,155.404,159.857,155.413,159.743,155.535  L159.743,155.535z M156.49,141.257c-0.176,0.065-0.229,0.246-0.164,0.422l0,0c0.065,0.176,0.246,0.229,0.483,0.221  c0.176-0.065,0.229-0.246,0.221-0.483C156.846,141.244,156.666,141.191,156.49,141.257L156.49,141.257z M159.679,142.271  c-0.115,0.123-0.111,0.242-0.106,0.36c0.124,0.115,0.242,0.111,0.36,0.106c0.115-0.123,0.111-0.242,0.106-0.36l0,0  C159.917,142.263,159.737,142.21,159.679,142.271L159.679,142.271L159.679,142.271z"/>

</g>
</g>

<!-- ITEM 2 -->
<g transform="translate(710.0 626.0) scale(2.774468085106383 2.7715355805243447) rotate(0.0 117.49999999999999 133.5)">
<g transform="translate(-0.0 -0.0)">

<g id="books-i2">
	
		<linearGradient id="_3_1_-i2" gradientUnits="userSpaceOnUse" x1="635.7561" y1="4626.0767" x2="12260.9912" y2="4626.0767" gradientTransform="matrix(0.0178 0 0 0.0178 0 13.0844)">
		<stop offset="0" style="stop-color:#23286B"/>
		<stop offset="1" style="stop-color:#151A4F"/>
	</linearGradient>
	<path id="_3-i2" fill="url(#_3_1_-i2)" d="M217.973,95.399c0,10.551-8.513,19.05-19.082,19.05c-0.147,0-0.147,0-0.294,0l0,0H11.302   v-7.767h187.883l0,0c6.312-0.293,11.155-5.569,10.862-11.723c-0.294-6.008-5.284-10.844-11.302-10.844c-0.147,0-0.294,0-0.44,0   H11.302v-7.913h187.442l0,0h0.147C209.46,76.349,217.973,84.848,217.973,95.399z"/>
	
		<linearGradient id="_7_1_-i2" gradientUnits="userSpaceOnUse" x1="12603.6172" y1="13412.5215" x2="-1115.4821" y2="12971.1621" gradientTransform="matrix(0.0178 0 0 0.0178 0 13.0844)">
		<stop offset="0" style="stop-color:#23286B"/>
		<stop offset="1" style="stop-color:#151A4F"/>
	</linearGradient>
	<path id="_7-i2" fill="url(#_7_1_-i2)" d="M7.926,247.95c0,6.008,4.844,10.991,10.862,11.284l0,0h187.883V267H19.229l0,0h-0.147   C8.513,267,0,258.501,0,247.95c0-10.551,8.513-19.05,19.082-19.05l0,0h187.736v7.767H19.816c-0.147,0-0.294,0-0.44,0   C13.064,236.519,7.926,241.648,7.926,247.95z"/>
	
		<linearGradient id="_5_1_-i2" gradientUnits="userSpaceOnUse" x1="30562.2109" y1="16081.6885" x2="-5064.9688" y2="4873.1367" gradientTransform="matrix(0.0178 0 0 0.0178 0 13.0844)">
		<stop offset="0" style="stop-color:#A1C3FC"/>
		<stop offset="0.6955" style="stop-color:#81AEF2"/>
		<stop offset="1" style="stop-color:#78A9EF"/>
	</linearGradient>
	<path id="_5-i2" fill="url(#_5_1_-i2)" d="M35.962,171.894c0,6.008,4.844,10.991,10.862,11.284l0,0h186.855v7.62H46.237l0,0   c-10.568-0.147-19.082-8.793-18.935-19.344c0.147-10.405,8.513-18.757,18.935-18.904l0,0h187.589v8.06H47.851   c-0.147,0-0.294,0-0.44,0C41.099,160.61,35.962,165.593,35.962,171.894z"/>
	
		<linearGradient id="_4_1_-i2" gradientUnits="userSpaceOnUse" x1="11059.2021" y1="9050.2168" x2="-6681.6182" y2="-182.248" gradientTransform="matrix(0.0178 0 0 0.0178 0 13.0844)">
		<stop offset="0" style="stop-color:#A1C3FC"/>
		<stop offset="0.6955" style="stop-color:#81AEF2"/>
		<stop offset="1" style="stop-color:#78A9EF"/>
	</linearGradient>
	<path id="_4-i2" fill="url(#_4_1_-i2)" d="M109.647,132.621c0,0.293,0,0.586,0,0.733c0,6.008,4.844,10.991,10.862,11.284l0,0h0.44l0,0   l0,0h93.648v7.767H27.008c-10.568,0-19.082-8.646-19.082-19.197s8.513-19.05,19.082-19.05H214.45v7.767h-93.207   c-0.147,0-0.294,0-0.44,0c-0.294,0-0.44,0-0.734,0c-5.284,0.293-9.541,4.396-10.422,9.525   C109.647,132.035,109.647,132.328,109.647,132.621z"/>
	
		<linearGradient id="_1_1_-i2" gradientUnits="userSpaceOnUse" x1="652.2677" y1="339.7119" x2="11633.4941" y2="339.7119" gradientTransform="matrix(0.0178 0 0 0.0178 0 13.0844)">
		<stop offset="0.1291" style="stop-color:#428DFC"/>
		<stop offset="0.9987" style="stop-color:#1D72D8"/>
	</linearGradient>
	<path id="_1-i2" fill="url(#_1_1_-i2)" d="M128.435,18.025c0,0.44,0,0.733,0,1.172c0,6.008,4.844,10.991,10.862,11.284l0,0h67.52v7.767   H30.678c-10.568,0-19.082-8.646-19.082-19.197S20.109,0.147,30.678,0h175.993v7.767h-66.64c-0.147,0-0.294,0-0.44,0   s-0.44,0-0.587,0c-5.284,0.293-9.834,4.25-10.568,9.525C128.435,17.585,128.435,17.878,128.435,18.025z"/>
	
		<linearGradient id="_6_1_-i2" gradientUnits="userSpaceOnUse" x1="2539.1138" y1="11059.7383" x2="14172.6025" y2="11059.7383" gradientTransform="matrix(0.0178 0 0 0.0178 0 13.0844)">
		<stop offset="0.1291" style="stop-color:#428DFC"/>
		<stop offset="0.9987" style="stop-color:#1D72D8"/>
	</linearGradient>
	<path id="_6-i2" fill="url(#_6_1_-i2)" d="M235,209.702c0,10.551-8.513,19.05-19.082,19.05c0,0-0.147,0-0.294,0l0,0H28.182v-7.767H130.49   l0,0c6.018-0.293,10.862-5.276,10.862-11.284c0-0.293,0-0.586,0-0.733c-0.44-5.569-4.844-10.111-10.568-10.551   c-0.294,0-0.44,0-0.734,0c-0.147,0-0.294,0-0.44,0H28.329v-7.767h187.442l0,0c0,0,0.147,0,0.294,0   C226.34,190.652,235,199.151,235,209.702z"/>
	
		<linearGradient id="_2_1_-i2" gradientUnits="userSpaceOnUse" x1="673.34" y1="2486.9661" x2="14663.3301" y2="2486.9661" gradientTransform="matrix(0.0178 0 0 0.0178 0 13.0844)">
		<stop offset="0" style="stop-color:#A1C3FC"/>
		<stop offset="0.6955" style="stop-color:#81AEF2"/>
		<stop offset="0.7528" style="stop-color:#7FADF1"/>
		<stop offset="1" style="stop-color:#78A9EF"/>
	</linearGradient>
	<path id="_2-i2" fill="url(#_2_1_-i2)" d="M230.009,57.298c0,10.551-8.513,19.05-19.082,19.05h-0.294l0,0H23.045v-7.767H209.9l0,0   c6.312-0.293,11.155-5.569,10.862-11.723c-0.294-6.008-5.284-10.844-11.302-10.844c-0.147,0-0.294,0-0.44,0H23.045v-7.767h187.442   l0,0h0.294C221.349,38.101,230.009,46.747,230.009,57.298z"/>
	
		<linearGradient id="_6-2_1_-i2" gradientUnits="userSpaceOnUse" x1="3648.7627" y1="11059.7383" x2="9585.2314" y2="11059.7383" gradientTransform="matrix(0.0178 0 0 0.0178 0 13.0844)">
		<stop offset="0.0898" style="stop-color:#EEEEEE"/>
		<stop offset="0.8178" style="stop-color:#D6D7D8"/>
	</linearGradient>
	<path id="_6-2-i2" fill="url(#_6-2_1_-i2)" d="M141.206,209.702c0,6.008-4.844,10.991-10.862,11.284l0,0H35.668v-22.568h94.969   c5.578,0.44,10.128,4.836,10.568,10.551C141.206,209.116,141.206,209.409,141.206,209.702z"/>
	
		<linearGradient id="_2-2_1_-i2" gradientUnits="userSpaceOnUse" x1="1467.6443" y1="2572.3164" x2="12604.4854" y2="2394.4131" gradientTransform="matrix(0.0178 0 0 0.0178 0 13.0844)">
		<stop offset="0.0898" style="stop-color:#EEEEEE"/>
		<stop offset="0.8178" style="stop-color:#D6D7D8"/>
	</linearGradient>
	<path id="_2-2-i2" fill="url(#_2-2_1_-i2)" d="M220.909,57.298c0.147-6.008-4.697-11.137-10.715-11.284c-0.147,0-0.294,0-0.44,0H31.558   v22.568h178.488l0,0l0,0h0.44l0,0C216.505,68.142,220.909,63.16,220.909,57.298z"/>
	
		<linearGradient id="_3-2_1_-i2" gradientUnits="userSpaceOnUse" x1="1056.8386" y1="4630.1958" x2="11807.0742" y2="4630.1958" gradientTransform="matrix(0.0178 0 0 0.0178 0 13.0844)">
		<stop offset="0.0898" style="stop-color:#EEEEEE"/>
		<stop offset="0.8178" style="stop-color:#D6D7D8"/>
	</linearGradient>
	<path id="_3-2-i2" fill="url(#_3-2_1_-i2)" d="M209.9,95.399c0.147-6.155-4.697-11.137-10.862-11.284c-0.147,0-0.294,0-0.44,0H18.788   v22.567h180.25l0,0l0,0h0.44l0,0C205.497,106.243,210.047,101.261,209.9,95.399z"/>
	
		<linearGradient id="_4-2_1_-i2" gradientUnits="userSpaceOnUse" x1="11983.0439" y1="6913.7051" x2="4227.27" y2="6522.3662" gradientTransform="matrix(0.0178 0 0 0.0178 0 13.0844)">
		<stop offset="0.0898" style="stop-color:#EEEEEE"/>
		<stop offset="0.8178" style="stop-color:#D6D7D8"/>
	</linearGradient>
	<path id="_4-2-i2" fill="url(#_4-2_1_-i2)" d="M206.818,122.216v22.567h-86.455l0,0c-6.018-0.293-10.862-5.276-10.862-11.284   c0-0.293,0-0.586,0-0.733c0-0.293,0-0.586,0.147-0.879c0.734-5.276,5.137-9.232,10.422-9.525h86.749V122.216z"/>
	
		<linearGradient id="_7-2_1_-i2" gradientUnits="userSpaceOnUse" x1="13206.9463" y1="13225.9824" x2="-3729.6157" y2="13190.4043" gradientTransform="matrix(0.0178 0 0 0.0178 0 13.0844)">
		<stop offset="0.0898" style="stop-color:#EEEEEE"/>
		<stop offset="0.8178" style="stop-color:#D6D7D8"/>
	</linearGradient>
	<path id="_7-2-i2" fill="url(#_7-2_1_-i2)" d="M200.212,236.666H19.375c-0.147,0-0.294,0-0.44,0c-6.312,0.293-11.156,5.422-10.862,11.723   c0.147,5.715,4.697,10.405,10.422,10.844l0,0h0.44l0,0l0,0h181.277V236.666z"/>
	
		<linearGradient id="_1-2_1_-i2" gradientUnits="userSpaceOnUse" x1="12550.7227" y1="831.9955" x2="7464.1123" y2="13.8683" gradientTransform="matrix(0.0178 0 0 0.0178 0 13.0844)">
		<stop offset="0.0898" style="stop-color:#EEEEEE"/>
		<stop offset="0.8178" style="stop-color:#D6D7D8"/>
	</linearGradient>
	<path id="_1-2-i2" fill="url(#_1-2_1_-i2)" d="M199.625,7.913v22.567h-60.475l0,0c-6.018-0.293-10.862-5.276-10.862-11.284   c0-0.44,0-0.733,0-1.172c0-0.147,0-0.44,0-0.586c0.881-5.276,5.284-9.232,10.568-9.525H199.625z"/>
	
		<linearGradient id="_5-2_1_-i2" gradientUnits="userSpaceOnUse" x1="12174.6377" y1="9003.3984" x2="-1630.7786" y2="8789.917" gradientTransform="matrix(0.0178 0 0 0.0178 0 13.0844)">
		<stop offset="0.0898" style="stop-color:#EEEEEE"/>
		<stop offset="0.8178" style="stop-color:#D6D7D8"/>
	</linearGradient>
	<path id="_5-2-i2" fill="url(#_5-2_1_-i2)" d="M224.872,160.61H47.117c-0.147,0-0.294,0-0.44,0c-6.312,0.293-11.009,5.715-10.715,11.87   c0.294,5.569,4.697,10.111,10.275,10.698l0,0h0.44l0,0l0,0h178.048V160.61H224.872z"/>
</g>

</g>
</g>

<!-- ITEM 3 -->
<g transform="translate(734.0 116.0) scale(1.4675 1.4700854700854702) rotate(0.0 200.0 175.5)">
<g transform="translate(-0.0 -0.0)">

<path fill="#1D72D8" d="M291.478,83.353c-1.006-0.575-1.181,1.655-1.353,2.678c-1.151,6.823-2.099,13.783-4.892,20.114  c-0.555,1.257-1.184,2.702-0.593,3.942c0.225,0.47,0.602,0.844,0.966,1.216c3.605,3.694,7.492,6.349,9.406,11.143  c1.506-4.781,2.846-8.573,3.608-13.528c0.902-5.865,1.271-7.596,1.443-13.528c0.033-1.137-0.861-5.518-1.29-6.571  C298.341,87.767,293.34,84.609,291.478,83.353z"/>
<linearGradient id="SVGID_1_-i3" gradientUnits="userSpaceOnUse" x1="4916.5962" y1="2123.1924" x2="4504.8916" y2="2152.5334" gradientTransform="matrix(0.1 0 0 0.1 -179.1 -131.1)">
	<stop offset="0" style="stop-color:#FFBEB6"/>
	<stop offset="1" style="stop-color:#F2A19C"/>
</linearGradient>
<path fill="url(#SVGID_1_-i3)" d="M292.04,103.153c4.771-2.006,8.922-6.811,8.053-11.914c-0.123-0.722-0.358-1.457-0.869-1.981  c-0.581-0.596-1.426-0.835-2.226-1.069c-13.353-3.893-25.23-12.649-32.896-24.254c-2.438,8.062-4.169,16.336-5.167,24.7  c1.877,2.372,5.187,2.879,8.116,3.639c7.923,2.056,14.717,7.016,22.01,10.733c0.471,0.24,0.963,0.48,1.491,0.505  C291.064,103.537,291.565,103.352,292.04,103.153z"/>
<linearGradient id="SVGID_2_-i3" gradientUnits="userSpaceOnUse" x1="4514.4775" y1="2140.5078" x2="4003.543" y2="2143.9521" gradientTransform="matrix(0.1 0 0 0.1 -179.1 -131.1)">
	<stop offset="0" style="stop-color:#FFBEB6"/>
	<stop offset="1" style="stop-color:#F2A19C"/>
</linearGradient>
<path fill="url(#SVGID_2_-i3)" d="M279.614,78.351c-0.295-7.497-2.253-15.668-8.33-20.069c-3.857-2.793-8.873-3.619-13.614-3.169  c-4.742,0.451-9.286,2.074-13.722,3.806c-5.914,2.31-12.316,5.414-14.569,11.35c-1.514,3.991-0.786,8.487,0.55,12.541  c2.454,7.447,6.98,14.284,13.234,19.014c1.64,1.24,3.404,2.325,5.251,3.241c2.024,2.24,2.837,2.867,4.986,5.255  c1.965,2.183,2.555-0.69,3.321-2.456c2.799,0.527,5.664,0.669,8.502,0.36c2.818-0.307,5.68-1.086,7.88-2.874  c3.14-2.552,4.438-6.708,5.228-10.675C279.396,89.309,279.828,83.817,279.614,78.351z"/>
<path fill="#89B3F4" d="M298.586,151.546c-1.393-8.847-4.061-25.438-3.099-34.342c0.962-8.904,4.083-10.404,11.094-15.978  c3.944-3.136,10.051-4.885,13.798-1.517c2.623,2.358,5.646,8.035,5.84,11.557c1.946,35.197,8.598,65.955-5.227,103.83  c-4.339,0.265-8.746-0.707-12.571-2.773c-0.647-0.35-1.294-0.744-1.742-1.328c-0.593-0.774-0.762-1.782-0.914-2.745  c-2.001-12.713-2.724-22.168-4.725-34.881C300.059,167.132,299.568,157.779,298.586,151.546z"/>
<linearGradient id="SVGID_3_-i3" gradientUnits="userSpaceOnUse" x1="4510.8901" y1="3067.0725" x2="4030.4929" y2="3061.7288" gradientTransform="matrix(0.1 0 0 0.1 -179.1 -131.1)">
	<stop offset="0" style="stop-color:#FFBEB6"/>
	<stop offset="1" style="stop-color:#F2A19C"/>
</linearGradient>
<path fill="url(#SVGID_3_-i3)" d="M212.631,157.499c3.028-3.158,24.019-4.613,34.799-3.551c4.719,0.465,9.542-0.399,14.194,0.524  c4.719,0.935,8.875,3.628,12.9,6.265c7.874,5.16,12.012,16.134,19.886,21.293c2.93,1.92,9.561,12.264,12.989,12.987  c-1.841,5.467-18.363-3.062-20.204,2.406c-8.992-11.491-11.753-13.207-21.361-24.191c-3.017-3.45-5.242-7.821-9.26-10.026  c-2.719-1.492-5.905-1.781-8.967-2.271C236.002,159.078,207.652,162.691,212.631,157.499z"/>
<path fill="#89B3F4" d="M298.912,207.765c3.163,3.528,6.372,7.096,10.325,9.708c3.953,2.612,7.944,0.562,11.818-2.665  c2.97-10.974-5.66-18.63-15.157-27.317c-9.497-8.687-22.032-18.199-29.221-25.171c-0.72,4.825-5.449,10.232-9.995,12.001  C277.578,188.012,288.593,196.256,298.912,207.765z"/>
<path fill="#F7931E" d="M79.98,318.151c10.186-1.949,46.18-0.006,46.18-0.006s4.044,19.725,3.942,32.712  c-15.192,0.02-30.384,0.041-45.576,0.061c-25.533,0.034-31.572,0.275-58.531-0.275c-0.574-6.059,11.515-17.188,33.553-22.386  C64.418,327.11,75.065,319.092,79.98,318.151z"/>
<path fill="#FBB03B" d="M54.004,318.151c10.186-1.949,46.18-0.006,46.18-0.006s4.044,19.725,3.942,32.712  c-15.192,0.02-30.384,0.041-45.576,0.061c-25.533,0.034-31.572,0.275-58.531-0.275c-0.574-6.059,11.515-17.188,33.553-22.386  C38.442,327.11,49.088,319.092,54.004,318.151z"/>
<path fill="#151A4F" d="M202.759,232.999c30.418,16.67,54.742,44.718,87.929,54.806c24.9,7.568,52.951,3.639,75.078-10.059  c11.391-7.051,21.7-17.346,24.556-30.433c0.284-1.3,0.485-2.69,0.01-3.932c-0.581-1.521-2.041-2.497-3.424-3.36  c-11.176-6.974-22.849-13.153-34.899-18.475c-6.024,2.027-7.589,10.989-13.712,12.689c-3.569,0.991-7.215-0.94-10.503-2.645  c-21.092-10.94-104.983-85.804-127.669-69.281c-58.448,42.566-89.836,88.381-136.017,156.202c18.401,1.082,62.416,0.36,62.416,0.36  s9.882-8.202,21.647-21.645c10.102-11.543,8.067-25.408,15.875-28.86c7.808-3.452,21.4-16.164,23.838-24.344  c1.472-4.939,2.042-11.534,7.01-12.912C197.559,230.373,200.331,231.668,202.759,232.999z"/>
<linearGradient id="SVGID_4_-i3" gradientUnits="userSpaceOnUse" x1="5419.291" y1="3391.3423" x2="5567.5308" y2="2804.6814" gradientTransform="matrix(0.1 0 0 0.1 -179.1 -131.1)">
	<stop offset="0" style="stop-color:#428DFC"/>
	<stop offset="1" style="stop-color:#1D72D8"/>
</linearGradient>
<path fill="url(#SVGID_4_-i3)" d="M365.066,143.602c2.851-0.12,5.868,0.159,8.221,1.774c1.941,1.333,3.211,3.42,4.365,5.472  c15.873,28.179,21.345,62.064,15.152,93.806c-0.48,2.46-1.077,5.011-2.687,6.933c-1.736,2.071-4.393,3.105-6.978,3.895  c-7.887,2.409-16.234,3.299-24.452,2.608c-4.895-0.412-10.32-1.759-12.869-5.959c-2.597-4.281-1.195-9.762,0.295-14.542  c4.064-13.036,8.295-26.361,7.749-40.005c-0.547-13.643-6.892-27.916-19.085-34.063  C340.291,152.089,352.387,144.135,365.066,143.602z"/>
<linearGradient id="SVGID_5_-i3" gradientUnits="userSpaceOnUse" x1="4107.0562" y1="3425.2788" x2="3966.7727" y2="4600.6592" gradientTransform="matrix(0.1 0 0 0.1 -179.1 -131.1)">
	<stop offset="0" style="stop-color:#23286B"/>
	<stop offset="1" style="stop-color:#151A4F"/>
</linearGradient>
<path fill="url(#SVGID_5_-i3)" d="M356.306,301.582c-6.587,2.67-13.855,3.178-20.957,2.936c-24.242-0.83-48.096-10.335-66.266-26.402  c-22.977-20.318-43.387-51.578-72.361-61.641c-19.534-5.978-12.905,19.467-33.087,40.657c-7.972,8.37-19.708,9.148-26.31,17.139  c-7.574,9.168-2.472,4.911-8.77,20.328c-1.838,4.499-25.453,23.838-28.369,23.912c-20.467,0.522-26.079,0.8-47.985,0.263  c20.925-49.324,69.178-98.712,105.172-150.548c1.999-2.879,5.123-5.036,8.5-5.979c2.279-0.636,4.693-0.481,7.05-0.289  c56.463,4.57,111.381,26.687,155.25,62.522c3.687,3.011,7.367,4.449,10.012,9.258c1.942,3.533,0.427,10.206-0.481,16.114  c-0.908,5.907-1.625,9.07,4.089,10.822c-2.256-10.424-1.202-27.657-1.202-27.657s7.273-8.433,10.866-13.728  c14.142,7.502,29.918,8.1,44.695,1.943c0,22.847-5.399,34.746-12.989,50.596C377.257,284.164,368.984,296.442,356.306,301.582z"/>
<linearGradient id="SVGID_6_-i3" gradientUnits="userSpaceOnUse" x1="4873.2344" y1="2645.9148" x2="5729.168" y2="3072.5635" gradientTransform="matrix(0.1 0 0 0.1 -179.1 -131.1)">
	<stop offset="0" style="stop-color:#A1C3FC"/>
	<stop offset="1" style="stop-color:#78A9EF"/>
</linearGradient>
<path fill="url(#SVGID_6_-i3)" d="M294.01,90.762c3.119-4.203,18.367-1.457,24.545,2.034c23.033,13.015,39.903,27.451,54.82,49.301  c5.044,7.387,8.707,13.665,14.14,27.036c-12.155,0.792-15.656,17.227-48.849,25.403c-6.254-21.164-12.286-32.901-26.458-45.214  c-10.647-9.249-11.812-11.343-16.356-28.379C292.967,110.12,289.58,102.492,294.01,90.762z"/>
<path fill="none" stroke="#000000" stroke-miterlimit="10" d="M312.185,140.427c-5.13,25.226-7.555,51.002-7.22,76.742  c-6.349-0.631-12.474-3.339-17.214-7.609c-0.72,1.443-1.441,2.887-2.161,4.33"/>
<path fill="#428DFC" d="M274.346,82.231c4.952-1.729,10.166-5.129,10.693-10.347c0.467-4.622-2.926-8.643-6.097-12.04  c-3.366-3.609-6.731-7.218-10.097-10.826c-0.715-0.768-1.463-1.556-2.436-1.952c-1.383-0.562-2.951-0.224-4.388,0.18  c-7.222,2.031-13.922,5.551-20.56,9.044c-2.425,1.276-4.875,2.57-6.942,4.369c-5.785,5.034-8.21,14.381-4.93,21.313  c6.122-2.306,13.353,0.188,19.731,1.648C257.572,85.508,266.353,85.022,274.346,82.231z"/>
<g>
	<path fill="#E94A47" d="M263.224,76.507c-12.082,0-23.963-2.11-34.745-6.268c-0.451-0.174-0.674-0.68-0.5-1.129   c0.173-0.451,0.68-0.673,1.128-0.5c16.937,6.532,36.652,7.915,55.514,3.897c0.468-0.102,0.934,0.2,1.037,0.672   c0.1,0.473-0.2,0.935-0.673,1.036C277.79,75.748,270.471,76.507,263.224,76.507z"/>
</g>
<g>
	<path fill="#E94A47" d="M245.744,77.084c-6.635,0-12.803-0.977-18.485-2.935c-0.455-0.157-0.698-0.654-0.541-1.11   c0.157-0.457,0.653-0.698,1.11-0.542c15.331,5.283,34.423,3.19,56.738-6.22c0.443-0.187,0.957,0.02,1.145,0.465   c0.187,0.444-0.021,0.957-0.465,1.144C270.717,74.014,257.502,77.084,245.744,77.084z"/>
</g>
<path fill="#428DFC" d="M265.117,45.506c-3.648-8.878,0.117-21.758,6.784-28.663c6.667-6.906,16.387-10.28,25.973-10.788  c3.017-0.16,6.164-0.032,8.858,1.334c2.694,1.367,4.812,4.255,4.443,7.254c-3.649-1.864-8.289-0.754-11.473,1.827  c-3.183,2.579-5.139,6.369-6.597,10.197c-1.165,3.06-2.112,6.294-4.171,8.842c-2.302,2.846-5.728,4.505-9.071,5.994  c-4.32,1.925-8.971,6.046-13.142,3.817C266.275,52.701,265.587,46.92,265.117,45.506z"/>
<g>
	<path fill="#428DFC" d="M264.961,44.458c-0.208,0-0.393-0.151-0.429-0.364c-1.279-7.457-1.372-15.035-0.28-22.526   c1.041-7.142,3.037-12.211,6.28-15.953c4.209-4.855,10.728-6.848,15.853-4.844c0.225,0.088,0.336,0.341,0.248,0.566   s-0.342,0.335-0.565,0.248c-4.788-1.872-10.903,0.021-14.875,4.603c-3.129,3.609-5.06,8.536-6.076,15.506   c-1.079,7.4-0.986,14.887,0.277,22.252c0.04,0.237-0.12,0.463-0.357,0.504C265.011,44.456,264.985,44.458,264.961,44.458z"/>
</g>
<g>
	<path fill="#23286B" d="M247.151,108.283c-1.924,0-4.034-0.631-5.943-1.775c-4.351-2.611-6.367-6.978-4.589-9.942   c0.917-1.528,2.737-2.403,4.992-2.403c1.923,0,4.034,0.631,5.942,1.775c4.352,2.611,6.367,6.978,4.589,9.942   C251.225,107.407,249.405,108.283,247.151,108.283z M241.61,95.908c-1.627,0-2.901,0.567-3.495,1.556   c-1.232,2.054,0.596,5.51,3.99,7.546c1.64,0.984,3.431,1.526,5.044,1.526c1.627,0,2.9-0.567,3.494-1.556   c1.232-2.054-0.596-5.51-3.99-7.546C245.013,96.451,243.222,95.908,241.61,95.908z"/>
</g>
<rect x="260.255" y="41.579" fill="#E94A47" width="10.102" height="10.1"/>
<rect x="304.751" y="302.098" fill="#D62929" width="94.526" height="22.367"/>
<rect x="285.991" y="324.465" fill="#428DFC" width="94.526" height="22.367"/>
<rect x="311.246" y="306.787" fill="#D6D7D8" width="88.754" height="12.987"/>
<rect x="313.41" y="329.846" fill="#EEEEEE" width="33.193" height="10.822"/>
<linearGradient id="SVGID_7_-i3" gradientUnits="userSpaceOnUse" x1="3530.0613" y1="3064.5361" x2="4737.5957" y2="3064.5361" gradientTransform="matrix(0.1 0 0 0.1 -179.1 -131.1)">
	<stop offset="0" style="stop-color:#EEEEEE"/>
	<stop offset="1" style="stop-color:#D6D7D8"/>
</linearGradient>
<path fill="url(#SVGID_7_-i3)" d="M173.906,164.321l37.416-16.202c0,0,83.902,28.515,83.335,30.459  c-0.566,1.944-22.109,22.683-24.377,23.978C268.012,203.851,173.906,164.321,173.906,164.321z"/>
<g>
	<path fill="#23286B" d="M195.236,167.924c-0.159,0-0.312-0.087-0.389-0.237c-0.109-0.215-0.024-0.477,0.191-0.587l21.897-11.18   c0.215-0.108,0.477-0.024,0.587,0.191s0.024,0.477-0.191,0.587l-21.897,11.18C195.371,167.909,195.303,167.924,195.236,167.924z"/>
</g>
<g>
	<path fill="#23286B" d="M204.59,173.027c-0.153,0-0.301-0.081-0.382-0.223c-0.118-0.21-0.042-0.477,0.168-0.595l21.684-12.152   c0.209-0.117,0.476-0.043,0.595,0.166c0.118,0.21,0.042,0.477-0.168,0.595l-21.684,12.152   C204.736,173.009,204.662,173.027,204.59,173.027z"/>
</g>
<g>
	<path fill="#23286B" d="M220.959,181.289c-0.144,0-0.284-0.072-0.369-0.201c-0.129-0.204-0.069-0.473,0.134-0.602l24.447-15.553   c0.201-0.126,0.472-0.07,0.602,0.134c0.129,0.204,0.069,0.473-0.134,0.602l-24.447,15.553   C221.12,181.268,221.039,181.289,220.959,181.289z"/>
</g>
<g>
	<path fill="#23286B" d="M261.35,191.741c-0.134,0-0.267-0.061-0.352-0.178c-0.142-0.195-0.101-0.468,0.093-0.611l19.557-14.338   c0.193-0.143,0.468-0.102,0.611,0.093c0.142,0.195,0.101,0.468-0.093,0.611l-19.557,14.338   C261.532,191.713,261.441,191.741,261.35,191.741z"/>
</g>
<g>
	<path fill="#23286B" d="M246.256,184.693c-0.144,0-0.284-0.072-0.369-0.201c-0.129-0.202-0.07-0.473,0.134-0.602l20.197-12.879   c0.2-0.129,0.473-0.071,0.602,0.133c0.129,0.204,0.07,0.473-0.134,0.602l-20.197,12.88   C246.418,184.67,246.338,184.693,246.256,184.693z"/>
</g>
<path fill="#FFBEB6" d="M255.324,159.062c-2.522,0.549-9.199,2.525-11.802,3.897c-2.387,1.258-5.883,3.512-6.056,6.204  c-0.231,3.582,5.827,0.191,9.102-1.027c6.32-2.349,13.677-3.227,23.503-1.585c2.221,0.371,5.21-1.015,3.895-1.795  c-1.316-0.78-2.225-1.905-4.75-3.168C266.238,160.1,258.677,158.332,255.324,159.062z"/>
<linearGradient id="SVGID_8_-i3" gradientUnits="userSpaceOnUse" x1="4168.3657" y1="3160.7683" x2="4180.8364" y2="3458.9456" gradientTransform="matrix(0.1 0 0 0.1 -179.1 -131.1)">
	<stop offset="0" style="stop-color:#FFBEB6"/>
	<stop offset="1" style="stop-color:#F2A19C"/>
</linearGradient>
<path fill="url(#SVGID_8_-i3)" d="M285.588,201.882c-7.905,0-34.373-5.415-48.51-11.856c-3.849-1.754-13.049-12.791-14.993-13.836  c-6.254-3.361-17.617-7.597-18.065-6.643c-4.311,7.185,7.715,5.129,12.936,11.856c-9.657-3.43-17.287-6.893-26.944-10.323  c1.143,9.211,7.867,6.656,11.133,11.4c0.643,0.933,5.553,16.394,6.549,16.933c1.244,0.672,2.75,0.525,4.157,0.385  c7.66-0.76,15.398-0.716,23.049,0.12c4.929,0.539,35.093,16.58,39.907,17.773C275.018,214.665,284.528,204.726,285.588,201.882z"/>
<path fill="#A1C3FC" d="M320.144,110.578c-2.459-6.117-11.089-11.884-17.5-10.349c-6.969,1.668-7.708,10.337-7.637,17.503  c0.121,12.226,1.141,28.265,1.774,37.185c0.934,13.185-1.843,26.189-4.32,39.173c-0.443,2.394-1.287,4.407-2.379,6.121  c-18.018,0.991-36.293-2.718-52.445-10.776c-3.591,5.774-5.697,12.462-6.063,19.251c-0.074,1.373-0.049,2.852,0.737,3.981  c0.89,1.278,2.511,1.778,4.013,2.187c23.504,6.389,44.031,10.969,68.311,12.896c0.735,0.066,1.373-0.301,1.927-0.974  c0.445-0.244,0.796-0.581,1.032-1.032c5.38-10.304,8.884-25.033,11.26-37.876c2.605-14.089,3.678-26.987,5.475-41.203  C325.808,134.949,324.598,121.66,320.144,110.578z"/>
<rect x="311.246" y="316.609" fill="#EEEEEE" width="88.754" height="1.637"/>
<rect x="311.246" y="313.335" fill="#EEEEEE" width="88.754" height="1.637"/>
<rect x="311.246" y="310.061" fill="#EEEEEE" width="88.754" height="1.637"/>
<rect x="311.246" y="306.787" fill="#EEEEEE" width="88.754" height="1.637"/>
<circle fill="#23286B" cx="362.216" cy="335.679" r="6.22"/>
<path id="texture-2_1_-i3" fill="#FFFFFF" d="M300.169,122.209c0.117-0.108,0.121-0.221,0.013-0.338  c-0.108-0.117-0.221-0.121-0.338-0.013c-0.117,0.108-0.121,0.221-0.013,0.338l0,0C299.939,122.313,300.056,122.204,300.169,122.209  L300.169,122.209z M307.55,99.483c0.112,0.004,0.23-0.104,0.234-0.216l0,0c0.004-0.112-0.104-0.23-0.216-0.233l0,0  c-0.112-0.004-0.23,0.104-0.234,0.216C307.213,99.47,307.433,99.591,307.55,99.483L307.55,99.483L307.55,99.483z M303.076,110.704  c0.112,0.004,0.225,0.008,0.342-0.101c0.004-0.112,0.008-0.225-0.101-0.342c-0.112-0.004-0.225-0.008-0.342,0.101  C302.855,110.583,302.963,110.699,303.076,110.704z M327.631,129.652c0.221,0.121,0.451,0.017,0.572-0.205  c0.121-0.221,0.017-0.451-0.205-0.571l0,0c-0.221-0.121-0.451-0.017-0.572,0.205C327.193,129.298,327.406,129.644,327.631,129.652  L327.631,129.652z M317.63,125.674c0.221,0.121,0.451,0.017,0.572-0.205c0.121-0.221,0.017-0.451-0.205-0.571  c-0.221-0.121-0.451-0.017-0.572,0.205l0,0C317.306,125.323,317.41,125.552,317.63,125.674z M307.635,121.583  c0.221,0.121,0.451,0.017,0.572-0.205l0,0c0.121-0.221,0.017-0.451-0.205-0.571l0,0c-0.221-0.121-0.451-0.017-0.572,0.205  C307.308,121.233,307.412,121.462,307.635,121.583z M311.246,145.844c0.121-0.221,0.129-0.446,0.025-0.675  c-0.221-0.121-0.446-0.129-0.675-0.025c-0.121,0.221-0.129,0.446-0.021,0.563C310.786,146.053,311.012,146.061,311.246,145.844  L311.246,145.844z M303.518,138.342c0.121-0.221,0.129-0.446,0.025-0.675c-0.221-0.121-0.446-0.129-0.675-0.025  c-0.121,0.221-0.129,0.446-0.021,0.563C303.064,138.438,303.401,138.451,303.518,138.342L303.518,138.342z M326.744,107.973  c0.225,0.008,0.458-0.209,0.468-0.434c0.008-0.225-0.209-0.458-0.434-0.468l0,0c-0.225-0.008-0.458,0.209-0.468,0.434l0,0  C326.3,107.731,326.518,107.964,326.744,107.973z M315.916,108.022c0.225,0.008,0.458-0.209,0.468-0.434  c0.008-0.225-0.209-0.458-0.434-0.468c-0.225-0.008-0.458,0.209-0.468,0.434l0,0C315.475,107.781,315.692,108.014,315.916,108.022  L315.916,108.022z M305.202,108.076c0.225,0.008,0.458-0.209,0.468-0.434l0,0c0.008-0.225-0.209-0.458-0.434-0.468l0,0  c-0.225-0.008-0.458,0.209-0.468,0.434C304.756,107.947,304.978,108.068,305.202,108.076L305.202,108.076z M303.647,153.117  c0.117-0.108,0.242-0.442,0.021-0.563c-0.108-0.117-0.442-0.242-0.563-0.021c-0.117,0.108-0.242,0.442-0.021,0.563l0,0  C303.188,153.326,303.414,153.333,303.647,153.117z M321.997,117.38c0.225,0.008,0.455-0.096,0.462-0.321  c0.008-0.225-0.101-0.342-0.321-0.462l0,0c-0.225-0.008-0.455,0.096-0.462,0.321l0,0  C321.668,117.142,321.772,117.371,321.997,117.38L321.997,117.38z M312.443,116.575c0.225,0.008,0.455-0.096,0.462-0.321  c0.008-0.225-0.101-0.342-0.321-0.462l0,0c-0.225-0.008-0.455,0.096-0.462,0.321l0,0  C312.112,116.337,312.217,116.566,312.443,116.575L312.443,116.575z M302.892,115.658c0.225,0.008,0.455-0.096,0.462-0.321l0,0  c0.008-0.225-0.101-0.342-0.321-0.462l0,0c-0.225-0.008-0.455,0.096-0.462,0.321l0,0  C302.559,115.533,302.667,115.649,302.892,115.658L302.892,115.658z M311.513,135.595c0.221,0.121,0.451,0.017,0.572-0.205  c0.121-0.221,0.017-0.451-0.205-0.571c-0.221-0.121-0.451-0.017-0.572,0.205C311.187,135.245,311.288,135.586,311.513,135.595  L311.513,135.595z M302.993,131.22c0.221,0.121,0.451,0.017,0.567-0.091l0,0c0.121-0.221,0.017-0.451-0.205-0.571  c-0.221-0.121-0.451-0.017-0.572,0.205C302.667,130.869,302.771,131.099,302.993,131.22L302.993,131.22z M315.345,99.095  c0.23-0.104,0.346-0.213,0.242-0.442l0,0c-0.104-0.23-0.326-0.35-0.442-0.242l0,0c-0.23,0.104-0.35,0.325-0.246,0.554  C314.899,98.965,315.12,99.086,315.345,99.095L315.345,99.095L315.345,99.095z M306.22,101.914c0.23-0.104,0.35-0.325,0.246-0.554  c-0.104-0.23-0.326-0.35-0.555-0.246c-0.23,0.104-0.35,0.325-0.242,0.442C305.77,101.897,305.991,102.018,306.22,101.914  C306.108,101.909,306.22,101.914,306.22,101.914L306.22,101.914z M313.218,156.515c0.221,0.121,0.451,0.017,0.572-0.205  c0.121-0.221,0.017-0.451-0.205-0.571c-0.221-0.121-0.451-0.017-0.572,0.205C312.893,156.165,312.998,156.394,313.218,156.515  L313.218,156.515z M303.367,151.528c0.221,0.121,0.451,0.017,0.572-0.205c0.121-0.221,0.017-0.451-0.205-0.571  c-0.221-0.121-0.451-0.017-0.572,0.205C303.047,151.066,303.147,151.407,303.367,151.528L303.367,151.528z M317.31,109.99  c0.23-0.104,0.35-0.325,0.246-0.554c-0.104-0.23-0.326-0.35-0.555-0.246c-0.23,0.104-0.35,0.325-0.246,0.554  C316.747,109.97,317.08,110.095,317.31,109.99L317.31,109.99z M306.695,113.431c0.23-0.104,0.35-0.325,0.246-0.554  c-0.104-0.23-0.326-0.35-0.555-0.246c-0.23,0.104-0.35,0.325-0.246,0.554C306.249,113.302,306.466,113.535,306.695,113.431  L306.695,113.431z M314.615,134.018c0.225,0.008,0.458-0.209,0.468-0.434c0.008-0.225-0.209-0.458-0.434-0.468  c-0.225-0.008-0.458,0.209-0.468,0.434l0,0C314.174,133.776,314.39,134.011,314.615,134.018L314.615,134.018L314.615,134.018z   M303.597,133.159c0.225,0.008,0.458-0.209,0.468-0.434l0,0c0.008-0.225-0.209-0.458-0.434-0.468l0,0  c-0.225-0.008-0.458,0.209-0.468,0.434C303.155,132.917,303.259,133.147,303.597,133.159L303.597,133.159z M315.916,141.508  c0.225,0.008,0.458-0.209,0.468-0.434c0.008-0.225-0.209-0.458-0.434-0.468s-0.455,0.096-0.468,0.434  C315.475,141.266,315.691,141.5,315.916,141.508L315.916,141.508z M304.914,140.198c0.225,0.008,0.458-0.209,0.468-0.434  c0.008-0.225-0.096-0.455-0.434-0.468c-0.225-0.008-0.458,0.209-0.58,0.429C304.473,139.956,304.689,140.189,304.914,140.198  L304.914,140.198z M308.723,119.594c0.23-0.104,0.35-0.325,0.358-0.55c-0.104-0.23-0.324-0.35-0.55-0.358  c-0.23,0.104-0.35,0.325-0.358,0.55l0,0C308.164,119.461,308.497,119.586,308.723,119.594L308.723,119.594L308.723,119.594z"/>
<path fill="#428DFC" d="M291.525,83.386c1.67,5.281-4.048,21.986-4.171,22.585c-0.118,0.577,8.006,18.849,8.006,18.849  s3.276-10.51,4.298-15.816c1.238-6.425,3.465-13.942,0.866-19.947C300.355,88.669,292.485,84.1,291.525,83.386z"/>

</g>
</g>

<!-- ITEM 4 -->
<g transform="translate(718.0 170.0) scale(0.625 0.6263440860215054) rotate(14.899091962496021 100.0 186.0)">
<g transform="translate(-0.0 -0.0)">

<polygon fill="none" points="145.084,160.877 144.916,160.882 144.916,160.882 "/>
<polygon fill="none" points="179.462,104.184 179.492,104.184 179.492,104.184 "/>
<path fill="#D6D7D8" d="M115.415,106.042l4.598-6.689l0.036-0.053l2.95-4.291l2.085-3.034c0,0,0.48-0.465,0.732-0.808l15.983-23.119  l54.18-1.649l0.045-0.139c4.95-17.186,5.273-33.509,1.003-54.215c-0.621-3.011-1.413-6.129-3.474-8.407  c-3.782-4.181-10.324-4.078-15.859-3.024c-10.691,2.036-20.815,6.395-30.413,11.529c-4.149,2.219-8.159,4.614-12.117,7.116  l13.459,38.471l-7.572,11.016l-15.135-43.273c-15.783,11.251-29.885,24.739-42.3,39.772l20.164,57.73l-7.572,11.016L75.694,75.311  c-4.736,6.368-9.211,12.953-13.377,19.742c3.645,6.021,3.713,13.302,3.783,20.355c0.011,1.089,0.017,2.169,0.041,3.243  c0.236,10.534,3.056,17.629,8.348,21.115c0.496,0.325,1.029,0.628,1.545,0.92c0.897,0.508,1.823,1.033,2.642,1.722  c4.077,3.427,4.154,9.631,2.423,14.259l-0.963-0.36c1.604-4.29,1.571-10.008-2.122-13.112c-0.746-0.628-1.592-1.107-2.488-1.615  c-0.53-0.3-1.079-0.612-1.603-0.955c-0.093-0.061-0.187-0.124-0.279-0.187c-5.426-3.735-8.296-11.055-8.536-21.766  c-0.024-1.078-0.035-2.167-0.046-3.26c-0.068-6.73-0.148-13.678-3.378-19.374c-4.808,7.909-9.239,16.066-13.268,24.41l19.251,55.067  l4.66-6.779l68.301-1.942c-0.003,0.005-0.002,0.076-0.006,0.076h0.03c0.208-0.709,0.392-0.634,0.6-0.912l-68.342,1.961l0.011-0.03  l-0.031-0.006l0.031-0.005l3.485-5.072l68.494-1.876c5.929-8.262,11.303-16.34,16.415-24.809  c-17.226,4.062-34.707,6.86-52.337,8.413c14.732-8.885,58.601-20.484,58.601-20.484s7.19-11.199,10.466-17.16  c0.491-0.894,0.938-1.806,1.408-2.686l-63.967,1.865l63.97-1.868c0.002-0.005,0.005-0.01,0.008-0.015l-64.066,1.712"/>
<path fill="#D6D7D8" d="M111.392,197.72c-3.275,2.19-7.647,4.681-12.432,4.507c-4.711-0.171-8.701-2.831-12.56-5.403  c-2.541-1.694-5.169-3.445-7.981-4.476c-7.949-2.914-17.901-0.193-26.609,7.287l-0.402-0.464l-5.365,7.806L31.242,164.66  c-8.58,29.261-11.693,60.781,0.238,88.457c22.385-2.369,41.776-16.3,58.607-31.261c10.435-9.277,20.324-19.159,29.637-29.561  c-2.079,1.091-4.04,2.453-5.954,3.791C112.992,196.625,112.191,197.186,111.392,197.72z"/>
<path fill="#A1C3FC" d="M78.764,191.376c2.927,1.073,5.611,2.862,8.202,4.589c3.912,2.607,7.609,5.072,12.03,5.233  c4.491,0.163,8.679-2.23,11.825-4.334c0.79-0.527,1.587-1.084,2.358-1.624c2.59-1.81,5.266-3.667,8.249-4.873  c3.631-4.112,7.169-8.307,10.62-12.572l-67.295,1.954l-12.472,18.146C60.958,190.872,70.812,188.462,78.764,191.376z"/>
<path fill="#428DFC" d="M177.334,86.605c-0.886,0.618-1.743,1.323-2.572,2.005c-1.005,0.827-2.043,1.682-3.164,2.409  c-2.595,1.685-5.629,2.643-8.709,2.83l22.208-0.653c-0.002,0.004-0.004,0.009-0.006,0.013l0.024-0.001  c1.718-3.484,3.285-6.857,4.707-10.153C185.423,82.869,180.959,84.079,177.334,86.605z"/>
<path fill="#EEEEEE" d="M177.334,86.605c-0.886,0.618-1.743,1.323-2.572,2.005c-1.005,0.827-2.043,1.682-3.164,2.409  c-2.595,1.685-5.629,2.643-8.709,2.83l22.208-0.653c-0.002,0.004-0.004,0.009-0.006,0.013l0.024-0.001  c1.718-3.484,3.285-6.857,4.707-10.153C185.423,82.869,180.959,84.079,177.334,86.605z"/>
<path fill="#428DFC" d="M156.863,93.195c-2.389-0.694-4.624-1.887-6.786-3.04c-2.956-1.576-5.748-3.066-8.909-3.406  c-5.422-0.583-10.546,2.381-15.745,5.742l-0.339-0.517l-2.085,3.034l38.589-1.127C159.989,93.864,158.402,93.642,156.863,93.195z"/>
<path fill="#EEEEEE" d="M156.863,93.195c-2.389-0.694-4.624-1.887-6.786-3.04c-2.956-1.576-5.748-3.066-8.909-3.406  c-5.422-0.583-10.546,2.381-15.745,5.742l-0.339-0.517l-2.085,3.034l38.589-1.127C159.989,93.864,158.402,93.642,156.863,93.195z"/>
<path fill="#EEEEEE" d="M125.695,91.084c5.229-3.129,10.118-5.949,15.573-5.363c3.36,0.36,6.375,1.97,9.288,3.523  c2.116,1.129,4.305,2.297,6.591,2.961c4.642,1.348,9.836,0.583,13.891-2.051c1.072-0.697,2.089-1.531,3.071-2.34  c0.844-0.695,1.717-1.413,2.637-2.054c3.914-2.729,8.76-3.998,13.505-3.712c2.291-5.402,4.172-10.606,5.65-15.732l-54.266,1.573  L125.695,91.084z"/>
<path fill="#428DFC" d="M195.914,66.311c-0.001,0.004-0.003,0.009-0.004,0.013l0.022-0.001c0.001-0.004,0.002-0.009,0.004-0.013  L195.914,66.311z"/>
<path fill="#EEEEEE" d="M182.932,97.506L120.049,99.3l-0.036,0.053l-4.586,6.672l63.664-1.838l0.19,0.02"/>
<path fill="#78A9EF" d="M162.189,93.871l-39.191,1.137l-2.95,4.291c0,0,62.782-1.663,62.78-1.659l0.282-0.363  c0.744-1.446,1.279-2.749,1.974-4.157l-22.419,0.734C162.505,93.862,162.349,93.868,162.189,93.871z"/>
<path fill="#78A9EF" d="M161.596,93.887l-38.581,1.133l39.182-1.143C161.997,93.882,161.796,93.889,161.596,93.887z"/>
<path fill="#78A9EF" d="M120.065,99.311l62.862-1.808c0.002-0.004,0.005-0.009,0.007-0.013L120.065,99.311z"/>
<path fill="#FFFFFF" d="M176.747,85.762c-0.92,0.641-1.792,1.359-2.637,2.054c-0.983,0.809-1.998,1.645-3.071,2.34  c-4.055,2.632-9.248,3.399-13.89,2.051c-2.286-0.665-4.474-1.831-6.589-2.96c-2.912-1.553-5.932-3.166-9.292-3.526  c-5.455-0.586-10.344,2.234-15.573,5.363l-0.612,0.89l0.339,0.517c5.199-3.361,10.319-6.328,15.741-5.745  c3.162,0.339,5.956,1.831,8.912,3.407c2.162,1.153,4.399,2.346,6.787,3.041c1.539,0.446,3.135,0.676,4.733,0.692l1.294-0.038  c3.08-0.186,6.115-1.145,8.709-2.83c1.121-0.728,2.16-1.582,3.164-2.409c0.829-0.682,1.686-1.387,2.572-2.005  c3.625-2.527,8.089-3.736,12.488-3.549c0.145-0.336,0.287-0.672,0.43-1.007C185.506,81.764,180.661,83.033,176.747,85.762z"/>
<path fill="#FFFFFF" d="M162.677,93.863c0.071-0.004,0.142-0.01,0.212-0.015l-1.293,0.038c0.201,0.002,0.401-0.005,0.602-0.01  C162.357,93.873,162.517,93.871,162.677,93.863z"/>
<path opacity="0.61" fill="#FFFFFF" enable-background="new    " d="M67.666,175.514l-2.912,4.237l67.288-1.959  c2.933-3.624,5.775-7.318,8.57-11.049l-68.287,1.991L67.666,175.514z"/>
<path fill="#428DFC" d="M140.625,166.752c0.004-0.005,0.007-0.009,0.01-0.013L140.625,166.752z"/>
<path opacity="0.61" fill="#FFFFFF" enable-background="new    " d="M140.625,166.752c0.004-0.005,0.007-0.009,0.01-0.013  L140.625,166.752z"/>
<path fill="#F8AFA9" d="M76.403,162.802l-3.485,5.07l68.34-1.95c0.222-0.264,2.397-3.418,3.6-5.092L76.403,162.802z"/>
<polygon fill="#1D72D8" points="145.093,160.887 145.085,160.887 145.085,160.887 "/>
<path fill="#1D72D8" d="M76.477,162.853"/>
<polygon fill="#1D72D8" points="145.09,160.89 145.093,160.887 145.085,160.887 "/>
<path fill="#FFFFFF" d="M48.415,120.447c-4.866,10.075-9.181,20.403-12.888,30.892c-1.543,4.366-3.039,8.839-4.358,13.335  l14.873,42.302l5.365-7.806l13.347-19.418l2.912-4.237L48.415,120.447z"/>
<path fill="#428DFC" d="M110.822,196.865c-3.146,2.104-7.333,4.498-11.824,4.335c-4.421-0.161-8.116-2.623-12.027-5.232  c-2.591-1.728-5.279-3.519-8.206-4.592c-7.951-2.914-17.806-0.503-26.482,6.521l-0.875,1.272l0.402,0.464  c8.708-7.48,18.656-10.202,26.605-7.29c2.813,1.031,5.442,2.784,7.984,4.477c3.859,2.572,7.85,5.233,12.561,5.404  c4.785,0.174,9.158-2.317,12.432-4.506c0.799-0.534,1.6-1.094,2.375-1.636c1.913-1.337,3.875-2.699,5.955-3.791  c0.572-0.64,1.139-1.282,1.706-1.926c-2.983,1.204-5.659,3.063-8.249,4.873C112.408,195.78,111.611,196.337,110.822,196.865z"/>
<path fill="#FFFFFF" d="M51.132,198.848l0.276,0.321l0.875-1.272C52.014,198.287,51.513,198.521,51.132,198.848z"/>
<path fill="#EEEEEE" d="M103.778,122.973L83.687,65.249c-2.715,3.288-5.537,6.68-8.089,10.11l20.607,58.631L103.778,122.973z"/>
<path fill="#1D72D8" d="M148.62,57.73l-13.459-38.471c-3.143,1.987-6.32,4.075-9.342,6.229l15.229,43.258L148.62,57.73z"/>
<path fill="#428DFC" d="M65.062,115.411c0.011,1.093,0.022,2.182,0.046,3.26c0.24,10.711,3.111,18.031,8.536,21.766  c0.092,0.063,0.186,0.126,0.279,0.187c0.524,0.343,1.072,0.655,1.603,0.955c0.896,0.507,1.741,0.987,2.488,1.613  c3.692,3.104,3.726,8.822,2.122,13.112l0.962,0.36c1.731-4.628,1.653-10.833-2.423-14.26c-0.819-0.689-1.746-1.213-2.642-1.722  c-0.516-0.292-1.05-0.595-1.546-0.92c-5.292-3.485-8.115-10.582-8.351-21.117c-0.024-1.074-0.035-2.158-0.046-3.247  c-0.071-7.054-0.046-14.336-3.691-20.356c-0.204,0.332-0.511,0.659-0.714,0.992C64.914,101.733,64.994,108.681,65.062,115.411z"/>
<polygon fill="#23286B" points="53.146,298.228 31.803,372 0,291.81 28.427,318.242 "/>
<g>
	<path fill="#23286B" d="M25.61,335.011c7.248-87.217,30.412-169.764,68.851-245.349c10.805-21.246,26.047-48.51,48.196-70.942   l0.803,0.794c-22.039,22.321-37.225,49.487-47.993,70.661c-38.371,75.454-61.496,157.86-68.731,244.93L25.61,335.011z"/>
</g>

</g>
</g>

<!-- ITEM 5 -->
<g transform="translate(168.0 818.0) scale(0.59 0.59) rotate(0.0 150.0 150.0)">
<g transform="translate(-0.0 -0.0)">

<circle style="fill:#D9E021;" cx="192.103" cy="276.35" r="17.156"/>
<rect x="2.217" y="35.642" transform="matrix(-0.2968 0.9549 -0.9549 -0.2968 56.7448 47.1144)" style="fill:#A1C3FC;" width="17.616" height="17.616"/>
<rect x="100.47" y="63.366" transform="matrix(-0.2968 0.9549 -0.9549 -0.2968 244.8036 -5.5692)" style="fill:#E94A47;" width="47.965" height="47.965"/>
<rect x="32.781" y="237.765" transform="matrix(-0.2968 0.9549 -0.9549 -0.2968 323.5641 285.2325)" style="fill:#1D72D8;" width="47.965" height="47.965"/>
<g>
	<path style="fill:#23286B;" d="M68.404,147.546c-0.721,0-1.407-0.408-1.731-1.106C44.218,98.065,58.068,35.695,98.883,1.364   c0.804-0.679,2.005-0.572,2.688,0.233c0.679,0.804,0.572,2.009-0.233,2.688C61.797,37.544,48.381,97.97,70.135,144.839   c0.442,0.953,0.027,2.089-0.926,2.531C68.945,147.488,68.671,147.546,68.404,147.546z"/>
</g>
<g>
	<path style="fill:#23286B;" d="M194.749,217.594c-0.499,0-0.999-0.194-1.372-0.583c-0.728-0.755-0.709-1.963,0.053-2.695   c27.628-26.637,76.114-28.669,105.865-4.415c0.82,0.667,0.942,1.864,0.274,2.68c-0.667,0.823-1.868,0.934-2.68,0.274   c-28.341-23.091-74.505-21.162-100.814,4.209C195.702,217.415,195.226,217.594,194.749,217.594z"/>
</g>

</g>
</g>

<!-- ITEM 6 -->
<g transform="translate(184.0 208.0) scale(0.55 0.549407114624506) rotate(320.18078950091706 150.0 126.49999999999999)">
<g transform="translate(-0.0 -0.0)">

<polygon fill="#A1C3FC" points="15.652,104.241 0,97.009 7.225,81.34 22.877,88.573 "/>
<polygon fill="#E94A47" points="134.833,123.971 92.215,104.277 111.888,61.615 154.507,81.309 "/>
<polygon fill="#1D72D8" points="280.334,62.356 237.716,42.663 257.389,0 300.008,19.694 "/>
<g>
	<path fill="#23286B" d="M208.486,81.834c-0.612,0-1.216-0.306-1.574-0.863c-27.21-42.667-84.119-63.428-132.379-48.307   c-0.989,0.31-2.03-0.239-2.336-1.225c-0.31-0.986,0.239-2.032,1.224-2.338c49.809-15.615,108.553,5.823,136.644,49.86   c0.552,0.87,0.298,2.024-0.567,2.577C209.18,81.74,208.833,81.834,208.486,81.834z"/>
</g>
<g>
	<path fill="#23286B" d="M12.464,253c-0.041,0-0.078,0-0.119-0.004c-1.026-0.067-1.81-0.952-1.742-1.979   c2.38-37.532,36.079-71.025,73.586-73.139c1.048-0.138,1.91,0.732,1.966,1.759c0.06,1.027-0.728,1.912-1.757,1.968   c-35.717,2.017-67.807,33.909-70.075,69.644C14.259,252.242,13.438,253,12.464,253z"/>
</g>

</g>
</g>

<!-- ITEM 7 -->
<g transform="translate(718.0 170.0) scale(0.23 0.23) rotate(19.467212150078623 50.0 50.0)">
<g transform="translate(-0.0 -0.0)">

<path fill="#23286B" d="M98.663,98.531c-33.052,1.963-65.546,1.955-97.487,0c-1.46-34.57-1.676-67.372,0-97.487  c32.497-1.392,64.992-1.392,97.487,0C100.512,32.524,100.381,65.091,98.663,98.531z"/>

</g>
</g>

<!-- ITEM 8 -->
<g transform="translate(241.0 1061.0) scale(0.18 0.18) rotate(339.51444287216225 50.0 50.0)">
<g transform="translate(-0.0 -0.0)">

<path fill="#E94A47" d="M98.663,98.531c-33.052,1.963-65.546,1.955-97.487,0c-1.46-34.57-1.676-67.372,0-97.487  c32.497-1.392,64.992-1.392,97.487,0C100.512,32.524,100.381,65.091,98.663,98.531z"/>

</g>
</g>

<!-- ITEM 9 -->
<g transform="translate(676.0 79.0) scale(1.0550235351403994 1.0550235351403994) rotate(0.0 6.161 6.161)">
<g transform="translate(1373.77 -605.694)">

<circle fill="#D9E021" cx="-1367.609" cy="611.855" r="6.161"/>

</g>
</g>

<!-- ITEM 10 -->
<g transform="translate(276.0 295.0) scale(0.11660067068705779 0.11488917789899862) rotate(0.0 107.2035 108.80050000000001)">
<g transform="translate(1630.003 -447.024)">

<polygon fill="#D9E021" points="-1415.596,530.566 -1506.08,664.625 -1630.003,581.083 -1539.519,447.024 "/>

</g>
</g>

              </svg>