<svg width="512" height="512" xmlns="http://www.w3.org/2000/svg">
 <defs>
  <style>.cls-1{fill:#409eff;}</style>
 </defs>
 <g>
  <title>background</title>
  <rect fill="none" id="canvas_background" height="514" width="514" y="-1" x="-1"/>
 </g>
 <g>
  <title>Layer 1</title>
  <g id="图层_2">
   <g id="图层_1-2">
    <path id="svg_1" d="m66.615005,300.980007l0,-76.94c0,-69.84 54.45,-125.47 121.92,-125.47l256.85,0l0,17.75c0,61.56 -48.53,111.25 -107.71,111.25l-90,0l0,-36.67l90,0c34.33,0 62.73,-23.68 71,-56.82l-219,0c-47.35,0 -86.41,40.24 -86.41,88.77l0,91.15c0,13 2.37,27.22 17.76,42.61s32,20.12 52.08,20.12l39.06,0c20.12,0 36.69,-16.57 36.69,-37.88l35.51,0c0,41.43 -31.95,74.58 -72.2,74.58l-39.02,0c-16.57,0 -52.08,-1.19 -79.31,-29.6s-27.22,-49.71 -27.22,-82.85z" class="cls-1"/>
    <path id="svg_2" d="m193.265005,277.300007l93.51,0c21.31,0 37.88,-14.2 37.88,-32l36.69,0c0,34.33 -33.14,62.74 -74.57,62.74l-93.51,0l0,-30.74z" class="cls-1"/>
   </g>
  </g>
 </g>
</svg>