<?xml version="1.0" encoding="iso-8859-1" ?>
<svg version="1.1" xmlns="http://www.w3.org/2000/svg" xmlns:xlink="http://www.w3.org/1999/xlink" 
    viewBox="0 0 1600 1200" width="1600" height="1200">
    
    
    <!-- ITEM 0 -->
    <g>
        <defs>
            <clipPath id="clip-path-id-viewbox-item-0">
                <rect x="0.0" y="0.0" width="800.0" height="600.0"/>
            </clipPath>
        </defs>
        <g transform="translate(425.0 257.0) rotate(0.0 557.0 418.0) scale(1.3925 1.3933333333333333)">
            <g clip-path="url(#clip-path-id-viewbox-item-0)" transform="translate(-0.0 -0.0)">
                
<path style="fill:#E6E6E6;" d="M672.876,476.948l12.227-3.821c0.983-0.655,2.074-1.092,3.057-1.965l-18.996,6.114  C670.474,477.166,671.675,477.166,672.876,476.948z M664.251,476.948l27.62-8.952c0.546-0.437,0.873-0.983,1.419-1.419  l-30.895,9.825C663.05,476.729,663.705,476.838,664.251,476.948z M659.448,475.747l36.135-11.572  c0.437-0.327,0.546-0.764,0.983-1.201l-38.101,12.118C658.793,475.528,659.12,475.528,659.448,475.747z M656.609,473.891  l41.485-13.319c0.218-0.327,0.437-0.764,0.655-1.092l-42.795,13.756C656.063,473.563,656.391,473.782,656.609,473.891z   M654.535,471.816l45.197-14.411c0.218-0.328,0.218-0.655,0.437-1.092l-46.179,14.847  C654.317,471.38,654.426,471.707,654.535,471.816z M653.225,469.633l48.035-15.284c0-0.327,0.218-0.655,0.218-1.092l-48.69,15.611  C652.898,469.087,653.007,469.415,653.225,469.633z M652.024,467.231l49.891-16.048c0-0.328,0.109-0.655,0.218-1.092l-50.437,16.048  C651.806,466.685,651.915,466.904,652.024,467.231z M651.151,464.83l51.419-16.485c0-0.327,0.109-0.655,0.109-0.983l-51.856,16.703  C650.932,464.175,651.042,464.502,651.151,464.83z M650.714,461.882c0.109,0.109-0.109,0.218,0,0.327l52.293-16.703  c0-0.327,0.109-0.655,0.109-0.983l-52.075,16.594C650.932,461.336,650.823,461.554,650.714,461.882z M653.443,458.17  c-0.109,0.109-0.218,0.328-0.437,0.328l50.109-16.048c0-0.328-0.109-0.546,0-0.873l-48.799,15.721  C653.88,457.624,653.662,457.952,653.443,458.17z M655.845,455.004l46.834-14.956c0-0.328-0.109-0.546-0.218-0.873l-46.179,14.847  C656.282,454.349,656.063,454.568,655.845,455.004z M657.374,451.729l45.088-14.411c-0.109-0.327-0.109-0.546-0.218-0.873  l-44.433,14.301C657.483,451.183,657.483,451.511,657.374,451.729z M658.138,448.781l43.668-13.865  c-0.109-0.328-0.218-0.437-0.218-0.873l-43.122,13.865C658.247,448.236,658.138,448.454,658.138,448.781z M658.356,445.943  l42.467-13.537c-0.109-0.327-0.218-0.437-0.327-0.764l-42.249,13.428C658.356,445.397,658.356,445.725,658.356,445.943z   M658.138,443.214l41.267-13.21c-0.109-0.327-0.218-0.437-0.328-0.764l-41.048,13.1  C658.138,442.668,658.138,443.105,658.138,443.214z M657.592,440.703l40.284-12.991c-0.109-0.327-0.437-0.546-0.546-0.655  l-40.175,12.882C657.374,440.266,657.483,440.484,657.592,440.703z M695.365,424.982l-39.192,12.445  c0.109,0.327,0.218,0.437,0.328,0.764l39.52-12.664C696.02,425.419,695.693,425.201,695.365,424.982z M693.072,423.017  l-38.21,12.227c0.109,0.328,0.437,0.546,0.546,0.655l38.537-12.336C693.618,423.563,693.291,423.236,693.072,423.017z   M690.016,421.27l-36.463,11.572c0.109,0.328,0.218,0.437,0.328,0.764l37.227-12.009C690.671,421.598,690.452,421.38,690.016,421.27  z M686.195,419.851c-0.109,0.109-0.218-0.109-0.327,0l-32.205,10.262c-0.109,0.218-0.109,0.655-0.109,0.983l34.061-10.917  C687.068,420.179,686.631,419.96,686.195,419.851z M678.007,419.524l-20.852,6.659c-0.655,0.546-1.419,0.983-2.074,1.528  l26.419-8.406C680.409,419.415,679.099,419.415,678.007,419.524z"></path>
<g>
	
		<linearGradient id="SVGID_1_-i0" gradientUnits="userSpaceOnUse" x1="5958.4717" y1="-2529.595" x2="7354.1338" y2="-2529.595" gradientTransform="matrix(0.1 0 0 -0.1 0 18)">
		<stop offset="0" style="stop-color:#B9D3FD"></stop>
		<stop offset="1" style="stop-color:#89B3F4"></stop>
	</linearGradient>
	<path style="fill:url(#SVGID_1_-i0);" d="M734.666,291.794c1.528,4.585-0.218,9.498-2.511,13.756   c-6.223,11.681-16.266,21.288-28.275,26.856c-6.659,3.166-13.865,5.022-20.742,7.86c-19.978,8.297-36.245,24.891-43.996,45.088   c2.293-13.974-5.022-27.839-13.974-38.865c-8.843-11.026-19.542-20.961-25.873-33.625c-5.459-10.917-5.568-27.074,5.459-32.315   c8.079-3.821,18.232,0.437,26.529-3.057c2.948-1.31,5.568-3.93,5.458-7.096c-0.437-8.079-16.376-7.533-16.812-15.611   c-0.437-9.28,24.018-6.55,20.852-15.393c-1.31-3.712-6.55-4.804-8.297-8.297c-1.856-3.493-1.747-8.406,1.419-10.917   c4.039-3.275,10.153-0.655,15.284-1.856c5.786-1.31,9.498-7.205,10.699-13.1c1.201-5.895,0.546-11.9,1.419-17.795   c2.074-14.52,13.974-27.074,28.275-30.131c14.301-3.057,30.24,3.712,37.991,16.157c3.166,5.131,4.913,12.009,1.528,16.921   c-2.948,4.148-9.279,6.878-8.734,11.9c0.655,6.878,13.428,7.533,13.646,14.411c0.218,8.079-16.376,8.079-15.939,16.157   c0.218,3.603,4.039,5.677,6.332,8.515c4.367,5.24,2.62,14.301-3.384,17.576c-2.402,1.31-5.24,1.856-7.096,3.712   c-4.804,4.694-0.109,12.991,5.568,16.485C725.169,282.624,732.592,285.353,734.666,291.794z"></path>
	
		<linearGradient id="SVGID_2_-i0" gradientUnits="userSpaceOnUse" x1="6414.0796" y1="-2855.1492" x2="7869.9307" y2="-2855.1492" gradientTransform="matrix(0.1 0 0 -0.1 0 18)">
		<stop offset="0" style="stop-color:#DEEAFE"></stop>
		<stop offset="1" style="stop-color:#E9F1FE"></stop>
	</linearGradient>
	<path style="fill:url(#SVGID_2_-i0);" d="M692.745,292.34c3.384-1.856,6.987-3.603,9.716-6.441c5.568-6.114,5.24-15.284,5.677-23.581   c0.437-8.297,3.384-18.013,11.354-20.197c6.659-1.856,15.066,2.183,19.978-2.62c1.856-1.747,2.62-4.367,3.93-6.55   c5.677-9.498,20.633-8.734,28.93-1.419c8.188,7.314,11.354,18.668,14.083,29.367c0.983,3.93,1.092,9.389-2.729,10.48   c-3.712,0.983-7.424-3.603-10.917-2.183c-2.838,1.092-3.057,5.131-1.965,8.079c0.983,2.838,2.729,5.786,2.074,8.843   c-1.31,5.677-9.279,6.004-14.956,4.476c-5.677-1.528-12.991-3.057-16.266,1.856c3.603,11.463,6.659,25.437-1.419,34.498   c-9.279,10.371-26.419,9.28-40.284,10.59c-25.764,2.402-43.996,22.052-58.516,43.559   C640.561,345.069,661.195,309.48,692.745,292.34z"></path>
</g>
<g>
	<path style="fill:#FFFFFF;" d="M660.43,364.72c-0.109,0-0.109,0-0.218,0c-0.328-0.109-0.437-0.437-0.328-0.655   c13.101-40.066,33.952-67.904,72.053-95.961c7.096-5.24,28.494-14.083,37.773-14.847c0.218,0,0.546,0.218,0.546,0.546   s-0.218,0.546-0.546,0.546c-8.843,0.764-30.349,9.607-37.118,14.629c-37.991,27.948-58.734,55.568-71.725,95.415   C660.867,364.502,660.649,364.72,660.43,364.72z"></path>
</g>
<path style="fill:#FFFFFF;" d="M680.627,247.252l-4.367-12.009c-1.528-0.109-3.166,0.109-4.694,0.655l4.694,12.882  c0.218,0.764-0.109,1.528-0.873,1.747c-0.764,0.218-1.528-0.109-1.747-0.873l-4.694-12.664c-1.419,0.873-2.62,2.074-3.603,3.384  l3.93,10.699c0.218,0.764-0.109,1.528-0.873,1.747c-0.764,0.218-1.528-0.109-1.747-0.873l-3.057-8.406  c-1.747,4.367-1.856,9.935,0.109,15.393c0,0.109,0.109,0.218,0.109,0.328c-0.983,0.546-2.074,1.201-2.948,1.965  c-2.729,1.965-6.223,5.349-7.424,10.153l1.31,0.328c1.092-4.367,4.367-7.533,6.878-9.28c0.873-0.655,1.747-1.201,2.729-1.747  c2.074,4.585,5.458,8.297,9.17,10.262l-2.948-7.969c-0.218-0.764,0.109-1.528,0.873-1.747s1.528,0.109,1.747,0.873l3.821,10.262  c1.638,0.437,3.275,0.546,4.913,0.218l-4.367-12.009c-0.218-0.764,0.109-1.528,0.873-1.747c0.764-0.218,1.528,0.109,1.747,0.873  l4.476,12.118c1.419-0.655,2.729-1.638,3.821-2.729l-4.039-10.917c-0.218-0.764,0.109-1.528,0.873-1.747  c0.764-0.218,1.528,0.109,1.747,0.873l3.493,9.389c1.092-1.638,2.074-3.384,2.948-5.24l-2.183-5.895  c-0.218-0.764,0.109-1.528,0.873-1.747c0.764-0.218,1.528,0.109,1.747,0.873l1.201,3.166c2.183-5.24,3.603-10.371,5.459-12.009  c-3.057-0.655-7.314-3.493-12.009-6.114l1.528,4.039c0.218,0.764-0.109,1.528-0.873,1.747c-0.764,0.218-1.528-0.109-1.747-0.873  l-2.511-6.878c-1.856-0.873-3.712-1.528-5.568-1.965l3.821,10.59c0.218,0.764-0.109,1.528-0.873,1.747  C681.719,248.344,680.954,248.016,680.627,247.252z"></path>
<rect x="342.853" y="380.986" style="fill:#D6D7D8;" width="121.835" height="135.481"></rect>
<rect x="267.415" y="512.101" style="fill:#428DFC;" width="272.709" height="10.48"></rect>
<linearGradient id="SVGID_3_-i0" gradientUnits="userSpaceOnUse" x1="1361.9219" y1="-2771.7815" x2="6713.4741" y2="-2771.7815" gradientTransform="matrix(0.1 0 0 -0.1 0 18)">
	<stop offset="0" style="stop-color:#EEEEEE"></stop>
	<stop offset="1" style="stop-color:#D6D7D8"></stop>
</linearGradient>
<rect x="136.192" y="121.924" style="fill:url(#SVGID_3_-i0);" width="535.155" height="346.508"></rect>
<rect x="145.581" y="130.549" style="fill:#FFFFFF;" width="516.378" height="285.372"></rect>
<g>
	
		<rect x="379.613" y="437.736" transform="matrix(-0.7071 -0.7071 0.7071 -0.7071 343.4806 1027.6814)" style="fill:#A1C3FC;" width="9.934" height="9.934"></rect>
	
		<rect x="398.775" y="437.721" transform="matrix(-0.7071 -0.7071 0.7071 -0.7071 376.2033 1041.2053)" style="fill:#FFFFFF;" width="9.934" height="9.934"></rect>
	
		<rect x="417.938" y="437.751" transform="matrix(-0.7071 -0.7071 0.7071 -0.7071 408.8945 1054.8064)" style="fill:#1D72D8;" width="9.934" height="9.934"></rect>
</g>
<path style="fill:#D3E3FE;" d="M660.539,81.422c0,0.218,0,0.437,0,0.655c0,9.061,7.314,16.376,16.376,16.376  s16.376-7.314,16.376-16.376c0-0.218,0-0.437,0-0.655H660.539z"></path>
<path style="fill:#A1C3FC;" d="M719.164,41.574c0,0.328,0,0.764,0,1.092c0,14.956,12.118,27.074,27.074,27.074  s27.074-12.118,27.074-27.074c0-0.328,0-0.764,0-1.092C773.313,41.574,719.164,41.574,719.164,41.574z"></path>
<path style="fill:#F4F4F4;" d="M32.698,13.19c0,0.655,0,1.201,0,1.856c0,25.218,20.524,45.743,45.743,45.743  s45.743-20.524,45.743-45.743c0-0.655,0-1.201,0-1.856C124.183,13.19,32.698,13.19,32.698,13.19z"></path>
<path style="fill:#E7EFFE;" d="M80.624,13.19c0,0.437,0,0.873,0,1.31c0,18.341,14.847,33.188,33.188,33.188S147,32.841,147,14.5  c0-0.437,0-0.873,0-1.31C147,13.19,80.624,13.19,80.624,13.19z"></path>
<g>
	
		<linearGradient id="SVGID_4_-i0" gradientUnits="userSpaceOnUse" x1="4547.144" y1="-2848.5498" x2="5952.8911" y2="-2848.5498" gradientTransform="matrix(-0.0964 0.0265 -0.0265 -0.0964 553.6074 -2.2324)">
		<stop offset="0" style="stop-color:#B9D3FD"></stop>
		<stop offset="1" style="stop-color:#89B3F4"></stop>
	</linearGradient>
	<path style="fill:url(#SVGID_4_-i0);" d="M61.41,450.31c-0.218,4.803,2.729,9.17,6.114,12.664c9.17,9.716,21.507,16.376,34.607,18.559   c7.314,1.201,14.847,1.201,22.271,2.074c21.616,2.729,41.812,14.52,54.804,31.987c-6.004-12.991-2.511-28.384,3.166-41.485   c5.677-13.1,13.428-25.546,16.157-39.52c2.402-12.009-1.856-27.839-13.974-29.913c-8.952-1.528-17.686,5.349-26.638,4.039   c-3.166-0.437-6.55-2.293-7.205-5.459c-1.747-7.969,13.974-11.681,12.118-19.651c-2.074-9.17-25.109,0-24.345-9.28   c0.328-3.93,5.022-6.332,5.895-10.262s-0.546-8.624-4.258-10.153c-4.804-2.074-10.044,2.074-15.284,2.293   c-6.004,0.328-11.135-4.476-13.865-9.825s-3.712-11.463-6.114-16.921c-5.895-13.537-20.742-22.598-35.481-21.725   c-14.738,0.873-28.384,11.681-32.642,25.873c-1.747,5.786-1.638,12.991,3.057,16.921c3.93,3.275,10.808,4.148,11.681,9.17   c1.201,6.878-11.026,10.917-9.389,17.686c1.856,7.969,18.122,3.493,19.76,11.463c0.764,3.603-2.402,6.659-3.821,9.935   c-2.838,6.223,1.31,14.52,7.969,16.157c2.62,0.655,5.568,0.327,7.969,1.638c5.895,3.275,3.603,12.555-0.983,17.467   C68.179,439.065,61.847,443.541,61.41,450.31z"></path>
	
		<linearGradient id="SVGID_5_-i0" gradientUnits="userSpaceOnUse" x1="5005.2349" y1="-3177.0505" x2="6471.7524" y2="-3177.0505" gradientTransform="matrix(-0.0964 0.0265 -0.0265 -0.0964 553.6074 -2.2324)">
		<stop offset="0" style="stop-color:#DEEAFE"></stop>
		<stop offset="1" style="stop-color:#E9F1FE"></stop>
	</linearGradient>
	<path style="fill:url(#SVGID_5_-i0);" d="M102.458,439.72c-3.821-0.873-7.751-1.638-11.135-3.712   c-7.096-4.476-9.17-13.537-11.79-21.397c-2.62-7.86-8.079-16.594-16.376-16.594c-6.987,0-14.083,6.223-20.087,2.838   c-2.293-1.31-3.712-3.603-5.568-5.349c-7.969-7.642-22.38-2.948-28.384,6.332s-6.004,21.179-5.895,32.315   c0.109,4.039,1.419,9.389,5.459,9.389c3.821,0,6.223-5.459,10.044-5.022c3.057,0.327,4.367,4.258,4.148,7.314   c-0.218,3.057-1.092,6.332,0.328,9.061c2.729,5.24,10.699,3.384,15.721,0.327c5.022-3.057,11.79-6.441,16.266-2.511   c-0.437,12.118,0.328,26.528,10.59,33.079c11.79,7.533,28.166,1.965,41.922-0.437c25.655-4.585,48.69,9.716,68.45,26.747   C167.088,476.948,137.611,447.908,102.458,439.72z"></path>
	<path style="fill:none;stroke:#428DFC;stroke-width:2;stroke-linecap:round;stroke-miterlimit:10;" d="M178.878,517.232   c-8.734-22.817-15.721-46.288-21.07-70.088"></path>
	
		<ellipse transform="matrix(-0.2235 -0.9747 0.9747 -0.2235 -240.659 697.7426)" style="fill:#23286B;" cx="157.599" cy="444.732" rx="4.694" ry="12.445"></ellipse>
	<path style="fill:none;stroke:#428DFC;stroke-width:2;stroke-linecap:round;stroke-miterlimit:10;" d="M157.153,444.305   c-2.948-13.537-5.349-27.074-7.205-40.83"></path>
	
		<ellipse transform="matrix(-0.3174 -0.9483 0.9483 -0.3174 -182.6591 669.1458)" style="fill:#23286B;" cx="149.504" cy="400.314" rx="5.568" ry="14.957"></ellipse>
	<path style="fill:none;stroke:#428DFC;stroke-width:2;stroke-linecap:round;stroke-miterlimit:10;" d="M149.402,399.873   c-1.419-11.354-2.511-22.708-3.275-34.061"></path>
	
		<ellipse transform="matrix(-0.0106 -0.9999 0.9999 -0.0106 -213.3985 512.5897)" style="fill:#23286B;" cx="146.883" cy="361.865" rx="5.567" ry="14.956"></ellipse>
	<path style="fill:none;stroke:#428DFC;stroke-width:2;stroke-linecap:round;stroke-miterlimit:10;" d="M145.908,361.008   c-0.437-8.624-0.655-17.358-0.764-26.092"></path>
	
		<ellipse transform="matrix(-0.0106 -0.9999 0.9999 -0.0106 -183.616 479.1787)" style="fill:#23286B;" cx="145.246" cy="330.426" rx="7.532" ry="20.087"></ellipse>
	<path style="fill:none;stroke:#428DFC;stroke-width:2;stroke-linecap:round;stroke-miterlimit:10;" d="M145.144,329.021   c0.109-5.786,0.218-11.572,0.437-17.358"></path>
</g>
<path style="fill:#FFFFFF;" d="M132.808,484.917l4.367-12.009c1.528-0.109,3.166,0.109,4.694,0.655l-4.694,12.882  c-0.218,0.764,0.109,1.528,0.873,1.747s1.528-0.109,1.747-0.873l4.694-12.664c1.419,0.873,2.62,2.074,3.603,3.384l-3.93,10.699  c-0.218,0.764,0.109,1.528,0.873,1.747s1.528-0.109,1.747-0.873l3.057-8.406c1.747,4.367,1.856,9.935-0.109,15.393  c0,0.109-0.109,0.218-0.109,0.328c0.983,0.546,2.074,1.201,2.948,1.965c2.729,1.965,6.223,5.349,7.424,10.153l-1.31,0.328  c-1.092-4.367-4.367-7.533-6.878-9.28c-0.873-0.655-1.747-1.201-2.729-1.747c-2.074,4.585-5.459,8.297-9.17,10.262l2.948-7.969  c0.218-0.764-0.109-1.528-0.873-1.747c-0.764-0.218-1.528,0.109-1.747,0.873l-3.821,10.262c-1.638,0.437-3.275,0.546-4.913,0.218  l4.367-12.009c0.218-0.764-0.109-1.528-0.873-1.747s-1.528,0.109-1.747,0.873l-4.476,12.118c-1.419-0.655-2.729-1.638-3.821-2.729  l4.039-10.917c0.218-0.764-0.109-1.528-0.873-1.747c-0.764-0.218-1.528,0.109-1.747,0.873l-3.493,9.389  c-1.092-1.638-2.074-3.384-2.948-5.24l2.183-5.895c0.218-0.764-0.109-1.528-0.873-1.747s-1.528,0.109-1.747,0.873l-1.201,3.166  c-2.183-5.24-3.603-10.371-5.459-12.009c3.057-0.655,7.314-3.493,12.009-6.114l-1.528,4.039c-0.218,0.764,0.109,1.528,0.873,1.747  s1.528-0.109,1.747-0.873l2.511-6.878c1.856-0.873,3.712-1.528,5.568-1.965l-3.821,10.59c-0.218,0.764,0.109,1.528,0.873,1.747  C131.716,486.009,132.48,485.681,132.808,484.917z"></path>
<path style="fill:#B3C9EE;" d="M109.555,136.007l-8.188-0.983c-0.764,0.109-1.528,0.109-2.293,0.328l12.773,1.419  C110.974,136.553,110.319,136.225,109.555,136.007z M114.576,138.3l-18.559-2.074c-0.437,0.109-0.764,0.328-1.201,0.437  l20.742,2.402C115.231,138.736,114.904,138.518,114.576,138.3z M117.087,140.265l-24.236-2.729  c-0.328,0.109-0.546,0.328-0.873,0.437l25.546,2.948C117.415,140.592,117.196,140.483,117.087,140.265z M118.288,142.121  l-27.839-3.166c-0.218,0.109-0.437,0.328-0.655,0.437l28.712,3.275C118.507,142.448,118.397,142.23,118.288,142.121z   M118.943,143.867l-30.349-3.493c-0.218,0.109-0.328,0.328-0.546,0.546l31.005,3.493  C118.943,144.195,118.943,143.977,118.943,143.867z M119.162,145.505l-32.205-3.712c-0.109,0.218-0.328,0.328-0.437,0.546  l32.642,3.712C119.162,145.942,119.162,145.723,119.162,145.505z M119.162,147.252l-33.515-3.821  c-0.109,0.218-0.218,0.328-0.437,0.546l33.843,3.93C119.162,147.579,119.162,147.47,119.162,147.252z M119.052,148.889l-34.498-3.93  c-0.109,0.218-0.218,0.328-0.328,0.546l34.825,3.93C119.052,149.326,119.052,149.108,119.052,148.889z M118.507,150.745  c0-0.109,0.109-0.109,0.109-0.218l-35.044-4.039c-0.109,0.218-0.218,0.328-0.328,0.546l34.935,4.039  C118.288,150.964,118.397,150.854,118.507,150.745z M115.996,152.164c0.109,0,0.218-0.109,0.328-0.109l-33.625-3.821  c-0.109,0.218-0.109,0.328-0.218,0.546l32.751,3.712C115.559,152.383,115.777,152.274,115.996,152.164z M113.703,153.365  l-31.441-3.603c-0.109,0.218-0.109,0.328-0.109,0.546l31.005,3.493C113.266,153.693,113.485,153.584,113.703,153.365z   M111.956,154.894l-30.24-3.493c0,0.218-0.109,0.328-0.109,0.546l29.804,3.384C111.738,155.221,111.847,155.003,111.956,154.894z   M110.755,156.422l-29.258-3.384c0,0.218,0,0.328-0.109,0.546l28.93,3.275C110.537,156.75,110.646,156.64,110.755,156.422z   M109.882,158.06l-28.494-3.275c0,0.218,0,0.328,0,0.546l28.275,3.275C109.664,158.387,109.773,158.169,109.882,158.06z   M109.227,159.697l-27.729-3.166c0,0.218,0,0.328,0,0.546l27.511,3.166C109.118,160.025,109.227,159.806,109.227,159.697z   M108.899,161.335l-27.074-3.057c0,0.218,0.109,0.437,0.109,0.546l26.965,3.057C108.899,161.662,108.899,161.444,108.899,161.335z   M82.589,160.571l26.31,3.057c0-0.218,0-0.328,0-0.546l-26.529-3.057C82.371,160.134,82.48,160.352,82.589,160.571z M83.463,162.317  l25.655,2.948c0-0.218-0.109-0.437-0.109-0.546l-25.873-2.948C83.244,161.881,83.354,162.099,83.463,162.317z M84.773,164.173  l24.454,2.838c0-0.218,0-0.328,0-0.546l-25-2.838C84.445,163.737,84.554,163.955,84.773,164.173z M86.629,166.029  c0.109,0,0.109,0.109,0.218,0.109l21.616,2.511c0.109-0.109,0.218-0.328,0.328-0.546l-22.817-2.62  C86.192,165.592,86.41,165.811,86.629,166.029z M91.323,168.322l13.974,1.638c0.546-0.109,1.092-0.218,1.638-0.328l-17.686-2.074  C89.904,167.776,90.668,168.103,91.323,168.322z"></path>
<path style="fill:#B3C9EE;" d="M687.068,497.253l12.773,0.546c1.201-0.218,2.402-0.328,3.493-0.764l-19.978-0.655  C684.775,496.598,685.867,497.035,687.068,497.253z M678.989,494.306l29.039,0.983c0.655-0.218,1.092-0.546,1.856-0.873  l-32.424-1.201C678.007,493.76,678.443,494.087,678.989,494.306z M674.95,491.576l37.882,1.31c0.546-0.218,0.764-0.546,1.31-0.764  l-39.956-1.528C674.404,491.14,674.732,491.249,674.95,491.576z M672.767,488.847l43.559,1.528c0.327-0.218,0.655-0.546,0.983-0.764  l-44.869-1.638C672.439,488.41,672.657,488.738,672.767,488.847z M671.566,486.227l47.489,1.747  c0.328-0.218,0.437-0.546,0.764-0.873l-48.472-1.747C671.566,485.681,671.566,486.009,671.566,486.227z M671.02,483.716  l50.328,1.856c0.109-0.328,0.437-0.546,0.655-0.873l-51.092-1.856C671.02,483.061,671.02,483.389,671.02,483.716z M670.802,480.987  l52.402,1.965c0.109-0.328,0.327-0.546,0.655-0.873l-52.948-2.074C670.802,480.55,670.802,480.659,670.802,480.987z   M670.802,478.476l53.93,1.965c0.109-0.328,0.328-0.546,0.437-0.873l-54.476-1.965C670.802,477.821,670.802,478.148,670.802,478.476  z M671.457,475.528c0,0.218-0.109,0.218-0.109,0.328l54.804,2.074c0.109-0.327,0.328-0.546,0.437-0.873l-54.585-2.074  C671.784,475.201,671.566,475.31,671.457,475.528z M675.168,473.017c-0.218,0-0.328,0.218-0.546,0.218l52.62,1.856  c0.109-0.327,0.109-0.546,0.328-0.873l-51.201-1.856C675.823,472.581,675.496,472.799,675.168,473.017z M678.553,470.834  l49.127,1.856c0.109-0.328,0.109-0.546,0.109-0.873l-48.472-1.747C679.208,470.288,678.88,470.506,678.553,470.834z   M681.064,468.323l47.271,1.747c0-0.328,0.109-0.546,0.109-0.873l-46.616-1.638C681.391,467.777,681.282,468.105,681.064,468.323z   M682.81,465.812l45.743,1.747c0-0.327,0-0.546,0.109-0.873l-45.197-1.638C683.029,465.266,682.919,465.485,682.81,465.812z   M683.902,463.192l44.542,1.638c0-0.327,0-0.546-0.109-0.873l-44.214-1.747C684.23,462.646,684.12,462.974,683.902,463.192z   M684.775,460.572l43.341,1.638c0-0.327,0-0.546-0.109-0.873l-43.013-1.638C684.885,460.026,684.775,460.354,684.775,460.572z   M685.103,457.952l42.358,1.528c0-0.327-0.218-0.655-0.218-0.873l-42.14-1.528C684.994,457.406,685.103,457.733,685.103,457.952z   M725.933,455.987l-41.157-1.638c0,0.328,0,0.546,0.109,0.873l41.485,1.528C726.37,456.642,726.151,456.314,725.933,455.987z   M724.404,453.367l-40.066-1.528c0,0.327,0.218,0.655,0.218,0.873l40.502,1.528C724.732,454.022,724.623,453.694,724.404,453.367z   M722.112,450.637l-38.21-1.528c0,0.328,0,0.546,0.109,0.873l39.083,1.419C722.658,451.292,722.439,450.965,722.112,450.637z   M719.055,448.017c-0.218,0-0.218-0.109-0.328-0.109l-33.843-1.31c-0.109,0.218-0.327,0.546-0.437,0.873l35.699,1.31  C719.71,448.672,719.383,448.345,719.055,448.017z M711.522,445.07l-21.834-0.873c-0.873,0.218-1.638,0.437-2.511,0.655l27.62,1.092  C713.706,445.725,712.505,445.288,711.522,445.07z"></path>

            </g>
        </g>
    </g>
    
    <!-- ITEM 1 -->
    <g>
        <defs>
            <clipPath id="clip-path-id-viewbox-item-1">
                <rect x="0.0" y="0.0" width="800.0" height="600.0"/>
            </clipPath>
        </defs>
        <g transform="translate(-59.0 117.0) rotate(0.0 607.5 455.5) scale(1.51875 1.5183333333333333)">
            <g clip-path="url(#clip-path-id-viewbox-item-1)" transform="translate(-0.0 -0.0)">
                
<path style="fill:#F4F4F4;" d="M62.274,62.102c-0.026,0.652-0.049,1.304-0.049,1.962c0,27.092,21.963,49.055,49.055,49.055  s49.055-21.963,49.055-49.055c0-0.658-0.023-1.31-0.049-1.962H62.274z"></path>
<path style="fill:#E7EFFE;" d="M113.698,62.102c-0.019,0.473-0.036,0.947-0.036,1.426c0,19.682,15.955,35.637,35.637,35.637  s35.637-15.955,35.637-35.637c0-0.478-0.018-0.952-0.036-1.426H113.698z"></path>
<g>
	
		<linearGradient id="SVGID_1_-i1" gradientUnits="userSpaceOnUse" x1="4299.187" y1="-2368.2825" x2="5794.3984" y2="-2368.2825" gradientTransform="matrix(0.1 0 0 -0.1 0 18)">
		<stop offset="0" style="stop-color:#B9D3FD"></stop>
		<stop offset="1" style="stop-color:#89B3F4"></stop>
	</linearGradient>
	<path style="fill:url(#SVGID_1_-i1);" d="M578.832,277.191c1.624,4.865-0.262,10.185-2.658,14.72   c-6.624,12.537-17.429,22.818-30.28,28.811c-7.186,3.351-14.917,5.372-22.24,8.411c-21.367,8.869-38.824,26.748-47.179,48.321   c2.502-15.002-5.42-29.8-14.929-41.671c-9.508-11.871-21-22.432-27.771-36.051c-5.818-11.702-5.949-29.044,5.867-34.628   c8.719-4.12,19.604,0.48,28.463-3.331c3.132-1.347,6.026-4.21,5.845-7.615c-0.461-8.704-17.611-8.082-18.046-16.787   c-0.498-9.953,25.724-7.06,22.412-16.459c-1.41-4.001-6.974-5.132-8.943-8.891s-1.827-8.987,1.475-11.651   c4.37-3.524,10.913-0.753,16.397-1.954c6.242-1.367,10.167-7.777,11.433-14.04c1.266-6.263,0.612-12.766,1.53-19.09   c2.259-15.564,14.933-29.072,30.322-32.316s32.438,3.998,40.787,17.325c3.424,5.467,5.322,12.879,1.644,18.178   c-3.113,4.484-9.904,7.317-9.356,12.748c0.747,7.412,14.369,8.064,14.617,15.509c0.289,8.688-17.598,8.704-17.091,17.382   c0.227,3.874,4.299,6.144,6.771,9.136c4.637,5.613,2.797,15.283-3.576,18.801c-2.532,1.398-5.592,1.943-7.668,3.958   c-5.163,5.012-0.114,13.875,5.982,17.697C568.736,267.531,576.555,270.366,578.832,277.191z"></path>
	
		<linearGradient id="SVGID_2_-i1" gradientUnits="userSpaceOnUse" x1="4786.8447" y1="-2716.7583" x2="6347.3921" y2="-2716.7583" gradientTransform="matrix(0.1 0 0 -0.1 0 18)">
		<stop offset="0" style="stop-color:#DEEAFE"></stop>
		<stop offset="1" style="stop-color:#E9F1FE"></stop>
	</linearGradient>
	<path style="fill:url(#SVGID_2_-i1);" d="M533.779,277.828c3.668-1.995,7.544-3.84,10.365-6.918   c5.995-6.537,5.591-16.446,6.063-25.303c0.472-8.857,3.6-19.308,12.142-21.694c7.132-1.993,16.179,2.376,21.463-2.811   c1.962-1.926,2.758-4.714,4.168-7.076c6.06-10.152,22.182-9.367,30.988-1.477c8.806,7.889,12.171,20.035,15.125,31.483   c1.077,4.174,1.225,10.087-2.938,11.204c-3.957,1.061-7.933-3.833-11.735-2.309c-3.05,1.222-3.244,5.536-2.153,8.634   c1.091,3.099,2.969,6.227,2.255,9.433c-1.364,6.12-9.982,6.462-16.029,4.802c-6.047-1.66-13.934-3.253-17.394,1.975   c3.828,12.348,7.146,27.331-1.496,36.946c-9.997,11.12-28.311,9.964-43.199,11.359c-27.663,2.593-47.202,23.692-62.698,46.755   C477.865,334.345,499.963,296.225,533.779,277.828z"></path>
</g>
<path style="fill:#E0EBFE;" d="M520.874,229.504l-4.699-12.825c-1.694-0.083-3.363,0.102-4.981,0.645l5.081,13.866  c0.284,0.777-0.115,1.639-0.892,1.925c-0.777,0.284-1.639-0.115-1.925-0.892l-4.987-13.607c-1.51,0.946-2.809,2.194-3.873,3.671  l4.207,11.481c0.284,0.777-0.115,1.639-0.892,1.925c-0.777,0.284-1.639-0.115-1.925-0.892l-3.305-9.017  c-1.898,4.697-2.009,10.645,0.132,16.489c0.05,0.137,0.102,0.272,0.155,0.406c-1.1,0.635-2.174,1.321-3.205,2.078  c-2.892,2.124-6.62,5.728-7.957,10.836l1.451,0.379c1.226-4.683,4.697-8.026,7.394-10.007c0.93-0.682,1.901-1.308,2.901-1.891  c2.245,4.974,5.837,8.843,9.857,10.981l-3.14-8.568c-0.284-0.777,0.115-1.639,0.892-1.925c0.777-0.284,1.639,0.115,1.925,0.892  l4.046,11.041c1.765,0.437,3.557,0.534,5.307,0.243l-4.701-12.83c-0.284-0.777,0.115-1.639,0.892-1.925  c0.777-0.284,1.639,0.115,1.925,0.892l4.766,13.005c1.537-0.68,2.907-1.697,4.137-2.949l-4.304-11.742  c-0.284-0.777,0.115-1.639,0.892-1.925c0.777-0.284,1.639,0.115,1.925,0.892l3.698,10.093c1.195-1.698,2.238-3.607,3.171-5.583  l-2.321-6.336c-0.284-0.777,0.115-1.639,0.892-1.925c0.777-0.284,1.639,0.115,1.925,0.892l1.236,3.374  c2.285-5.674,3.904-11.093,5.813-12.906c-3.232-0.68-7.835-3.774-12.933-6.524l1.6,4.368c0.284,0.777-0.115,1.639-0.892,1.925  c-0.777,0.284-1.639-0.115-1.925-0.892l-2.697-7.36c-1.975-0.898-3.987-1.652-5.994-2.118l4.142,11.304  c0.284,0.777-0.115,1.639-0.892,1.925C522.02,230.681,521.159,230.282,520.874,229.504z"></path>
<path style="fill:#C1D7FD;" d="M475.527,576.663H303.046c-17.673,0-31.999-14.327-31.999-31.999V115.486  c0-17.673,14.327-31.999,31.999-31.999h172.481c17.673,0,31.999,14.327,31.999,31.999v429.179  C507.527,562.338,493.2,576.663,475.527,576.663z"></path>
<circle style="fill:#A1C3FC;" cx="355.311" cy="114.456" r="5.599"></circle>
<path style="fill:#A1C3FC;" d="M475.527,83.486h-33.111c-1.698,1.056-3.367,2.14-5.002,3.235  c-43.381,29.044-80.692,70.164-95.209,120.311c-5.852,20.213-7.88,41.317-12.329,61.885c-10.186,47.093-32.881,90.566-58.83,131.187  v144.561c0,17.673,14.327,31.999,31.999,31.999h172.482c17.673,0,31.999-14.327,31.999-31.999V115.486  C507.526,97.813,493.2,83.486,475.527,83.486z"></path>
<linearGradient id="SVGID_3_-i1" gradientUnits="userSpaceOnUse" x1="3711.4111" y1="-5298.5854" x2="4108.8608" y2="-5298.5854" gradientTransform="matrix(0.1 0 0 -0.1 0 18)">
	<stop offset="0" style="stop-color:#A1C3FC"></stop>
	<stop offset="1" style="stop-color:#8AB8FD"></stop>
</linearGradient>
<circle style="fill:url(#SVGID_3_-i1);" cx="391.014" cy="547.859" r="19.872"></circle>
<rect x="370.787" y="110.291" transform="matrix(-0.9923 0.1238 -0.1238 -0.9923 792.7905 178.2198)" style="fill:#A1C3FC;" width="40.142" height="6.902"></rect>
<rect x="280.413" y="139.316" style="fill:#FFFFFF;" width="217.749" height="382.008"></rect>
<circle style="fill:#C1D7FD;" cx="388.672" cy="545.517" r="15.19"></circle>
<g>
	<path style="fill:#428DFC;" d="M405.481,114.123H372.75c-0.647,0-1.171-0.524-1.171-1.171s0.523-1.171,1.171-1.171h32.731   c0.647,0,1.171,0.524,1.171,1.171S406.128,114.123,405.481,114.123z"></path>
</g>
<circle style="fill:#428DFC;" cx="355.449" cy="113.775" r="3.841"></circle>
<rect x="267.603" y="140.418" style="fill:#D62929;" width="3.934" height="16.962"></rect>
<rect x="267.603" y="177.785" style="fill:#D62929;" width="3.934" height="30.484"></rect>
<rect x="507.595" y="177.785" style="fill:#D62929;" width="3.934" height="30.484"></rect>
<rect x="267.603" y="217.61" style="fill:#D62929;" width="3.934" height="30.484"></rect>
<rect x="346.841" y="107.474" transform="matrix(-0.6794 -0.7338 0.7338 -0.6794 507.3928 444.632)" style="fill:#FFFFFF;" width="7.987" height="7.987"></rect>
<rect x="344.231" y="107.625" transform="matrix(-0.6794 -0.7338 0.7338 -0.6794 501.7925 440.1468)" style="fill:#A1C3FC;" width="5.646" height="5.646"></rect>
<path style="fill:none;stroke:#23286B;stroke-linecap:round;stroke-miterlimit:10;" d="M393.306,266.16"></path>
<g>
	<path style="fill:#D3E3FE;" d="M623.527,12.169c-0.028,0.708-0.054,1.418-0.054,2.134c0,29.459,23.882,53.341,53.341,53.341   s53.341-23.882,53.341-53.341c0-0.715-0.026-1.425-0.054-2.134C730.102,12.169,623.527,12.169,623.527,12.169z"></path>
	<path style="fill:#F6F9FF;" d="M679.444,12.169c-0.02,0.515-0.039,1.03-0.039,1.55c0,21.401,17.35,38.751,38.751,38.751   c21.401,0,38.751-17.35,38.751-38.751c0-0.52-0.019-1.035-0.04-1.55C756.868,12.169,679.444,12.169,679.444,12.169z"></path>
	<path style="fill:#D3E3FE;" d="M721.924,12.169c-0.016,0.413-0.032,0.825-0.032,1.242c0,17.154,13.907,31.061,31.061,31.061   c17.154,0,31.061-13.907,31.061-31.061c0-0.417-0.015-0.83-0.032-1.242C783.982,12.169,721.924,12.169,721.924,12.169z"></path>
</g>
<g>
	
		<linearGradient id="SVGID_4_-i1" gradientUnits="userSpaceOnUse" x1="3694.251" y1="-3621.6628" x2="5401.811" y2="-3621.6628" gradientTransform="matrix(-0.0964 0.0265 -0.0265 -0.0964 553.4375 -2.2095)">
		<stop offset="0" style="stop-color:#B9D3FD"></stop>
		<stop offset="1" style="stop-color:#89B3F4"></stop>
	</linearGradient>
	<path style="fill:url(#SVGID_4_-i1);" d="M136.083,514.685c-0.315,5.849,3.373,11.137,7.385,15.405   c11.09,11.799,26.103,19.848,42.068,22.555c8.928,1.514,18.052,1.398,27.036,2.528c26.215,3.295,50.85,17.696,66.584,38.922   c-7.298-15.762-3.057-34.456,3.82-50.406c6.877-15.951,16.329-31.061,19.661-48.108c2.864-14.649-2.244-33.783-16.947-36.353   c-10.849-1.897-21.442,6.466-32.351,4.952c-3.856-0.535-7.91-2.811-8.743-6.614c-2.128-9.724,16.945-14.232,14.787-23.95   c-2.467-11.11-30.463,0.015-29.663-11.337c0.341-4.834,6.125-7.764,7.155-12.498s-0.708-10.45-5.152-12.382   c-5.878-2.557-12.245,2.476-18.647,2.814c-7.288,0.385-13.551-5.484-16.84-11.998c-3.29-6.514-4.54-13.873-7.465-20.559   c-7.201-16.454-25.247-27.49-43.175-26.401c-17.928,1.089-34.507,14.225-39.665,31.43c-2.115,7.057-1.96,15.793,3.695,20.514   c4.785,3.996,13.122,5.057,14.163,11.204c1.421,8.388-13.381,13.231-11.399,21.504c2.312,9.655,22.015,4.255,24.083,13.965   c0.924,4.334-2.874,8.067-4.689,12.111c-3.407,7.585,1.548,17.676,9.632,19.621c3.211,0.773,6.747,0.446,9.642,2.036   c7.203,3.955,4.327,15.244-1.227,21.3C144.276,500.991,136.524,506.479,136.083,514.685z"></path>
	
		<linearGradient id="SVGID_5_-i1" gradientUnits="userSpaceOnUse" x1="4251.1563" y1="-4019.624" x2="6033.3091" y2="-4019.624" gradientTransform="matrix(-0.0964 0.0265 -0.0265 -0.0964 553.4375 -2.2095)">
		<stop offset="0" style="stop-color:#DEEAFE"></stop>
		<stop offset="1" style="stop-color:#E9F1FE"></stop>
	</linearGradient>
	<path style="fill:url(#SVGID_5_-i1);" d="M185.886,501.743c-4.643-1.086-9.47-1.943-13.509-4.478   c-8.581-5.383-11.137-16.415-14.339-26.026s-9.812-20.171-19.94-20.211c-8.456-0.034-17.096,7.516-24.486,3.404   c-2.744-1.527-4.465-4.356-6.731-6.529c-9.747-9.344-27.262-3.596-34.569,7.757c-7.307,11.355-7.334,25.747-7.12,39.249   c0.078,4.922,1.707,11.479,6.628,11.447c4.678-0.029,7.574-6.624,12.222-6.096c3.727,0.423,5.248,5.114,4.985,8.856   c-0.263,3.743-1.384,7.756,0.375,11.07c3.355,6.326,12.949,4.093,19.105,0.434c6.155-3.658,14.357-7.803,19.752-3.093   c-0.475,14.757,0.407,32.26,12.837,40.229c14.375,9.217,34.192,2.398,51.008-0.575c31.247-5.522,59.152,11.795,83.199,32.496   C264.571,547.041,228.695,511.758,185.886,501.743z"></path>
	<path style="fill:none;stroke:#428DFC;stroke-width:2;stroke-linecap:round;stroke-miterlimit:10;" d="M278.784,596.043   c-10.565-27.741-19.127-56.24-25.635-85.202"></path>
	
		<ellipse transform="matrix(0.2235 0.9747 -0.9747 0.2235 691.3912 147.7384)" style="fill:#23286B;" cx="252.971" cy="507.805" rx="5.66" ry="15.138"></ellipse>
	<path style="fill:none;stroke:#428DFC;stroke-width:2;stroke-linecap:round;stroke-miterlimit:10;" d="M252.369,507.325   c-3.59-16.418-6.523-32.98-8.788-49.633"></path>
	
		<ellipse transform="matrix(0.3174 0.9483 -0.9483 0.3174 596.3788 79.2732)" style="fill:#23286B;" cx="243.125" cy="453.891" rx="6.822" ry="18.242"></ellipse>
	<path style="fill:none;stroke:#428DFC;stroke-width:2;stroke-linecap:round;stroke-miterlimit:10;" d="M243,453.306   c-1.775-13.776-3.094-27.61-3.952-41.473"></path>
	
		<ellipse transform="matrix(0.0106 0.9999 -0.9999 0.0106 644.7682 162.9077)" style="fill:#23286B;" cx="240.062" cy="407.274" rx="6.821" ry="18.241"></ellipse>
	<path style="fill:none;stroke:#428DFC;stroke-width:2;stroke-linecap:round;stroke-miterlimit:10;" d="M238.72,406.097   c-0.556-10.55-0.844-21.116-0.863-31.681"></path>
	
		<ellipse transform="matrix(0.0106 0.9999 -0.9999 0.0106 604.3446 126.9483)" style="fill:#23286B;" cx="238.022" cy="368.867" rx="9.145" ry="24.456"></ellipse>
	<path style="fill:none;stroke:#428DFC;stroke-width:2;stroke-linecap:round;stroke-miterlimit:10;" d="M237.884,367.25   c0.069-7.042,0.256-14.083,0.565-21.119"></path>
</g>
<g>
	<path style="fill:#C8DCF8;" d="M198.963,44.499h-19.586c1.138-0.359,2.276-0.659,3.473-0.838h12.578   C196.627,43.899,197.765,44.199,198.963,44.499z M203.395,46.236h-28.449c-0.599,0.24-1.138,0.539-1.676,0.838h31.743   C204.533,46.774,203.935,46.475,203.395,46.236z M207.528,48.81h-37.075c-0.419,0.3-0.779,0.539-1.198,0.838h39.17   C208.127,49.35,207.827,49.05,207.528,48.81z M209.744,51.326H167.16c-0.3,0.3-0.659,0.539-0.959,0.838h43.962   C210.043,51.925,209.924,51.626,209.744,51.326z M210.943,53.902h-46.418c-0.24,0.3-0.479,0.539-0.779,0.838h47.435   C211.122,54.441,211.002,54.201,210.943,53.902z M211.6,56.477h-49.232c-0.24,0.3-0.419,0.539-0.599,0.838h49.951   C211.661,57.017,211.6,56.717,211.6,56.477z M211.9,58.993h-51.269c-0.179,0.3-0.359,0.539-0.479,0.838h51.867   C211.96,59.591,211.96,59.293,211.9,58.993z M212.02,61.568h-52.826c-0.119,0.3-0.3,0.539-0.419,0.838h53.245   C212.02,62.107,212.02,61.868,212.02,61.568z M211.541,64.443c0.06-0.119,0.06-0.179,0.119-0.3h-53.605   c-0.119,0.3-0.24,0.539-0.3,0.838h53.425C211.302,64.802,211.421,64.623,211.541,64.443z M208.067,66.958   c0.179-0.119,0.359-0.179,0.539-0.24h-51.389c-0.06,0.3-0.119,0.539-0.24,0.838h50.07   C207.348,67.318,207.708,67.139,208.067,66.958z M204.773,69.234h-48.154c-0.06,0.3-0.119,0.539-0.119,0.838h47.435   C204.174,69.774,204.473,69.474,204.773,69.234z M202.437,71.75H156.2c0,0.3-0.06,0.539-0.06,0.838h45.699   C202.018,72.349,202.197,72.05,202.437,71.75z M200.82,74.326h-44.74c0,0.3,0,0.539,0,0.838H200.4   C200.521,74.925,200.7,74.625,200.82,74.326z M199.742,76.901H156.2c0,0.3,0.06,0.539,0.119,0.838h43.183   C199.562,77.44,199.682,77.141,199.742,76.901z M199.083,79.417h-42.464c0.06,0.3,0.119,0.599,0.179,0.838h42.165   C199.024,80.015,199.083,79.715,199.083,79.417z M198.843,81.992h-41.506c0.119,0.3,0.179,0.599,0.3,0.838h41.207   C198.843,82.591,198.843,82.291,198.843,81.992z M158.895,85.406h40.248c-0.06-0.3-0.119-0.539-0.119-0.838h-40.548   C158.595,84.807,158.774,85.106,158.895,85.406z M160.571,87.921h39.23c-0.06-0.3-0.179-0.539-0.24-0.838h-39.589   C160.152,87.382,160.332,87.682,160.571,87.921z M162.847,90.496h37.373c0-0.3,0-0.539-0.06-0.838h-38.213   C162.308,89.958,162.608,90.257,162.847,90.496z M166.022,92.893c0.119,0.06,0.179,0.119,0.3,0.179h33.121   c0.179-0.24,0.359-0.539,0.479-0.838h-34.918C165.363,92.414,165.663,92.712,166.022,92.893z M173.568,95.588h21.382   c0.838-0.179,1.617-0.479,2.395-0.838h-27.072C171.352,95.109,172.43,95.408,173.568,95.588z"></path>
</g>
<g>
	<path style="fill:#EEEEEE;" d="M703.156,535.811h19.586c-1.138,0.359-2.276,0.659-3.473,0.838h-12.578   C705.493,536.409,704.355,536.109,703.156,535.811z M698.725,534.074h28.449c0.599-0.24,1.138-0.539,1.676-0.838h-31.743   C697.586,533.535,698.186,533.834,698.725,534.074z M694.591,531.498h37.075c0.419-0.3,0.779-0.539,1.198-0.838h-39.17   C693.993,530.96,694.293,531.258,694.591,531.498z M692.375,528.982h42.584c0.3-0.3,0.659-0.539,0.959-0.838h-43.962   C692.077,528.384,692.196,528.683,692.375,528.982z M691.178,526.407h46.418c0.24-0.3,0.479-0.539,0.779-0.838h-47.435   C690.999,525.868,691.118,526.108,691.178,526.407z M690.52,523.831h49.232c0.24-0.3,0.419-0.539,0.599-0.838h-49.951   C690.459,523.293,690.52,523.592,690.52,523.831z M690.22,521.317h51.269c0.179-0.3,0.359-0.539,0.479-0.838h-51.867   C690.16,520.717,690.16,521.017,690.22,521.317z M690.1,518.741h52.826c0.119-0.3,0.3-0.539,0.419-0.838H690.1   C690.1,518.201,690.1,518.441,690.1,518.741z M690.58,515.866c-0.06,0.119-0.06,0.179-0.119,0.3h53.605   c0.119-0.3,0.24-0.539,0.3-0.838H690.94C690.818,515.506,690.699,515.687,690.58,515.866z M694.053,513.35   c-0.179,0.119-0.359,0.179-0.539,0.24h51.389c0.06-0.3,0.119-0.539,0.24-0.838h-50.07   C694.772,512.991,694.412,513.171,694.053,513.35z M697.347,511.074h48.154c0.06-0.3,0.119-0.539,0.119-0.838h-47.435   C697.946,510.536,697.647,510.835,697.347,511.074z M699.683,508.558h46.238c0-0.3,0.06-0.539,0.06-0.838h-45.699   C700.102,507.96,699.923,508.26,699.683,508.558z M701.3,505.984h44.74c0-0.3,0-0.539,0-0.838h-44.321   C701.599,505.385,701.42,505.684,701.3,505.984z M702.378,503.409h43.543c0-0.3-0.06-0.539-0.119-0.838h-43.183   C702.558,502.869,702.439,503.169,702.378,503.409z M703.037,500.893h42.465c-0.06-0.3-0.119-0.599-0.179-0.838h-42.165   C703.097,500.293,703.037,500.593,703.037,500.893z M703.277,498.317h41.506c-0.119-0.3-0.18-0.599-0.3-0.838h-41.207   C703.277,497.718,703.277,498.018,703.277,498.317z M743.226,494.904h-40.248c0.06,0.3,0.119,0.539,0.119,0.838h40.548   C743.525,495.502,743.345,495.203,743.226,494.904z M741.549,492.388h-39.23c0.06,0.3,0.179,0.539,0.24,0.838h39.589   C741.968,492.926,741.788,492.628,741.549,492.388z M739.272,489.812h-37.373c0,0.3,0,0.539,0.06,0.838h38.213   C739.812,490.352,739.512,490.052,739.272,489.812z M736.098,487.417c-0.119-0.06-0.18-0.119-0.3-0.179h-33.121   c-0.18,0.24-0.359,0.539-0.479,0.838h34.918C736.758,487.896,736.458,487.596,736.098,487.417z M728.552,484.721h-21.381   c-0.838,0.18-1.617,0.479-2.395,0.838h27.072C730.768,485.201,729.69,484.901,728.552,484.721z"></path>
</g>
<circle style="fill:#A1C3FC;" cx="661.087" cy="457.776" r="5.933"></circle>
<circle style="fill:#A1C3FC;" cx="34.108" cy="149.231" r="5.933"></circle>

            </g>
        </g>
    </g>
    
    <!-- ITEM 2 -->
    <g>
        <defs>
            <clipPath id="clip-path-id-viewbox-item-2">
                <rect x="0.0" y="0.0" width="200.0" height="120.0"/>
            </clipPath>
        </defs>
        <g transform="translate(772.0 558.0) rotate(0.0 38.0 23.0) scale(0.38 0.38333333333333336)">
            <g clip-path="url(#clip-path-id-viewbox-item-2)" transform="translate(-0.0 -0.0)">
                
<linearGradient id="SVGID_1_-i2" gradientUnits="userSpaceOnUse" x1="3911.6484" y1="3678.6082" x2="5989.811" y2="4376.5566" gradientTransform="matrix(0.0762 0 0 0.0762 -276.2162 -246.556)">
	<stop offset="0" style="stop-color:#A2C3F6"></stop>
	<stop offset="1" style="stop-color:#78A9EF"></stop>
</linearGradient>
<path fill="url(#SVGID_1_-i2)" d="M181.132,120H18.868C8.49,120,0,111.383,0,100.852V19.149C0,8.618,8.49,0,18.868,0h162.264  C191.509,0,200,8.617,200,19.149v81.703C200,111.383,191.509,120,181.132,120z"></path>
<rect y="24.255" fill="#151A4F" width="200" height="23.263"></rect>
<rect x="16.352" y="88.088" fill="#FFFFFF" width="6.289" height="6.383"></rect>
<rect x="110.692" y="102.128" fill="#FFFFFF" width="6.289" height="6.383"></rect>
<g>
	<path fill="#E94A47" d="M33.648,103.089c-4.508,0-8.176-3.723-8.176-8.298s3.668-8.298,8.176-8.298s8.176,3.723,8.176,8.298   C41.824,99.366,38.156,103.089,33.648,103.089z M33.648,89.684c-2.774,0-5.031,2.291-5.031,5.106c0,2.815,2.257,5.106,5.031,5.106   s5.031-2.291,5.031-5.106C38.679,91.976,36.422,89.684,33.648,89.684z"></path>
</g>
<g>
	<path fill="#E94A47" d="M126.1,110.107c-4.508,0-8.176-3.723-8.176-8.298s3.668-8.298,8.176-8.298s8.176,3.723,8.176,8.298   C134.277,106.384,130.609,110.107,126.1,110.107z M126.1,96.703c-2.774,0-5.031,2.291-5.031,5.106c0,2.815,2.257,5.106,5.031,5.106   s5.031-2.291,5.031-5.106C131.132,98.994,128.875,96.703,126.1,96.703z"></path>
</g>
<g>
	<rect x="33.905" y="107.169" fill="#E94A47" width="11.429" height="3.286"></rect>
</g>
<g>
	<rect x="76.19" y="89.383" fill="#D6D7D8" width="11.238" height="3.093"></rect>
</g>
<g>
	<rect x="76.19" y="97.116" fill="#D6D7D8" width="11.238" height="3.093"></rect>
</g>
<g>
	<rect x="133.905" y="89.383" fill="#EEEEEE" width="11.429" height="3.093"></rect>
</g>
<g>
	<path fill="#EEEEEE" d="M54.717,110.107c-3.295,0-5.975-2.72-5.975-6.063V93.195c0-3.343,2.68-6.064,5.974-6.064   c3.295,0,5.975,2.72,5.975,6.064v10.848C60.692,107.387,58.012,110.107,54.717,110.107z M54.717,90.322   c-1.561,0-2.83,1.289-2.83,2.872v10.848c0,1.583,1.27,2.872,2.83,2.872h0.001c1.56,0,2.83-1.289,2.83-2.872V93.194   C57.547,91.611,56.278,90.322,54.717,90.322z"></path>
</g>
<g>
	<path fill="#D6D7D8" d="M95.6,106.911c-1.599,0-3.1-0.629-4.225-1.771c-2.329-2.365-2.329-6.211,0-8.575l8.179-8.3   c1.125-1.142,2.626-1.771,4.225-1.771s3.1,0.629,4.225,1.771c1.125,1.142,1.744,2.665,1.744,4.288c0,1.623-0.62,3.145-1.745,4.287   l-8.178,8.3C98.7,106.282,97.2,106.911,95.6,106.911z M103.779,89.684c-0.76,0-1.47,0.296-2.002,0.836l-8.178,8.3   c-1.103,1.12-1.103,2.942,0,4.063c0.531,0.539,1.242,0.836,2.001,0.836s1.47-0.296,2.002-0.836l8.178-8.3   c0.531-0.539,0.824-1.261,0.824-2.031c0-0.771-0.292-1.492-0.824-2.032C105.249,89.981,104.538,89.684,103.779,89.684z"></path>
</g>
<rect x="65.409" y="96.383" fill="#FFFFFF" width="6.289" height="6.383"></rect>

            </g>
        </g>
    </g>
    
    <!-- ITEM 3 -->
    <g>
        <defs>
            <clipPath id="clip-path-id-viewbox-item-3">
                <rect x="0.0" y="0.0" width="375.0" height="544.0"/>
            </clipPath>
        </defs>
        <g transform="translate(1122.0 283.0) rotate(0.0 -191.0 276.5) scale(-1.0186666666666666 1.0165441176470589)">
            <g clip-path="url(#clip-path-id-viewbox-item-3)" transform="translate(-0.0 -0.0)">
                
<linearGradient id="L_hand_1_-i3" gradientUnits="userSpaceOnUse" x1="-5543.6733" y1="3300.2908" x2="-3674.2097" y2="2700.5063" gradientTransform="matrix(-0.0731 -0.0122 -0.0122 0.0731 -89.9335 -41.3978)">
	<stop offset="0" style="stop-color:#FFBEB6"></stop>
	<stop offset="1" style="stop-color:#F29B94"></stop>
</linearGradient>
<path id="L_hand-i3" fill="url(#L_hand_1_-i3)" d="M199.153,226.096c8.738,5.494,16.499,10.415,21.981,13.679  c22.063,13.181,35.274,21.567,45.296,40.201c10.046,18.485,10.253,19.388,20.988,30.681s36.822,7.979,37.004,6.885  c0.182-1.094-27.1-26.795-8.671-14.781c18.428,12.014,30.08,2.461,17.616-1.815c-12.414-4.267-29.029-21.65-33.319-26.555  c-4.489-4.938,1.184-7.109,13.715-3.538c12.506,3.72,17.442-3.837,9.185-4.856c-8.24-0.812-17.798-10.274-34.694-13.09  c-16.895-2.817-29.327-18.94-54-40.375c-3.172-2.726-6.336-5.808-9.301-8.858L199.153,226.096z"></path>
<g id="shoes-i3">
	
		<linearGradient id="L_shoe_1_-i3" gradientUnits="userSpaceOnUse" x1="2418.5598" y1="-5454.7622" x2="4083.3787" y2="-5877.3691" gradientTransform="matrix(0.0741 0 0 -0.0741 -184.2541 105.3472)">
		<stop offset="0" style="stop-color:#28306D"></stop>
		<stop offset="0.51" style="stop-color:#1F275F"></stop>
		<stop offset="1" style="stop-color:#171F51"></stop>
	</linearGradient>
	<path id="L_shoe-i3" fill="url(#L_shoe_1_-i3)" d="M18.368,492.292L0,543.982l130.014,0.004c0,0-6.666-12.864-28.89-22.392   c-22.223-9.528-42.942-29.158-42.942-29.158L18.368,492.292"></path>
	<path id="R_shoe-i3" fill="#28306D" d="M115.333,492.421l-18.394,51.575L226.953,544c0,0-6.666-12.864-28.89-22.392   c-22.223-9.528-42.884-28.906-42.884-28.906L115.333,492.421"></path>
</g>
<g id="trousers-i3">
	
		<linearGradient id="L_trousers_1_-i3" gradientUnits="userSpaceOnUse" x1="2369.2717" y1="-3558.9199" x2="4311.6196" y2="-2906.6392" gradientTransform="matrix(0.0741 0 0 -0.0741 -184.2541 105.3472)">
		<stop offset="0" style="stop-color:#3E8AF8"></stop>
		<stop offset="1" style="stop-color:#1479F2"></stop>
	</linearGradient>
	<path id="L_trousers-i3" fill="url(#L_trousers_1_-i3)" d="M110.727,329.007c-6.235,24.952-5.258,18.742-6.108,62.691   c-0.439,22.967-16.977,32.423-15.588,62.464c0.127,2.651,0.255,4.991,0.411,7.117c-5.597,18.756-9.424,31.233-9.424,31.233   l-69-0.255c-1.981-17.517-1.36-35.233,1.842-52.569c5.329-29.475,16.567-40.008,20.039-62.62   c5.513-36.009,11.961-51.959,25.862-73.466c13.548-20.939,36.902-50.868,28.456-102.685c-0.936-5.77-1.771-11.257-2.508-16.459   c3.704,12.648,8.671,24.894,14.823,36.548C136.405,291.409,113.746,316.927,110.727,329.007z"></path>
	<path id="R_trousers-i3" fill="#3E8AF8" d="M124.686,134.014c-16.255,24.853-7.639,47.068-1.162,56.496   c7.751,11.243,10.628,19.635,13.973,46.77c3.344,27.149,26.812,38.349,26.812,38.349l32.154-27.078   c2.941,14.092,5.079,28.339,6.405,42.673c2.75,31.884-27.464,176.108-32.877,201.584l-75.647-0.539   c-3.429-17.721-4.578-22.173-5.314-38.108c-1.389-30.042,15.149-39.497,15.588-62.464c0.851-43.949-0.127-37.739,6.108-62.691   c3.019-12.078,25.678-37.597-11.195-108.001C65.266,155.605,80.444,102.924,85.474,88.76"></path>
	<path id="texure-i3" fill="#FFFFFF" d="M98.466,113.014c-0.003,0.116,0.091,0.212,0.207,0.216l0,0c0.112,0,0.203-0.092,0.203-0.204   c0-0.003,0-0.004,0-0.007c0.003-0.116-0.091-0.212-0.207-0.216l0,0C98.555,112.808,98.467,112.9,98.466,113.014z M103.514,113.034   c-0.003,0.116,0.091,0.212,0.207,0.216c0.116,0.003,0.212-0.091,0.216-0.207c0.003-0.116-0.091-0.212-0.207-0.216   C103.614,112.828,103.521,112.919,103.514,113.034z M106.578,132.862c0.079,0.082,0.211,0.083,0.292,0.003   c0.082-0.079,0.083-0.211,0.003-0.292c-0.079-0.082-0.211-0.083-0.292-0.003l0,0C106.5,132.649,106.499,132.781,106.578,132.862   L106.578,132.862z M110.163,129.303c0.085,0.081,0.217,0.083,0.306,0.007c0.078-0.085,0.074-0.217-0.01-0.296   c-0.071-0.082-0.194-0.091-0.275-0.02c-0.006,0.006-0.011,0.011-0.017,0.017C110.085,129.09,110.084,129.221,110.163,129.303   L110.163,129.303L110.163,129.303z M113.762,125.749c0.079,0.082,0.21,0.083,0.292,0.004l0,0c0.081-0.085,0.083-0.217,0.007-0.306   c-0.089-0.077-0.223-0.074-0.309,0.007C113.674,125.539,113.68,125.67,113.762,125.749z M103.006,122.516   c0.041,0.104,0.16,0.154,0.264,0.113c0.104-0.041,0.154-0.16,0.113-0.264c-0.041-0.104-0.16-0.154-0.264-0.113   c-0.101,0.034-0.154,0.143-0.121,0.244C103,122.503,103.004,122.51,103.006,122.516z M107.682,120.606   c0.033,0.082,0.119,0.131,0.206,0.112l0.014,0.004c0.014,0.006,0.031,0.004,0.046-0.003c0.062-0.024,0.11-0.078,0.125-0.143   c0.01-0.044,0.007-0.091-0.008-0.135c-0.042-0.104-0.16-0.153-0.264-0.113c-0.108,0.04-0.162,0.16-0.121,0.266   C107.679,120.599,107.68,120.603,107.682,120.606z M116.498,136.213c-0.037,0.109,0.013,0.23,0.118,0.279   c0.109,0.046,0.235-0.007,0.279-0.118c0.046-0.109-0.007-0.235-0.118-0.279l0,0C116.668,136.058,116.547,136.108,116.498,136.213z    M118.452,131.551c-0.04,0.106,0.014,0.225,0.121,0.266l0,0c0.098,0.05,0.218,0.011,0.269-0.088   c0.003-0.006,0.006-0.01,0.007-0.016c0.041-0.109-0.01-0.233-0.118-0.279C118.621,131.397,118.503,131.448,118.452,131.551   L118.452,131.551z M80.67,123.44c0.065,0.207,0.287,0.32,0.492,0.255c0.004-0.002,0.008-0.003,0.014-0.004   c0.203-0.067,0.314-0.287,0.248-0.489c0-0.002,0-0.002-0.002-0.003c-0.065-0.207-0.287-0.32-0.492-0.255   c-0.004,0.002-0.008,0.003-0.014,0.004c-0.203,0.067-0.314,0.285-0.248,0.489C80.67,123.437,80.67,123.439,80.67,123.44z    M89.756,120.416c0.071,0.208,0.298,0.32,0.506,0.25c0.208-0.071,0.32-0.298,0.25-0.506c-0.067-0.203-0.287-0.314-0.489-0.248   c-0.002,0-0.002,0-0.003,0.002C89.812,119.983,89.695,120.204,89.756,120.416z M98.854,117.395c0.071,0.208,0.298,0.32,0.506,0.25   c0.208-0.071,0.32-0.298,0.25-0.506c-0.071-0.208-0.298-0.32-0.506-0.25c-0.207,0.065-0.32,0.287-0.255,0.492   C98.851,117.386,98.853,117.391,98.854,117.395z M98.009,156.658c-0.094,0.197-0.013,0.434,0.183,0.532   c0.184,0.102,0.417,0.034,0.519-0.15c0.003-0.006,0.007-0.013,0.01-0.02c0.094-0.197,0.013-0.434-0.183-0.532   C98.345,156.39,98.108,156.465,98.009,156.658L98.009,156.658z M102.291,148.094c-0.096,0.197-0.014,0.435,0.183,0.532   c0.197,0.097,0.435,0.014,0.532-0.183l0,0c0.099-0.193,0.024-0.428-0.169-0.527l0,0   C102.636,147.825,102.399,147.903,102.291,148.094L102.291,148.094z M106.591,139.519c-0.098,0.193-0.021,0.427,0.17,0.526   c0.004,0.002,0.008,0.004,0.013,0.006c0.184,0.102,0.417,0.034,0.519-0.15c0.003-0.006,0.007-0.013,0.01-0.019   c0.091-0.202,0.013-0.438-0.179-0.546C106.925,139.243,106.688,139.324,106.591,139.519L106.591,139.519z M110.873,130.954   c-0.096,0.197-0.014,0.435,0.183,0.532c0.197,0.096,0.435,0.014,0.532-0.183l0,0c0.099-0.193,0.024-0.428-0.169-0.527l0,0   c-0.194-0.104-0.435-0.03-0.537,0.164C110.878,130.946,110.875,130.95,110.873,130.954L110.873,130.954z M82.969,106.513   c-0.013,0.22,0.154,0.407,0.373,0.421c0.218,0.014,0.407-0.154,0.421-0.373c0.011-0.218-0.154-0.406-0.373-0.421   c-0.217-0.016-0.406,0.149-0.42,0.366C82.969,106.509,82.969,106.511,82.969,106.513z M92.535,107.191   c-0.024,0.214,0.131,0.407,0.345,0.43c0.214,0.024,0.406-0.131,0.43-0.345c0.002-0.01,0.002-0.019,0.002-0.028   c0.014-0.214-0.148-0.4-0.362-0.414C92.737,106.819,92.552,106.979,92.535,107.191z M84.796,141.011   c0.148,0.16,0.397,0.169,0.556,0.021c0.16-0.148,0.169-0.397,0.021-0.556c-0.145-0.156-0.387-0.169-0.547-0.03   C84.665,140.596,84.651,140.846,84.796,141.011L84.796,141.011z M92.038,134.733c0.148,0.16,0.397,0.169,0.556,0.021   c0.16-0.148,0.169-0.395,0.021-0.556c-0.145-0.156-0.387-0.169-0.547-0.03C91.906,134.318,91.893,134.568,92.038,134.733   L92.038,134.733z M99.277,128.47c0.15,0.164,0.406,0.176,0.57,0.025c0.159-0.145,0.176-0.39,0.038-0.554   c-0.142-0.171-0.397-0.194-0.567-0.052c-0.171,0.142-0.194,0.397-0.052,0.567C99.268,128.46,99.273,128.465,99.277,128.47z    M106.523,122.178c0.137,0.166,0.384,0.19,0.551,0.052c0.003-0.003,0.006-0.006,0.008-0.007c0.167-0.139,0.189-0.387,0.05-0.554   c-0.139-0.167-0.387-0.189-0.554-0.05c-0.006,0.004-0.01,0.008-0.014,0.013c-0.162,0.131-0.187,0.366-0.056,0.527   C106.511,122.166,106.517,122.172,106.523,122.178L106.523,122.178z M117.338,157.422c-0.011,0.218,0.154,0.406,0.373,0.421   c0.212,0.017,0.4-0.142,0.417-0.356c0-0.002,0-0.003,0-0.004c0.028-0.208-0.118-0.4-0.326-0.428c-0.01-0.002-0.02-0.003-0.03-0.003   C117.554,157.045,117.365,157.205,117.338,157.422z M118.717,138.306c-0.021,0.208,0.132,0.395,0.34,0.416   c0.006,0,0.013,0.002,0.019,0.002c0.216,0.023,0.41-0.133,0.433-0.35c0-0.007,0.002-0.013,0.002-0.02   c0.013-0.22-0.154-0.407-0.373-0.421C118.918,137.917,118.731,138.086,118.717,138.306L118.717,138.306z M87.592,101.235   c-0.033,0.186,0.091,0.363,0.277,0.397c0.006,0.002,0.01,0.002,0.016,0.003c0.191,0.028,0.368-0.104,0.397-0.293   c0.028-0.189-0.101-0.366-0.289-0.397c-0.186-0.033-0.363,0.091-0.397,0.277C87.593,101.224,87.592,101.229,87.592,101.235   L87.592,101.235z M78.833,133.745c0.113,0.158,0.332,0.196,0.491,0.085c0.159-0.112,0.197-0.332,0.085-0.491   c-0.112-0.159-0.332-0.197-0.491-0.085C78.76,133.368,78.722,133.584,78.833,133.745L78.833,133.745z M85.802,128.787   c0.113,0.158,0.332,0.194,0.491,0.085c0.162-0.108,0.207-0.326,0.099-0.489c-0.108-0.163-0.326-0.206-0.489-0.099   c-0.006,0.004-0.011,0.007-0.016,0.011c-0.158,0.106-0.2,0.32-0.094,0.478C85.796,128.778,85.8,128.782,85.802,128.787   L85.802,128.787z M92.72,123.583c-0.021,0.087-0.002,0.177,0.052,0.248c0.113,0.158,0.332,0.194,0.491,0.085   c0.163-0.113,0.204-0.337,0.091-0.502c0-0.002-0.002-0.002-0.003-0.003c-0.068-0.096-0.179-0.153-0.298-0.152l-0.014-0.004   c-0.067-0.002-0.132,0.024-0.18,0.069C92.772,123.382,92.72,123.48,92.72,123.583L92.72,123.583z M99.742,118.873   c0.116,0.16,0.339,0.196,0.499,0.079c0.16-0.116,0.196-0.34,0.079-0.499c-0.113-0.158-0.332-0.196-0.491-0.085   c-0.163,0.113-0.204,0.337-0.091,0.502C99.74,118.872,99.742,118.873,99.742,118.873L99.742,118.873z M109.272,152.593   c-0.025,0.197,0.106,0.379,0.302,0.417c0.186,0.033,0.363-0.091,0.397-0.277c0.002-0.004,0.002-0.01,0.003-0.016   c0.035-0.191-0.089-0.376-0.281-0.411c-0.002,0-0.004-0.002-0.007-0.002C109.494,152.279,109.313,152.405,109.272,152.593   L109.272,152.593z M110.703,144.175c-0.028,0.19,0.101,0.368,0.291,0.398c0.185,0.033,0.363-0.091,0.397-0.277   c0.002-0.006,0.002-0.01,0.003-0.016c0.035-0.191-0.089-0.376-0.281-0.411c-0.003,0-0.004-0.002-0.007-0.002   C110.91,143.846,110.733,143.982,110.703,144.175L110.703,144.175z M112.127,135.725c-0.035,0.191,0.089,0.376,0.281,0.411   c0.003,0,0.004,0.002,0.007,0.002c0.18,0.037,0.356-0.078,0.394-0.258c0.003-0.011,0.004-0.021,0.006-0.033   c0.035-0.191-0.089-0.376-0.281-0.411c-0.002,0-0.004-0.002-0.006-0.002C112.337,135.409,112.161,135.538,112.127,135.725   L112.127,135.725z M113.545,127.303c-0.025,0.196,0.11,0.374,0.306,0.401c0.189,0.025,0.364-0.102,0.398-0.289   c0.027-0.191-0.098-0.371-0.288-0.412C113.765,126.977,113.582,127.109,113.545,127.303L113.545,127.303z M83.388,113.467   c0.041,0.187,0.227,0.305,0.414,0.264c0.006-0.002,0.01-0.003,0.016-0.004c0.181-0.037,0.298-0.214,0.261-0.395   c-0.002-0.007-0.003-0.014-0.006-0.021c-0.038-0.19-0.224-0.314-0.414-0.277c-0.004,0.002-0.008,0.002-0.013,0.003   C83.46,113.089,83.345,113.279,83.388,113.467L83.388,113.467z M91.728,111.553c0.041,0.187,0.225,0.308,0.412,0.269   c0.193-0.042,0.314-0.234,0.274-0.427c-0.05-0.189-0.235-0.308-0.427-0.274c-0.19,0.047-0.306,0.238-0.26,0.428   C91.728,111.552,91.728,111.552,91.728,111.553L91.728,111.553z M100.055,109.634c0.042,0.193,0.234,0.314,0.427,0.274   c0.189-0.05,0.308-0.235,0.274-0.427c-0.047-0.19-0.238-0.306-0.428-0.26h-0.002c-0.184,0.034-0.308,0.211-0.274,0.395   C100.052,109.622,100.054,109.628,100.055,109.634L100.055,109.634z M93.838,141.948c-0.098,0.169-0.044,0.384,0.122,0.487   c0.163,0.104,0.379,0.055,0.482-0.108c0.101-0.167,0.055-0.384-0.105-0.496C94.166,141.727,93.945,141.779,93.838,141.948   L93.838,141.948z M98.39,134.7c-0.105,0.154-0.065,0.366,0.091,0.47c0.006,0.004,0.011,0.007,0.019,0.011   c0.163,0.104,0.379,0.055,0.482-0.108c0.101-0.167,0.055-0.384-0.105-0.496C98.708,134.479,98.491,134.535,98.39,134.7L98.39,134.7   z M102.928,127.449c-0.104,0.163-0.055,0.379,0.108,0.482c0.163,0.104,0.379,0.055,0.482-0.108l0,0   c0.104-0.163,0.055-0.379-0.108-0.482C103.247,127.238,103.032,127.287,102.928,127.449z M107.467,120.198   c-0.104,0.163-0.055,0.379,0.108,0.482c0.092,0.062,0.208,0.077,0.312,0.038l0.014,0.004c0.069-0.031,0.129-0.082,0.17-0.146   c0.098-0.169,0.044-0.384-0.122-0.487C107.786,119.986,107.571,120.035,107.467,120.198L107.467,120.198z M86.781,92.989   c-0.046,0.108,0.004,0.233,0.112,0.278c0.002,0,0.003,0.002,0.004,0.002c0.11,0.028,0.225-0.028,0.269-0.135   c0.04-0.106-0.014-0.225-0.121-0.266C86.94,92.826,86.82,92.883,86.781,92.989L86.781,92.989z M87.485,114.382   c0.05,0.106,0.175,0.152,0.281,0.104c0.106-0.05,0.152-0.175,0.104-0.281c-0.05-0.106-0.175-0.152-0.281-0.104l0,0   C87.485,114.152,87.439,114.276,87.485,114.382z M92.073,112.303c0.05,0.106,0.175,0.152,0.281,0.104   c0.106-0.048,0.152-0.175,0.104-0.281c-0.05-0.106-0.175-0.152-0.281-0.104l0,0C92.073,112.074,92.029,112.197,92.073,112.303   L92.073,112.303z M96.679,110.214c0.047,0.101,0.166,0.145,0.266,0.099c0.101-0.037,0.154-0.148,0.118-0.25   c-0.004-0.011-0.008-0.021-0.014-0.031c-0.047-0.101-0.166-0.145-0.266-0.099c-0.102,0.038-0.153,0.15-0.116,0.252   C96.671,110.195,96.675,110.205,96.679,110.214L96.679,110.214z M102.985,128.739c-0.04,0.106,0.014,0.225,0.121,0.266   c0.106,0.041,0.225-0.014,0.266-0.121c0.04-0.106-0.014-0.225-0.121-0.266l0,0C103.145,128.577,103.026,128.632,102.985,128.739   L102.985,128.739L102.985,128.739z M104.753,124.014c-0.034,0.112,0.024,0.23,0.135,0.269c0.106,0.04,0.225-0.014,0.266-0.121l0,0   c0.042-0.101-0.004-0.218-0.106-0.261c-0.004-0.002-0.01-0.004-0.014-0.006c-0.108-0.046-0.233,0.004-0.278,0.112   C104.754,124.011,104.753,124.013,104.753,124.014L104.753,124.014z M106.533,119.293c-0.04,0.106,0.014,0.225,0.121,0.266   c0.106,0.041,0.225-0.014,0.266-0.121l0,0c0.042-0.101-0.004-0.218-0.106-0.261c-0.004-0.002-0.01-0.004-0.016-0.006   C106.692,119.131,106.572,119.185,106.533,119.293L106.533,119.293z M87.66,103.318c0.007,0.112,0.099,0.2,0.211,0.202   c0.116-0.01,0.206-0.108,0.206-0.224c0-0.112-0.092-0.203-0.203-0.203c-0.003,0-0.006,0-0.007,0   C87.749,103.105,87.66,103.202,87.66,103.318z M92.701,103.147c0.004,0.113,0.098,0.203,0.211,0.202   c0.109,0.003,0.2-0.085,0.203-0.194c0-0.006,0-0.011,0-0.017c0.006-0.106-0.077-0.197-0.183-0.203c-0.008,0-0.019,0-0.027,0   c-0.112,0-0.203,0.092-0.202,0.204C92.701,103.141,92.701,103.144,92.701,103.147L92.701,103.147z M95.55,121.116   c0.088,0.071,0.214,0.067,0.296-0.01c0.079-0.079,0.078-0.208-0.002-0.288c-0.003-0.003-0.006-0.006-0.008-0.008   c-0.077-0.079-0.203-0.081-0.282-0.004c-0.004,0.004-0.01,0.01-0.014,0.014C95.462,120.905,95.466,121.037,95.55,121.116z    M99.006,117.434c0.088,0.071,0.214,0.067,0.296-0.01c0.075-0.087,0.071-0.216-0.01-0.296c-0.074-0.082-0.202-0.088-0.282-0.013   c-0.003,0.003-0.007,0.006-0.01,0.01c-0.083,0.082-0.085,0.216-0.004,0.299C98.999,117.429,99.002,117.432,99.006,117.434z    M102.451,113.737c0.077,0.079,0.203,0.081,0.282,0.004c0.004-0.004,0.01-0.01,0.014-0.014c0.078-0.085,0.074-0.217-0.01-0.296   c-0.088-0.071-0.214-0.067-0.296,0.01c-0.079,0.079-0.078,0.208,0.002,0.288C102.446,113.731,102.449,113.734,102.451,113.737   L102.451,113.737z M113.504,127.909c0.002,0.113,0.095,0.206,0.208,0.204s0.206-0.095,0.204-0.208c0-0.002,0-0.003,0-0.004   c0.006-0.106-0.077-0.197-0.183-0.203c-0.008,0-0.019,0-0.027,0c-0.112,0-0.203,0.092-0.202,0.204   C113.504,127.905,113.504,127.906,113.504,127.909z M88.359,95.793c-0.02,0.127,0.065,0.248,0.193,0.271   c0.131,0.021,0.254-0.061,0.283-0.19c0.019-0.132-0.073-0.255-0.206-0.274h-0.002c-0.119-0.028-0.238,0.047-0.266,0.166   C88.362,95.775,88.361,95.783,88.359,95.793z M82.24,117.623c0.071,0.104,0.212,0.131,0.316,0.06   c0.002-0.002,0.004-0.003,0.006-0.004c0.108-0.069,0.139-0.214,0.069-0.322c-0.003-0.006-0.007-0.01-0.01-0.014   c-0.071-0.104-0.212-0.131-0.316-0.06c-0.002,0.002-0.004,0.003-0.006,0.004C82.192,117.364,82.165,117.512,82.24,117.623z    M86.957,114.331c0.077,0.109,0.227,0.137,0.336,0.061c0.109-0.077,0.137-0.227,0.061-0.336c0-0.002-0.002-0.002-0.002-0.003   c-0.071-0.104-0.212-0.131-0.316-0.06c-0.002,0.002-0.004,0.003-0.006,0.004c-0.11,0.065-0.148,0.207-0.082,0.318   C86.949,114.321,86.953,114.326,86.957,114.331L86.957,114.331z M91.687,111.043c0.071,0.092,0.194,0.125,0.302,0.079   c0.017-0.01,0.031-0.007,0.034-0.02c0.109-0.077,0.136-0.227,0.06-0.336c-0.077-0.109-0.227-0.136-0.336-0.06   C91.636,110.784,91.61,110.934,91.687,111.043L91.687,111.043z M96.415,107.755c0.077,0.109,0.227,0.136,0.336,0.06   c0.109-0.077,0.136-0.227,0.06-0.336c-0.046-0.069-0.126-0.108-0.208-0.099c-0.027-0.007-0.046,0.003-0.058,0l-0.069,0.041   C96.367,107.497,96.342,107.646,96.415,107.755z M102.6,130.544c-0.028,0.119,0.047,0.238,0.166,0.266   c0.008,0.002,0.019,0.004,0.027,0.004c0.127,0.02,0.248-0.065,0.271-0.193c0.017-0.129-0.064-0.25-0.189-0.283   C102.743,130.319,102.62,130.411,102.6,130.544C102.602,130.542,102.602,130.542,102.6,130.544z M103.605,124.872   c-0.019,0.132,0.073,0.255,0.204,0.274h0.002c0.127,0.02,0.248-0.065,0.271-0.193c0.017-0.129-0.064-0.25-0.189-0.283   C103.759,124.652,103.634,124.74,103.605,124.872L103.605,124.872z M104.64,119.193c-0.034,0.119,0.034,0.242,0.153,0.277   c0.011,0.003,0.024,0.006,0.035,0.007c0.127,0.02,0.248-0.065,0.271-0.193c0.017-0.129-0.064-0.25-0.19-0.283   C104.783,118.978,104.662,119.065,104.64,119.193z M85.877,104.083c0.028,0.125,0.152,0.203,0.277,0.176   c0.129-0.023,0.217-0.145,0.194-0.275c0-0.004-0.002-0.007-0.003-0.011c-0.033-0.129-0.164-0.207-0.293-0.175   C85.929,103.829,85.851,103.955,85.877,104.083z M91.506,102.848c0.021,0.121,0.136,0.202,0.256,0.18   c0.007-0.002,0.014-0.003,0.02-0.004c0.123-0.019,0.21-0.133,0.191-0.256c-0.002-0.006-0.002-0.011-0.003-0.016   c-0.023-0.129-0.145-0.217-0.275-0.194c-0.131,0.023-0.217,0.145-0.194,0.275C91.504,102.837,91.504,102.842,91.506,102.848z    M92.72,123.583c0.019,0.03,0.041,0.055,0.068,0.077c0.108,0.071,0.252,0.04,0.323-0.068c0.002-0.003,0.003-0.004,0.004-0.007   c0.067-0.108,0.04-0.248-0.061-0.323l-0.014-0.004c-0.108-0.071-0.252-0.04-0.323,0.068c-0.002,0.003-0.003,0.004-0.004,0.007   C92.662,123.409,92.664,123.51,92.72,123.583L92.72,123.583z M95.832,118.478c-0.073,0.105-0.047,0.25,0.058,0.322   c0.002,0,0.002,0.002,0.003,0.002c0.11,0.071,0.256,0.046,0.337-0.058c0.067-0.115,0.035-0.262-0.073-0.341   C96.048,118.333,95.902,118.367,95.832,118.478L95.832,118.478z M98.932,113.635c-0.069,0.11-0.035,0.258,0.075,0.327   c0.11,0.069,0.258,0.035,0.327-0.075c0.069-0.11,0.035-0.258-0.075-0.327l0,0c-0.108-0.071-0.252-0.04-0.323,0.068   C98.935,113.629,98.934,113.632,98.932,113.635z M114.335,127.586c0.028,0.127,0.154,0.208,0.282,0.18   c0.003,0,0.006-0.002,0.008-0.002c0.125-0.028,0.203-0.152,0.176-0.277c-0.019-0.123-0.133-0.21-0.256-0.191   c-0.006,0.002-0.011,0.002-0.016,0.003C114.396,127.324,114.311,127.452,114.335,127.586L114.335,127.586z M89.115,99.509   c0.052,0.22,0.274,0.356,0.493,0.304c0.218-0.052,0.354-0.271,0.304-0.489c-0.054-0.218-0.272-0.353-0.492-0.305   C89.203,99.073,89.068,99.289,89.115,99.509L89.115,99.509z M80.353,133.646c-0.119,0.191-0.061,0.442,0.131,0.562   c0.191,0.119,0.444,0.061,0.562-0.131c0.119-0.191,0.061-0.442-0.131-0.562C80.724,133.396,80.473,133.454,80.353,133.646   L80.353,133.646z M85.506,125.222c-0.113,0.197-0.048,0.448,0.145,0.566c0.194,0.11,0.442,0.042,0.554-0.152   c0.11-0.194,0.042-0.442-0.152-0.554C85.863,124.974,85.621,125.036,85.506,125.222z M90.675,116.802   c-0.119,0.191-0.061,0.442,0.131,0.562c0.191,0.119,0.442,0.061,0.562-0.131c0.119-0.191,0.061-0.442-0.131-0.562   C91.045,116.552,90.792,116.611,90.675,116.802L90.675,116.802z M95.828,108.377c-0.113,0.197-0.05,0.448,0.145,0.566   c0.194,0.113,0.442,0.047,0.556-0.148c0.11-0.19,0.05-0.434-0.137-0.55C96.2,108.129,95.948,108.188,95.828,108.377L95.828,108.377   z M116.192,148.885c0.06,0.221,0.282,0.356,0.505,0.309c0.22-0.061,0.349-0.288,0.288-0.508c-0.058-0.211-0.274-0.34-0.488-0.292   C116.281,148.45,116.147,148.665,116.192,148.885L116.192,148.885z M113.891,139.281c0.055,0.217,0.272,0.352,0.492,0.305   c0.22-0.051,0.358-0.271,0.306-0.491c-0.051-0.22-0.271-0.357-0.491-0.306c-0.002,0-0.002,0-0.003,0   C113.977,138.843,113.843,139.061,113.891,139.281L113.891,139.281z M111.589,129.677c0.054,0.218,0.272,0.353,0.492,0.305   c0.221-0.06,0.356-0.282,0.309-0.505c-0.061-0.22-0.289-0.347-0.509-0.285C111.67,129.25,111.542,129.464,111.589,129.677z    M109.288,120.074c0.054,0.218,0.272,0.353,0.492,0.305c0.22-0.062,0.353-0.282,0.309-0.505c-0.052-0.216-0.269-0.346-0.485-0.293   c-0.003,0.002-0.007,0.002-0.01,0.003c-0.212,0.04-0.353,0.244-0.313,0.456C109.281,120.052,109.284,120.063,109.288,120.074   L109.288,120.074z M87.036,107.713c0.125,0.187,0.377,0.237,0.563,0.113c0.003-0.003,0.007-0.004,0.01-0.007   c0.181-0.136,0.223-0.391,0.092-0.577c-0.131-0.184-0.385-0.228-0.57-0.098c-0.003,0.002-0.004,0.003-0.007,0.004   C86.947,107.28,86.907,107.532,87.036,107.713L87.036,107.713z M95.052,144.862c-0.024,0.223,0.126,0.427,0.346,0.472   c0.223,0.027,0.425-0.127,0.458-0.349c0.04-0.218-0.105-0.427-0.323-0.466c-0.003,0-0.006-0.002-0.008-0.002   C95.297,144.48,95.088,144.635,95.052,144.862C95.052,144.86,95.052,144.86,95.052,144.862L95.052,144.862z M96.601,135.096   c-0.035,0.225,0.119,0.437,0.345,0.472c0,0,0,0,0.002,0c0.218,0.033,0.421-0.116,0.454-0.335l0,0   c0.035-0.221-0.116-0.43-0.337-0.464C96.846,134.733,96.64,134.879,96.601,135.096L96.601,135.096z M98.148,125.344   c-0.04,0.218,0.105,0.427,0.323,0.466c0.003,0,0.006,0.002,0.008,0.002c0.224,0.042,0.439-0.105,0.482-0.329   c0.042-0.224-0.105-0.439-0.329-0.482c-0.224-0.042-0.439,0.105-0.482,0.329C98.149,125.335,98.149,125.34,98.148,125.344z    M99.694,115.593c-0.03,0.223,0.126,0.427,0.349,0.456c0.217,0.03,0.418-0.119,0.455-0.335c0.037-0.221-0.112-0.43-0.332-0.468   C99.94,115.212,99.729,115.367,99.694,115.593L99.694,115.593L99.694,115.593z M86.781,100.918c0.132,0.183,0.384,0.23,0.573,0.106   c0.181-0.126,0.228-0.376,0.104-0.56c-0.112-0.184-0.352-0.241-0.536-0.129c-0.007,0.004-0.013,0.008-0.02,0.013   c-0.19,0.121-0.245,0.373-0.125,0.562C86.778,100.914,86.779,100.915,86.781,100.918L86.781,100.918z M88.307,145.495   c-0.038,0.22,0.11,0.43,0.331,0.468c0.22,0.038,0.43-0.11,0.468-0.331c0.037-0.214-0.104-0.42-0.316-0.465   C88.566,145.125,88.35,145.271,88.307,145.495L88.307,145.495z M90.251,135.848c-0.042,0.224,0.105,0.439,0.327,0.482   c0.217,0.037,0.427-0.099,0.478-0.314c0.038-0.225-0.104-0.441-0.325-0.496C90.511,135.483,90.299,135.627,90.251,135.848   L90.251,135.848z M92.195,126.2c-0.042,0.224,0.105,0.439,0.327,0.482c0.218,0.046,0.433-0.095,0.478-0.314   c0.046-0.218-0.095-0.433-0.314-0.478C92.466,125.846,92.249,125.982,92.195,126.2L92.195,126.2z M94.152,116.557   c-0.051,0.21,0.078,0.422,0.289,0.474c0.008,0.002,0.017,0.004,0.025,0.006c0.218,0.042,0.431-0.096,0.478-0.314   c0.044-0.22-0.099-0.433-0.318-0.476C94.41,116.202,94.199,116.341,94.152,116.557z M96.096,106.909   c-0.047,0.216,0.089,0.428,0.305,0.476c0.003,0,0.006,0.002,0.01,0.002c0.044,0.011,0.091,0.007,0.135-0.008   c0.014,0.004,0.031-0.007,0.058,0c0.148-0.037,0.26-0.158,0.285-0.306c0.046-0.218-0.095-0.433-0.314-0.478   C96.354,106.55,96.141,106.69,96.096,106.909L96.096,106.909z M82.504,116.226c-0.127,0.184-0.081,0.437,0.104,0.564   c0.184,0.127,0.437,0.081,0.564-0.104c0.002-0.003,0.003-0.004,0.004-0.007c0.121-0.19,0.071-0.442-0.113-0.573   c-0.185-0.122-0.434-0.071-0.557,0.115C82.505,116.224,82.504,116.225,82.504,116.226L82.504,116.226z M87.984,108.064   c-0.121,0.193-0.061,0.448,0.132,0.568c0.184,0.115,0.427,0.067,0.554-0.11c0.126-0.19,0.075-0.445-0.113-0.573   C88.368,107.822,88.111,107.874,87.984,108.064L87.984,108.064z M108.293,140.627c0.048,0.221,0.265,0.363,0.488,0.319   c0.218-0.044,0.359-0.256,0.314-0.475c-0.034-0.217-0.237-0.366-0.454-0.332c-0.006,0.002-0.011,0.002-0.017,0.003   c-0.223,0.038-0.373,0.248-0.335,0.47C108.291,140.618,108.293,140.622,108.293,140.627L108.293,140.627z M106.401,130.969   c0.048,0.221,0.265,0.363,0.488,0.319c0.218-0.044,0.359-0.256,0.314-0.475c-0.034-0.217-0.237-0.366-0.454-0.332   c-0.006,0.002-0.011,0.002-0.017,0.003c-0.223,0.038-0.373,0.248-0.335,0.472C106.399,130.96,106.399,130.964,106.401,130.969   L106.401,130.969z M104.509,121.312c0.048,0.221,0.265,0.363,0.488,0.319c0.218-0.044,0.359-0.256,0.314-0.475   c-0.041-0.223-0.254-0.368-0.476-0.329c-0.223,0.041-0.368,0.254-0.329,0.476C104.508,121.308,104.509,121.309,104.509,121.312   L104.509,121.312z M102.618,111.656c0.051,0.22,0.266,0.362,0.488,0.319c0.218-0.044,0.359-0.256,0.314-0.475   c-0.047-0.216-0.252-0.359-0.47-0.329c-0.224,0.04-0.374,0.255-0.333,0.479C102.616,111.651,102.616,111.652,102.618,111.656   L102.618,111.656z M81.706,102.563c0.122,0.121,0.319,0.119,0.439-0.004c0.119-0.122,0.119-0.318-0.002-0.438   c-0.118-0.116-0.308-0.115-0.424,0.003c-0.002,0.002-0.002,0.002-0.003,0.003C81.598,102.244,81.593,102.437,81.706,102.563   L81.706,102.563z M86.907,97.258c0.118,0.116,0.308,0.115,0.424-0.003c0.002-0.002,0.002-0.002,0.003-0.003   c0.121-0.119,0.123-0.313,0.004-0.435c-0.002-0.002-0.004-0.004-0.006-0.006c-0.118-0.113-0.305-0.11-0.42,0.007   c-0.004,0.004-0.007,0.008-0.011,0.013c-0.116,0.11-0.121,0.296-0.01,0.412C86.897,97.248,86.901,97.253,86.907,97.258   L86.907,97.258z M95.022,129.889c0.003,0.17,0.143,0.306,0.312,0.304c0.166-0.003,0.3-0.136,0.304-0.302   c0.006-0.163-0.122-0.298-0.285-0.304c-0.01,0-0.021,0-0.031,0C95.157,129.589,95.024,129.722,95.022,129.889L95.022,129.889z    M94.943,122.48c0.003,0.171,0.145,0.306,0.316,0.304c0.171-0.003,0.306-0.145,0.304-0.316v-0.002c0-0.167-0.137-0.304-0.305-0.304   c-0.004,0-0.007,0-0.011,0C95.076,122.171,94.942,122.312,94.943,122.48L94.943,122.48z M94.866,115.06   c0.004,0.171,0.145,0.306,0.316,0.304c0.171-0.003,0.306-0.145,0.304-0.316c-0.003-0.171-0.145-0.306-0.316-0.304l0,0   C95,114.749,94.866,114.89,94.866,115.06L94.866,115.06z M94.791,107.638c-0.002,0.163,0.129,0.298,0.292,0.299   c0.003,0,0.007,0,0.01,0c0.169,0.004,0.308-0.127,0.313-0.296c0-0.002,0-0.002,0-0.003c-0.002-0.173-0.14-0.313-0.313-0.316   c-0.169,0-0.304,0.137-0.304,0.306C94.791,107.63,94.791,107.633,94.791,107.638L94.791,107.638z M80.787,123.163   c-0.06,0.158,0.019,0.335,0.175,0.397c0.158,0.052,0.331-0.023,0.397-0.175c0.062-0.158-0.014-0.335-0.171-0.397   c-0.002,0-0.002,0-0.003-0.002c-0.15-0.065-0.325,0.004-0.39,0.153C80.791,123.149,80.788,123.156,80.787,123.163L80.787,123.163z    M83.548,116.266c-0.06,0.16,0.016,0.34,0.17,0.411c0.158,0.062,0.335-0.014,0.397-0.171c0-0.002,0.002-0.002,0.002-0.003   c0.067-0.149-0.002-0.323-0.15-0.39c-0.003-0.002-0.007-0.003-0.01-0.004c-0.154-0.069-0.336-0.002-0.406,0.152   C83.55,116.263,83.548,116.265,83.548,116.266L83.548,116.266z M86.318,109.386c-0.065,0.15,0.004,0.325,0.153,0.39   c0.007,0.003,0.014,0.006,0.021,0.008c0.148,0.067,0.32,0.002,0.387-0.146c0.003-0.004,0.004-0.01,0.006-0.014   c0.06-0.16-0.016-0.34-0.17-0.411c-0.157-0.062-0.335,0.014-0.397,0.171C86.32,109.384,86.32,109.384,86.318,109.386   L86.318,109.386z M89.076,102.503c-0.062,0.158,0.014,0.335,0.171,0.397c0.002,0,0.002,0.002,0.003,0.002   c0.15,0.065,0.325-0.004,0.39-0.153c0.003-0.007,0.006-0.014,0.008-0.021c0.065-0.153-0.007-0.329-0.159-0.393h-0.002   C89.328,102.273,89.147,102.348,89.076,102.503L89.076,102.503z M109.167,123.327c0.061,0.153,0.235,0.228,0.387,0.166   c0.003-0.002,0.006-0.003,0.01-0.004c0.156-0.058,0.234-0.233,0.176-0.389c-0.003-0.007-0.006-0.016-0.01-0.023   c-0.074-0.153-0.258-0.217-0.411-0.143C109.174,123.005,109.108,123.176,109.167,123.327L109.167,123.327z M106.252,116.507   c0.074,0.158,0.26,0.224,0.417,0.152c0.149-0.069,0.218-0.242,0.16-0.395c-0.068-0.159-0.251-0.234-0.411-0.166   C106.257,116.165,106.184,116.348,106.252,116.507L106.252,116.507z M85.346,107.343c-0.023,0.091,0.031,0.183,0.122,0.208   c0.091,0.024,0.184-0.03,0.208-0.122c0.024-0.091-0.03-0.184-0.122-0.208c-0.004-0.002-0.01-0.003-0.014-0.003   C85.452,107.202,85.367,107.256,85.346,107.343L85.346,107.343z M86.233,103.398c-0.02,0.087,0.034,0.173,0.121,0.193   c0.002,0,0.003,0,0.004,0.002c0.081,0.024,0.166-0.021,0.189-0.102c0.003-0.007,0.004-0.016,0.004-0.023   c0.027-0.087-0.023-0.179-0.109-0.204c-0.004-0.002-0.008-0.003-0.013-0.003C86.34,103.251,86.256,103.31,86.233,103.398   L86.233,103.398z M87.125,99.441c-0.027,0.087,0.023,0.179,0.109,0.204c0.004,0.002,0.008,0.003,0.013,0.003   c0.092,0.014,0.18-0.047,0.197-0.139c0.02-0.088-0.034-0.176-0.122-0.196c-0.088-0.02-0.176,0.034-0.196,0.122   C87.125,99.438,87.125,99.439,87.125,99.441L87.125,99.441z M88.012,95.497c-0.02,0.087,0.034,0.173,0.121,0.193   c0.002,0,0.003,0,0.004,0.002c0.088,0.016,0.171-0.04,0.194-0.125c0.019-0.088-0.037-0.175-0.125-0.194   C88.118,95.352,88.032,95.407,88.012,95.497z M85.544,91.947c-0.051,0.075-0.033,0.177,0.042,0.231   c0.079,0.048,0.183,0.033,0.244-0.038c0.051-0.075,0.033-0.177-0.042-0.231c-0.068-0.058-0.17-0.051-0.23,0.017   C85.554,91.931,85.549,91.938,85.544,91.947L85.544,91.947z M93.617,105.525c0.013,0.088,0.095,0.149,0.184,0.136   c0.094-0.016,0.156-0.104,0.14-0.197c0,0,0,0,0-0.002c-0.011-0.088-0.092-0.149-0.179-0.137c-0.002,0-0.003,0-0.006,0.002   C93.664,105.343,93.6,105.431,93.617,105.525L93.617,105.525L93.617,105.525z M92.92,101.534c0.016,0.094,0.104,0.156,0.197,0.14   h0.002c0.094-0.016,0.156-0.105,0.14-0.198c-0.016-0.094-0.105-0.156-0.198-0.14C92.966,101.351,92.904,101.439,92.92,101.534   C92.92,101.532,92.92,101.532,92.92,101.534L92.92,101.534z M87.212,115.204c0.03,0.149,0.175,0.247,0.325,0.217l0,0   c0.139-0.019,0.237-0.145,0.218-0.283c-0.002-0.008-0.003-0.019-0.006-0.027c-0.016-0.142-0.143-0.245-0.285-0.23   c-0.007,0.002-0.014,0.002-0.023,0.003c-0.148,0.019-0.252,0.154-0.234,0.302C87.209,115.191,87.211,115.198,87.212,115.204   L87.212,115.204z M86.104,108.582c0.016,0.142,0.143,0.245,0.285,0.23c0.007-0.002,0.014-0.002,0.023-0.003   c0.148-0.019,0.252-0.154,0.234-0.302c-0.002-0.006-0.002-0.013-0.003-0.019c-0.025-0.152-0.169-0.254-0.32-0.231   c-0.146,0.024-0.245,0.163-0.22,0.309C86.103,108.572,86.103,108.577,86.104,108.582L86.104,108.582z M84.983,101.97   c0.028,0.15,0.169,0.251,0.32,0.231c0.15-0.021,0.254-0.16,0.233-0.31c0-0.003-0.002-0.007-0.002-0.01   c-0.025-0.152-0.169-0.254-0.32-0.231C85.062,101.678,84.961,101.82,84.983,101.97L84.983,101.97z M83.872,95.362   c0.034,0.146,0.171,0.245,0.32,0.231c0.149-0.03,0.25-0.17,0.231-0.32c-0.021-0.15-0.16-0.254-0.31-0.233   c-0.003,0-0.007,0.002-0.01,0.002C83.952,95.067,83.848,95.21,83.872,95.362L83.872,95.362z M98.738,107.222   c0.078,0.131,0.247,0.171,0.376,0.095c0.004-0.003,0.008-0.004,0.011-0.007c0.127-0.083,0.162-0.255,0.078-0.383   c-0.079-0.121-0.239-0.159-0.366-0.089C98.708,106.919,98.664,107.087,98.738,107.222L98.738,107.222z"></path>
</g>
<g id="sweater-i3">
	
		<linearGradient id="sweater-2_1_-i3" gradientUnits="userSpaceOnUse" x1="4937.6494" y1="1325.6489" x2="4458.2813" y2="-831.5109" gradientTransform="matrix(0.0741 0 0 -0.0741 -184.2541 105.3472)">
		<stop offset="0" style="stop-color:#28306D"></stop>
		<stop offset="0.51" style="stop-color:#1F275F"></stop>
		<stop offset="1" style="stop-color:#171F51"></stop>
	</linearGradient>
	<path id="sweater-2-i3" fill="url(#sweater-2_1_-i3)" d="M265.138,56.055c-1.591,2.068-2.858,4.368-3.755,6.819   c-60.002,9.343-92.312,26.2-124.254,56.454c-4.705,4.389-8.881,9.313-12.442,14.673c-23.525-18.118-51.471-63.783-51.471-63.783   c13.534-28.128,40.346-24.782,61.532-23.265c21.186,1.531,33.799-10.165,70.431-6.196S265.138,56.055,265.138,56.055z"></path>
	<path id="R_sleeve-i3" fill="#23286B" d="M270.261,87.82c0,0-35.644,27.38-51.855,51.408s-14.586,31.204-0.166,51.545   s18.657,23.726,18.657,23.726l-72.587,61.134c0,0-23.467-11.203-26.815-38.344s-6.221-35.53-13.969-46.783   c-7.748-11.253-18.518-40.745,13.602-71.173s64.614-47.315,125.285-56.618l0,0"></path>
</g>
<g id="head-i3">
	
		<linearGradient id="neck_1_-i3" gradientUnits="userSpaceOnUse" x1="5994.4419" y1="430.9425" x2="6356.7271" y2="430.9425" gradientTransform="matrix(0.0741 0 0 -0.0741 -184.2541 105.3472)">
		<stop offset="0" style="stop-color:#FFBEB6"></stop>
		<stop offset="1" style="stop-color:#F2A19C"></stop>
	</linearGradient>
	<path id="neck-i3" fill="url(#neck_1_-i3)" d="M286.678,77.32l-20.974,13.964c0,0-12.825-19.181-0.567-35.229l8.829-0.51   c0.652,6.196,4.124,12.447,11.281,20.33C285.715,76.371,286.183,76.867,286.678,77.32z"></path>
	
		<linearGradient id="face_1_-i3" gradientUnits="userSpaceOnUse" x1="7422.7832" y1="600.6154" x2="8279.4004" y2="600.6154" gradientTransform="matrix(0.0741 0 0 -0.0741 -184.2541 105.3472)">
		<stop offset="0" style="stop-color:#FFBEB6"></stop>
		<stop offset="1" style="stop-color:#F2A19C"></stop>
	</linearGradient>
	<path id="face-i3" fill="url(#face_1_-i3)" d="M337.439,68.275c-3.66,5.123-6.875,10.548-9.609,16.218   c-2.735,6.295-9.609-2.013-9.609-2.013s-20.945,6.706-32.977-6.607c-7.157-7.883-10.628-14.134-11.281-20.33   c7.228,0.212,7.71-2.878,8.446-4.792c2.069-5.231-0.34-14.9,6.122-15.821c5.909-0.851,7.568,4.069,9.623,7.188   C300.466,45.663,318.252,63.837,337.439,68.275z"></path>
	<path id="eye-i3" fill="#1C2868" d="M316.295,63.986c0.19,3.696,3.337,6.539,7.032,6.35c1.337-0.068,2.625-0.537,3.693-1.344   c0.818-0.608,0.02-2-0.81-1.384c-2.182,1.782-5.395,1.457-7.177-0.726c-0.672-0.824-1.07-1.836-1.139-2.896   C317.814,62.965,316.211,62.956,316.295,63.986L316.295,63.986z"></path>
	<path id="hair-i3" fill="#1C2868" d="M373.937,53.738c-3.911,9.923-12.747,14.3-22.236,14.839   c15.617-3.157,22.236-17.333,22.236-17.333c-8.591-3.323-19.497-10.048-27.026-15.696c-6.299-4.727-13.911-12.818-24.398-24.172   C308.531-3.761,282.417-5.266,270.93,15.89c-10.012,18.441,0.914,39.771,0.914,39.771c0.468-0.014,0.95-0.047,2.117-0.115   c7.24,0.203,7.717-2.881,8.457-4.794c2.059-5.23-0.345-14.904,6.119-15.83c5.909-0.847,7.571,4.08,9.613,7.191   c2.465,3.754,22.307,23.971,42.796,26.806l0,0c0.58,0.073,1.143,0.119,1.706,0.164c12.932,2.293,26.964-1.507,32.309-15.064   C375.212,53.385,374.185,53.109,373.937,53.738z"></path>
</g>

            </g>
        </g>
    </g>
    
    <!-- ITEM 4 -->
    <g>
        <defs>
            <clipPath id="clip-path-id-viewbox-item-4">
                <rect x="0.0" y="0.0" width="400.0" height="337.0"/>
            </clipPath>
        </defs>
        <g transform="translate(271.0 506.0) rotate(0.0 239.0 201.5) scale(1.195 1.195845697329377)">
            <g clip-path="url(#clip-path-id-viewbox-item-4)" transform="translate(-0.0 -0.0)">
                
<linearGradient id="L_trousers_1_-i4" gradientUnits="userSpaceOnUse" x1="4397.062" y1="6502.7852" x2="6227.6782" y2="4400.9668" gradientTransform="matrix(0.0741 0 0 0.0741 -184.2541 -141.1613)">
	<stop offset="0" style="stop-color:#A1C3FC"></stop>
	<stop offset="0.6955" style="stop-color:#81AEF2"></stop>
	<stop offset="1" style="stop-color:#78A9EF"></stop>
</linearGradient>
<path id="L_trousers-i4" fill="url(#L_trousers_1_-i4)" d="M132.092,199.854c0,0,7.33,10.013,34.842,44.915  c19.868,25.204,27.587,38.799,27.587,38.799s-18.416-8.487-30.577-2.121c-12.16,6.366-22.007,0-29.534-3.473  c-7.528-3.473-19.689-5.786-29.534-2.893L89.817,337h176.629c25.482,0,26.06-27.777,4.054-53.238s-78.181-102.426-78.181-102.426  L132.092,199.854"></path>
<linearGradient id="R_shoe_1_-i4" gradientUnits="userSpaceOnUse" x1="6139.2534" y1="6339.6616" x2="4665.6323" y2="6901.9639" gradientTransform="matrix(0.0741 0 0 0.0741 -184.2541 -141.1613)">
	<stop offset="0.1291" style="stop-color:#428DFC"></stop>
	<stop offset="0.9987" style="stop-color:#1D72D8"></stop>
</linearGradient>
<path id="R_shoe-i4" fill="url(#R_shoe_1_-i4)" d="M352.211,336.823l-107.739-0.013l14.855-43.209h33.113  c2.053,1.944,18.596,17.314,35.827,24.681C346.687,326.177,352.211,336.823,352.211,336.823z"></path>
<linearGradient id="L_shoe_1_-i4" gradientUnits="userSpaceOnUse" x1="3240.885" y1="6022.7866" x2="5102.3325" y2="6614.1841" gradientTransform="matrix(0.0741 0 0 0.0741 -184.2541 -141.1613)">
	<stop offset="0.1291" style="stop-color:#428DFC"></stop>
	<stop offset="0.9987" style="stop-color:#1D72D8"></stop>
</linearGradient>
<path id="L_shoe-i4" fill="url(#L_shoe_1_-i4)" d="M101.406,289.378l-9.103,37.379c-6.658,0.688-33.599,3.657-56.058,8.73  C24.185,338.075,11.643,337.292,0,333.22l86.428-64.273L101.406,289.378z"></path>
<linearGradient id="R_trousers_1_-i4" gradientUnits="userSpaceOnUse" x1="5482.0874" y1="5241.0854" x2="6131.2168" y2="3487.4673" gradientTransform="matrix(0.0741 0 0 0.0741 -184.2541 -141.1613)">
	<stop offset="0" style="stop-color:#A1C3FC"></stop>
	<stop offset="0.6008" style="stop-color:#85B1F3"></stop>
	<stop offset="0.6955" style="stop-color:#81AEF2"></stop>
	<stop offset="1" style="stop-color:#78A9EF"></stop>
</linearGradient>
<path id="R_trousers-i4" fill="url(#R_trousers_1_-i4)" d="M132.092,199.854c0,0,8.109,49.765,52.121,41.087s66.019-25.463,66.019-25.463  s-6.949,13.889-2.895,28.355c4.054,14.467-7.529,18.518-8.686,30.091c-0.748,6.576-0.356,13.233,1.158,19.674h72.39  c0,0,8.686-123.259,4.633-140.04s-12.74-25.463-39.38-17.36C250.814,144.3,132.092,199.854,132.092,199.854"></path>
<path id="texture-4-i4" opacity="0.86" fill="#FFFFFF" enable-background="new    " d="M168.758,212.18  c0.111,0.048,0.239-0.004,0.286-0.115c0.048-0.111-0.004-0.238-0.115-0.286c-0.111-0.048-0.239,0.004-0.286,0.115l0,0  C168.596,212.004,168.647,212.132,168.758,212.18L168.758,212.18z M170.815,207.256c0.116,0.045,0.246-0.007,0.301-0.118  c0.042-0.115-0.016-0.24-0.13-0.285c-0.102-0.052-0.225-0.009-0.277,0.091c-0.004,0.007-0.007,0.015-0.009,0.023  C170.651,207.08,170.702,207.208,170.815,207.256L170.815,207.256L170.815,207.256z M191.137,212.123  c0.045,0.115,0.174,0.171,0.29,0.127l0,0c0.107-0.038,0.16-0.155,0.123-0.262c-0.003-0.009-0.007-0.017-0.012-0.025  c-0.041-0.111-0.163-0.168-0.275-0.128C191.147,211.879,191.09,212.008,191.137,212.123L191.137,212.123L191.137,212.123z   M179.801,211.422c0.008,0.122,0.106,0.218,0.228,0.225c0.126-0.003,0.225-0.105,0.223-0.23c-0.003-0.123-0.102-0.221-0.225-0.223  C179.904,211.204,179.809,211.301,179.801,211.422L179.801,211.422z M179.818,206.086c0.004,0.12,0.106,0.215,0.225,0.211l0,0  c0.116,0.009,0.217-0.078,0.227-0.195c0-0.007,0.001-0.012,0-0.019c-0.004-0.124-0.104-0.223-0.228-0.225  C179.922,205.867,179.825,205.964,179.818,206.086L179.818,206.086z M139.643,213.501c0.147,0.173,0.409,0.196,0.583,0.049  c0.004-0.003,0.008-0.007,0.011-0.009c0.172-0.147,0.191-0.406,0.043-0.577c-0.002-0.002-0.002-0.002-0.003-0.003  c-0.147-0.173-0.409-0.196-0.583-0.049c-0.004,0.003-0.008,0.007-0.011,0.009c-0.172,0.147-0.191,0.406-0.043,0.577  C139.642,213.498,139.643,213.5,139.643,213.501L139.643,213.501z M147.286,206.867c0.154,0.176,0.42,0.192,0.595,0.04  c0.176-0.154,0.192-0.42,0.04-0.594c-0.147-0.171-0.406-0.191-0.578-0.043c-0.002,0.002-0.002,0.002-0.003,0.003  C147.165,206.423,147.141,206.685,147.286,206.867L147.286,206.867z M170.048,238.858c-0.012,0.23,0.163,0.428,0.394,0.444  c0.221,0.024,0.42-0.135,0.445-0.356c0.002-0.008,0.002-0.015,0.002-0.023c0.012-0.23-0.163-0.428-0.394-0.444  C170.268,238.461,170.068,238.63,170.048,238.858L170.048,238.858L170.048,238.858z M170.754,228.771  c-0.013,0.232,0.161,0.43,0.394,0.444c0.232,0.013,0.43-0.161,0.445-0.394c0.019-0.228-0.151-0.428-0.38-0.446l0,0  C170.98,228.368,170.78,228.539,170.754,228.771L170.754,228.771z M171.473,218.666c-0.017,0.227,0.152,0.425,0.38,0.444  c0.005,0,0.009,0.002,0.015,0.002c0.221,0.024,0.42-0.135,0.445-0.356c0.001-0.008,0.001-0.015,0.001-0.023  c0.008-0.233-0.164-0.432-0.396-0.459C171.686,218.26,171.488,218.435,171.473,218.666L171.473,218.666z M172.177,208.578  c-0.013,0.232,0.161,0.43,0.394,0.444c0.232,0.014,0.43-0.161,0.445-0.394l0,0c0.019-0.228-0.151-0.428-0.38-0.446l0,0  c-0.23-0.021-0.437,0.148-0.458,0.379C172.178,208.567,172.177,208.572,172.177,208.578L172.177,208.578z M150.8,228.961  c0.208,0.096,0.455,0.004,0.551-0.204c0.096-0.208,0.004-0.454-0.204-0.551c-0.204-0.094-0.446-0.008-0.545,0.193  C150.503,228.609,150.591,228.859,150.8,228.961L150.8,228.961z M155.322,219.902c0.208,0.096,0.455,0.004,0.551-0.204  c0.096-0.208,0.004-0.454-0.204-0.551c-0.204-0.094-0.446-0.008-0.545,0.193C155.026,219.55,155.115,219.799,155.322,219.902  L155.322,219.902z M159.847,210.857c0.213,0.098,0.467,0.007,0.565-0.206c0.096-0.205,0.013-0.45-0.188-0.556  c-0.208-0.11-0.466-0.029-0.576,0.18c-0.11,0.208-0.029,0.466,0.18,0.575C159.837,210.852,159.842,210.855,159.847,210.857z   M189.228,231.763c0.078,0.217,0.316,0.332,0.535,0.26c0.215-0.07,0.332-0.301,0.262-0.515c0-0.001-0.002-0.003-0.002-0.004  c-0.057-0.215-0.277-0.342-0.491-0.285c-0.011,0.003-0.02,0.005-0.031,0.009C189.285,231.308,189.166,231.54,189.228,231.763  L189.228,231.763z M186.022,222.155c0.081,0.216,0.315,0.335,0.537,0.274c0.217-0.078,0.332-0.316,0.26-0.535  c-0.073-0.217-0.31-0.335-0.528-0.261c-0.003,0.002-0.005,0.002-0.007,0.003c-0.215,0.07-0.332,0.3-0.262,0.515  C186.02,222.152,186.02,222.153,186.022,222.155L186.022,222.155z M182.818,212.562c0.065,0.212,0.289,0.332,0.501,0.267  c0.007-0.002,0.012-0.004,0.019-0.007c0.22-0.065,0.346-0.297,0.279-0.517c-0.001-0.007-0.004-0.013-0.007-0.02  c-0.076-0.22-0.313-0.336-0.533-0.262c-0.22,0.075-0.336,0.312-0.262,0.533C182.816,212.56,182.818,212.561,182.818,212.562  L182.818,212.562z M142.031,224.294c0.174,0.109,0.402,0.057,0.513-0.116c0.11-0.173,0.058-0.404-0.116-0.512  c-0.174-0.11-0.404-0.058-0.513,0.116C141.809,223.956,141.86,224.183,142.031,224.294L142.031,224.294z M146.824,216.634  c0.174,0.107,0.402,0.055,0.513-0.116c0.115-0.17,0.07-0.402-0.102-0.517c-0.171-0.115-0.402-0.07-0.518,0.101  c-0.004,0.007-0.008,0.012-0.012,0.019c-0.111,0.167-0.065,0.394,0.103,0.505C146.815,216.627,146.818,216.631,146.824,216.634  L146.824,216.634z M151.464,208.752c0.015,0.093,0.07,0.173,0.151,0.221c0.174,0.107,0.402,0.055,0.513-0.116  c0.114-0.177,0.062-0.412-0.115-0.524c-0.001-0.002-0.003-0.002-0.004-0.003c-0.106-0.067-0.238-0.077-0.351-0.027l-0.015,0.002  c-0.066,0.025-0.119,0.077-0.147,0.142C151.434,208.535,151.422,208.651,151.464,208.752L151.464,208.752z M179.394,230.327  c0.054,0.203,0.258,0.327,0.463,0.284c0.195-0.043,0.318-0.235,0.275-0.43c-0.002-0.005-0.003-0.01-0.004-0.016  c-0.042-0.201-0.241-0.33-0.442-0.287c-0.003,0-0.004,0.001-0.007,0.001C179.482,229.93,179.358,230.126,179.394,230.327z   M177.375,221.538c0.049,0.197,0.249,0.319,0.446,0.272c0.194-0.043,0.318-0.235,0.275-0.43c-0.002-0.005-0.003-0.011-0.004-0.016  c-0.042-0.201-0.241-0.33-0.442-0.287c-0.003,0-0.004,0.002-0.007,0.002C177.445,221.132,177.326,221.337,177.375,221.538  L177.375,221.538z M175.338,212.721c0.042,0.201,0.241,0.33,0.442,0.287c0.003,0,0.004-0.002,0.007-0.002  c0.191-0.037,0.316-0.22,0.279-0.412c-0.003-0.012-0.005-0.023-0.008-0.033c-0.042-0.201-0.241-0.33-0.442-0.287  c-0.003,0-0.004,0.002-0.007,0.002C175.413,212.328,175.294,212.524,175.338,212.721L175.338,212.721z M160.007,226.206  c-0.028,0.204,0.112,0.393,0.316,0.425c0.201,0.036,0.392-0.099,0.426-0.301c0.031-0.204-0.102-0.397-0.304-0.441  C160.239,225.857,160.043,225.998,160.007,226.206L160.007,226.206z M161.511,217.293c-0.041,0.194,0.085,0.383,0.279,0.424  c0.007,0.002,0.015,0.003,0.021,0.004c0.201,0.036,0.392-0.099,0.426-0.301c0.031-0.204-0.102-0.397-0.304-0.441  C161.732,216.95,161.543,217.089,161.511,217.293L161.511,217.293z M163,208.381c-0.036,0.201,0.1,0.393,0.301,0.426  c0.201,0.033,0.393-0.099,0.426-0.301c0.034-0.201-0.1-0.393-0.301-0.426C163.225,208.046,163.033,208.18,163,208.381L163,208.381z   M193.855,218.986c0.11,0.161,0.33,0.204,0.491,0.094c0.007-0.004,0.012-0.009,0.019-0.013c0.171-0.115,0.216-0.346,0.102-0.515  c-0.003-0.004-0.005-0.007-0.008-0.011c-0.126-0.161-0.357-0.197-0.525-0.078c-0.167,0.116-0.205,0.346-0.089,0.511  C193.849,218.977,193.853,218.982,193.855,218.986L193.855,218.986z M188.602,211.626c0.122,0.168,0.355,0.209,0.527,0.093  c0.167-0.126,0.2-0.363,0.074-0.531c-0.12-0.158-0.342-0.198-0.508-0.09c-0.171,0.111-0.217,0.339-0.107,0.508  C188.593,211.614,188.597,211.621,188.602,211.626L188.602,211.626z M163.579,209.615c0.004,0.12,0.106,0.215,0.225,0.211  c0.12-0.004,0.215-0.105,0.211-0.225c-0.004-0.12-0.106-0.215-0.225-0.211l0,0C163.67,209.394,163.574,209.496,163.579,209.615  L163.579,209.615L163.579,209.615z M138.816,207.192c0.112,0.073,0.261,0.041,0.334-0.07c0.001-0.003,0.003-0.004,0.004-0.007  c0.077-0.112,0.049-0.265-0.064-0.342c-0.005-0.004-0.011-0.007-0.016-0.011c-0.112-0.073-0.261-0.041-0.334,0.07  c-0.001,0.003-0.003,0.004-0.004,0.007C138.663,206.958,138.698,207.116,138.816,207.192L138.816,207.192z M163.934,211.532  c0.021,0.127,0.142,0.213,0.269,0.192c0.009-0.002,0.019-0.004,0.028-0.007c0.132-0.032,0.216-0.164,0.186-0.298  c-0.037-0.132-0.163-0.217-0.299-0.2c-0.136,0.036-0.218,0.173-0.184,0.31C163.934,211.531,163.934,211.531,163.934,211.532  L163.934,211.532z M162.613,205.593c0.036,0.136,0.174,0.218,0.311,0.184h0.001c0.132-0.032,0.216-0.164,0.185-0.298  c-0.036-0.132-0.163-0.217-0.299-0.2C162.674,205.318,162.588,205.453,162.613,205.593L162.613,205.593z M151.464,208.752  c0.029,0.021,0.062,0.037,0.097,0.048c0.134,0.024,0.263-0.064,0.287-0.197c0-0.003,0.001-0.005,0.001-0.008  c0.021-0.132-0.062-0.258-0.192-0.291l-0.015,0.002c-0.134-0.024-0.263,0.064-0.287,0.197c0,0.003-0.002,0.005-0.002,0.008  C151.336,208.606,151.38,208.703,151.464,208.752L151.464,208.752z M143.475,223.581c-0.038,0.235,0.122,0.456,0.356,0.495  c0.236,0.038,0.457-0.122,0.495-0.356c0.038-0.235-0.122-0.457-0.356-0.495C143.735,223.187,143.513,223.346,143.475,223.581  L143.475,223.581z M145.088,213.277c-0.031,0.237,0.134,0.456,0.372,0.493c0.236,0.029,0.45-0.138,0.479-0.372  c0.029-0.235-0.138-0.449-0.373-0.479C145.336,212.889,145.124,213.048,145.088,213.277z M184.644,223.902  c0.148,0.191,0.42,0.232,0.618,0.096c0.191-0.148,0.223-0.423,0.076-0.612c-0.143-0.184-0.405-0.221-0.596-0.087  C184.554,223.442,184.51,223.708,184.644,223.902L184.644,223.902z M178.501,215.472c0.143,0.189,0.408,0.232,0.604,0.098  c0.195-0.139,0.239-0.409,0.102-0.602c-0.139-0.195-0.409-0.239-0.604-0.101c-0.001,0.002-0.003,0.002-0.003,0.003  C178.408,215.01,178.365,215.278,178.501,215.472L178.501,215.472z M172.358,207.043c0.142,0.191,0.409,0.235,0.604,0.098  c0.191-0.148,0.232-0.42,0.096-0.618c-0.148-0.191-0.423-0.224-0.612-0.075C172.26,206.59,172.223,206.852,172.358,207.043  L172.358,207.043z M134.04,204.497c0.205,0.126,0.474,0.062,0.6-0.143c0.126-0.205,0.062-0.474-0.143-0.601  c-0.205-0.127-0.474-0.062-0.6,0.143C133.777,204.103,133.839,204.368,134.04,204.497L134.04,204.497z M162.374,228.553  c0.067,0.227,0.295,0.366,0.528,0.32c0.228-0.064,0.363-0.297,0.306-0.527c-0.05-0.229-0.275-0.373-0.506-0.324  c-0.003,0-0.005,0.001-0.008,0.001C162.461,228.083,162.317,228.319,162.374,228.553L162.374,228.553L162.374,228.553z   M159.925,218.404c0.057,0.233,0.293,0.378,0.528,0.32c0,0,0,0,0.001,0c0.225-0.057,0.363-0.285,0.308-0.51l0,0  c-0.052-0.23-0.281-0.376-0.512-0.325c-0.23,0.052-0.377,0.281-0.325,0.511C159.924,218.401,159.924,218.402,159.925,218.404z   M157.478,208.267c0.05,0.229,0.275,0.373,0.506,0.324c0.003,0,0.005-0.002,0.008-0.002c0.237-0.05,0.386-0.281,0.336-0.517  c-0.05-0.236-0.281-0.385-0.518-0.336c-0.237,0.05-0.386,0.281-0.336,0.517C157.476,208.258,157.476,208.263,157.478,208.267z   M156.048,231.907c0.053,0.23,0.282,0.373,0.512,0.322c0.23-0.053,0.374-0.282,0.322-0.511c-0.052-0.224-0.271-0.368-0.497-0.325  C156.15,231.441,155.999,231.672,156.048,231.907L156.048,231.907z M154.031,221.712c0.05,0.235,0.279,0.385,0.516,0.337  c0.227-0.052,0.376-0.27,0.339-0.5c-0.054-0.235-0.279-0.389-0.518-0.352C154.137,221.251,153.987,221.478,154.031,221.712  L154.031,221.712z M152.014,211.517c0.05,0.235,0.279,0.385,0.516,0.337c0.232-0.045,0.385-0.267,0.34-0.499  c-0.045-0.232-0.267-0.384-0.499-0.34h-0.001C152.134,211.061,151.978,211.282,152.014,211.517L152.014,211.517z M138.506,205.723  c-0.05,0.23,0.097,0.459,0.328,0.509c0.23,0.05,0.459-0.097,0.509-0.328c0.001-0.003,0.001-0.007,0.001-0.009  c0.041-0.235-0.111-0.461-0.343-0.511c-0.23-0.045-0.453,0.107-0.497,0.337C138.506,205.722,138.506,205.722,138.506,205.723  L138.506,205.723z M173.583,219.054c0.138,0.197,0.406,0.248,0.605,0.114c0.194-0.131,0.246-0.396,0.115-0.589  c-0.12-0.198-0.38-0.261-0.577-0.14c-0.005,0.003-0.01,0.007-0.016,0.009c-0.203,0.127-0.262,0.394-0.135,0.594  C173.577,219.047,173.58,219.05,173.583,219.054L173.583,219.054z M167.817,210.405c0.138,0.197,0.406,0.248,0.605,0.114  c0.194-0.131,0.246-0.396,0.115-0.589c-0.12-0.198-0.38-0.261-0.577-0.14c-0.005,0.003-0.011,0.007-0.016,0.009  c-0.203,0.127-0.262,0.394-0.135,0.595C167.811,210.397,167.814,210.402,167.817,210.405L167.817,210.405z M156.27,213.966  c0.072,0.164,0.263,0.24,0.428,0.168c0.161-0.07,0.238-0.255,0.173-0.418c-0.061-0.16-0.241-0.241-0.401-0.181  c-0.011,0.004-0.02,0.008-0.031,0.014C156.281,213.62,156.206,213.805,156.27,213.966L156.27,213.966z M153.187,206.775  c0.073,0.164,0.266,0.24,0.432,0.167c0.167-0.073,0.241-0.266,0.168-0.432l0,0c-0.069-0.163-0.257-0.24-0.421-0.171  c-0.004,0.002-0.007,0.003-0.011,0.004C153.191,206.42,153.118,206.61,153.187,206.775L153.187,206.775z M139.645,213.182  c0.007,0.179,0.152,0.319,0.331,0.318c0.176-0.012,0.312-0.155,0.318-0.331c-0.003-0.179-0.149-0.32-0.328-0.318  c-0.002,0-0.003,0-0.003,0c-0.173-0.003-0.315,0.135-0.318,0.307C139.645,213.168,139.645,213.175,139.645,213.182L139.645,213.182z   M139.542,205.338c0.007,0.181,0.152,0.325,0.334,0.332c0.179-0.003,0.32-0.149,0.318-0.328c0-0.002,0-0.002,0-0.003  c0.004-0.172-0.132-0.314-0.306-0.319c-0.004,0-0.008,0-0.012,0c-0.179-0.005-0.328,0.135-0.334,0.312  C139.542,205.334,139.542,205.336,139.542,205.338L139.542,205.338z"></path>
<linearGradient id="sweater_1_-i4" gradientUnits="userSpaceOnUse" x1="4645.0659" y1="3629.9641" x2="5935.0273" y2="5066.8022" gradientTransform="matrix(0.0741 0 0 0.0741 -184.2541 -141.1613)">
	<stop offset="0" style="stop-color:#23286B"></stop>
	<stop offset="1" style="stop-color:#151A4F"></stop>
</linearGradient>
<path id="sweater-i4" fill="url(#sweater_1_-i4)" d="M227.7,81.269c-0.499,1.39-0.919,2.483-0.919,2.483l-0.041,0.473l-10.048,111.436  c-1.796,0.526-3.565,1.026-5.308,1.498c-0.568,0.148-1.134,0.31-1.688,0.445c-0.283,0.081-0.581,0.148-0.864,0.229  c-81.972,21.51-105.255-10.296-105.255-10.296c1.202-45.868,24.403-57.175,36.07-66.027c11.694-8.852,12.114-18.447,32.857-32.939  c0.675-0.459,1.337-0.918,1.999-1.362c0.216-0.148,0.446-0.283,0.662-0.432c2.512-1.646,4.997-3.103,7.4-4.386  c6.59-3.655,13.59-6.522,20.851-8.542c2.539-0.661,2.769-0.728,5.105-1.323l1.134-0.283c1.04-0.27,1.472-0.392,1.472-0.392  C217.925,71.863,224.216,75.439,227.7,81.269z"></path>
<linearGradient id="neck_1_-i4" gradientUnits="userSpaceOnUse" x1="5372.9941" y1="2997.2104" x2="5736.1489" y2="2789.0027" gradientTransform="matrix(0.0741 0 0 0.0741 -184.2541 -141.1613)">
	<stop offset="0" style="stop-color:#FFBEB6"></stop>
	<stop offset="1" style="stop-color:#F2A19C"></stop>
</linearGradient>
<path id="neck-i4" fill="url(#neck_1_-i4)" d="M244.168,69.607c0,0-11.945,8.578-14.184,16.412l-18.85-14.173l21.276-15.852  L244.168,69.607"></path>
<path id="face-i4" fill="#FFBEB6" d="M271.511,62.39c0,0-9.724,12.359-22.187,9.298c-7.218-1.756-12.643-5.195-15.563-8.533  c7.872-2.606,15.476-9.801,16.867-15.888c0,0,8.035,9.16,12.504-2.722c4.594,1.337,9.46,1.44,14.107,0.297  c-0.191,4.973,0.067,9.954,0.77,14.88C278.909,64.548,271.511,62.39,271.511,62.39z"></path>
<path id="mouth-i4" fill="#1C2868" d="M268.662,68.598c-0.319-2.305-2.449-3.916-4.755-3.596c-0.836,0.116-1.616,0.479-2.243,1.042  c-0.479,0.425,0.096,1.255,0.582,0.823c1.272-1.235,3.305-1.205,4.54,0.066c0.466,0.479,0.771,1.092,0.871,1.751  C267.765,69.321,268.771,69.239,268.662,68.598L268.662,68.598z"></path>
<path id="hair-i4" fill="#23286B" d="M290.084,25.384c-0.203-0.758-1.366-0.393-1.164,0.366c1.882,6.881-1.162,14.16-7.387,17.654  c-2.999,1.736-6.455,2.522-9.911,2.256c5.909-0.11,13.194-2.29,15.909-11.605c4.527-15.533-11.626-17.34-15.353-11.098  c1.363-3.851,3.687-14.173-7.43-20.626c-13.875-8.054-13.484,7.042-11.919,10.89c0,0-2.77-6.216-11.267-5.712  c-8.497,0.503-5.291,7.866-5.291,7.866s-16.635-9.73-26.808,5.746c-6.719,10.22-0.56,16.07,5.198,18.448  c-5.766-0.908-10.458-4.418-10.198-11.881c0.027-0.784-1.192-0.727-1.219,0.054c-0.379,10.861,9.009,14.099,17.852,13.038  c-1.84,1.043-10.582,6.797-2.846,18.292c8.602,12.782,29.957-1.189,32.384-11.802c0,0,7.985,9.103,12.458-2.63  c6.536,3.033,14.096,3.251,20.307-0.964C289.335,39.654,292.03,32.284,290.084,25.384z"></path>
<g id="R_hand_3_-i4">
	
		<linearGradient id="R_hand_1_-i4" gradientUnits="userSpaceOnUse" x1="5980.0718" y1="3760.801" x2="7661.8926" y2="3760.801" gradientTransform="matrix(0.0762 0 0 0.0762 -183.8362 -131.081)">
		<stop offset="0" style="stop-color:#FFBEB6"></stop>
		<stop offset="1" style="stop-color:#F2A19C"></stop>
	</linearGradient>
	<path id="R_hand_6_-i4" fill="url(#R_hand_1_-i4)" d="M287.016,201.529c2.027,7.27,47.616-66.721,53.409-76.253   c4.606-3.047,17.497,1.25,22.497,2.914c5,1.665,12.497,0,17.081-3.329c4.583-3.329,19.997-13.322,19.997-13.322   s-7.467-4.07-18.111,1.259c-1.149,0.575-2.335,1.259-3.552,2.071c-12.497,8.327-19.997,1.665-18.331,0.832   c1.666-0.832,9.165-1.665,12.082-1.665s8.067,0.482,9.004-4.205c0,0-31.57-1.824-41.795-0.21   c-10.351,4.044-11.997,7.684-15.064,11.515c-8.042,10.043-52.6,39.196-52.388,45.177   C272.534,185.804,287.016,201.529,287.016,201.529z"></path>
</g>
<path fill="#23286B" d="M297.221,216.104c0,0-16.286,16.882-36.854,6.855c-20.554-10.013-19.514-16.719-31.047-19.229  c-4.875-1.053-12.857-1.471-19.879-5.546c-0.203-0.109-0.405-0.216-0.607-0.351c-0.057-0.027-0.111-0.058-0.161-0.094  c-9.251-5.775-19.069-15.492-26.401-32.103c-9.872-22.414-8.967-61.264-7.764-78.429c0.216-0.148,0.446-0.283,0.662-0.432  c2.512-1.646,4.997-3.103,7.4-4.386c6.59-3.655,13.59-6.522,20.851-8.542c2.539-0.661,2.769-0.728,5.105-1.323l1.134-0.283  c1.04-0.27,1.472-0.392,1.472-0.392c6.795,0.013,13.086,3.589,16.57,9.419c0.93,1.496,1.696,3.089,2.282,4.75  c0,0,1.067,15.222,8.589,42.278s38.339,22.522,38.339,22.522L297.221,216.104z"></path>

            </g>
        </g>
    </g>
    
    <!-- ITEM 5 -->
    <g>
        <defs>
            <clipPath id="clip-path-id-viewbox-item-5">
                <rect x="0.0" y="0.0" width="263.0" height="400.0"/>
            </clipPath>
        </defs>
        <g transform="translate(857.0 621.0) rotate(0.0 -73.5 111.5) scale(-0.55893536121673 0.5575)">
            <g clip-path="url(#clip-path-id-viewbox-item-5)" transform="translate(-0.0 -0.0)">
                
<g>
	<path fill="#151A4F" d="M188.316,124.722c-7.009-8.022-8.53-33.622-8.054-40.657c1.068-15.804,1.887-32.591-0.783-48.807   c-1.578-9.586-6.275-26.387-19.998-31.201c-14.13-4.955-28.704,5.934-36.894,16.765c-25.732,34.031-21.115,78.785-16.073,102.432   l-2.758,0.59c-4.027-18.888-5.005-37.806-2.829-54.71c2.508-19.472,9.039-36.301,19.411-50.018   c8.764-11.587,24.519-23.182,40.076-17.725c15.098,5.296,20.169,23.204,21.849,33.407c2.719,16.514,1.893,33.488,0.814,49.458   c-0.549,8.129,1.351,31.725,7.363,38.606L188.316,124.722z"></path>
</g>
<path fill="#6cafff" d="M17.118,83.427v300.574h244.976V83.427H17.118z M99.8,120.927c-3.373,0-6.107-2.742-6.107-6.124  s2.734-6.124,6.107-6.124s6.108,2.742,6.108,6.124S103.173,120.927,99.8,120.927z M180.388,120.927  c-3.373,0-6.107-2.742-6.107-6.124s2.734-6.124,6.107-6.124c3.373,0,6.107,2.742,6.107,6.124S183.761,120.927,180.388,120.927z"></path>
<polygon fill="#a1c3fc" points="14.782,380.135 31.421,388.125 40.083,88.411 17.253,83.601 "></polygon>
<polygon fill="#a1c3fc" points="238.726,389.381 263,384.244 262.316,83.617 220.605,90.465 "></polygon>
<polygon fill="#428DFC" points="0.422,399.995 33.245,383.103 40.083,88.411 0.422,100.053 "></polygon>
<polygon fill="#428DFC" points="244.967,399.995 235.943,351.602 220.605,90.465 244.967,100.053 "></polygon>
<linearGradient id="SVGID_1_-i5" gradientUnits="userSpaceOnUse" x1="4899.5444" y1="4959.1563" x2="1687.3972" y2="5107.6226" gradientTransform="matrix(0.0762 0 0 0.0762 -183.8362 -131.081)">
	<stop offset="0" style="stop-color:#b9daff"></stop>
	<stop offset="1" style="stop-color:#a1c3fc"></stop>
</linearGradient>
<path fill="url(#SVGID_1_-i5)" d="M0,99.808v300.192h244.976V99.808H0z M83.037,137.548c-3.377,0-6.115-2.742-6.115-6.124  s2.738-6.124,6.115-6.124s6.115,2.742,6.115,6.124C89.153,134.806,86.415,137.548,83.037,137.548z M163.726,137.548  c-3.377,0-6.115-2.742-6.115-6.124s2.738-6.124,6.115-6.124c3.377,0,6.115,2.742,6.115,6.124S167.103,137.548,163.726,137.548z"></path>
<g>
	<path fill="#a1c3fc" d="M91.235,131.808H87.85c0-3.048-2.257-5.039-5.032-5.039c-2.774,0-5.031,1.991-5.031,5.039h-3.385   c0-5.334,3.775-8.429,8.417-8.429C87.46,123.379,91.235,126.475,91.235,131.808z"></path>
</g>
<g>
	<path fill="#a1c3fc" d="M171.924,131.808h-3.385c0-3.048-2.257-5.039-5.031-5.039c-2.774,0-5.032,1.991-5.032,5.039h-3.385   c0-5.334,3.775-8.429,8.417-8.429C168.148,123.379,171.924,126.475,171.924,131.808z"></path>
</g>
<g>
	<path fill="#151A4F" d="M167.118,137.048c-7.009-8.022-8.53-33.622-8.054-40.658c1.067-15.805,1.886-32.593-0.783-48.807   c-1.579-9.586-6.276-26.387-19.999-31.201c-14.126-4.954-28.704,5.933-36.893,16.765C75.657,67.178,80.838,114.192,85.88,137.84   l-2.758,0.59c-4.027-18.888-5.57-40.067-3.392-56.97c2.508-19.472,9.039-36.301,19.411-50.018   c8.763-11.588,24.515-23.182,40.075-17.725c15.097,5.296,20.169,23.204,21.849,33.407c2.718,16.513,1.892,33.487,0.814,49.457   c-0.549,8.13,1.351,31.725,7.362,38.607L167.118,137.048z"></path>
</g>
<g>
	<path fill="#a1c3fc" d="M82.82,140.237c-4.641,0-8.417-4.238-8.417-8.429h3.385c0,2.666,2.257,5.039,5.032,5.039   c2.774,0,5.031-2.373,5.031-5.039h3.385C91.235,135.999,87.46,140.237,82.82,140.237z"></path>
</g>
<g>
	<path fill="#a1c3fc" d="M163.507,140.237c-4.641,0-8.417-4.238-8.417-8.429h3.385c0,2.666,2.257,5.039,5.032,5.039   c2.774,0,5.031-2.373,5.031-5.039h3.385C171.924,135.999,168.148,140.237,163.507,140.237z"></path>
</g>

            </g>
        </g>
    </g>
    
</svg>