<?xml version="1.0" encoding="UTF-8"?><svg version="1.1" xmlns="http://www.w3.org/2000/svg" xmlns:xlink="http://www.w3.org/1999/xlink" viewBox="0 0 1200 800" width="1200" height="800" x="0px" y="0px">
              
              <!-- ITEM 0 -->
<g transform="translate(937.0 77.0) scale(-2.2076133355474585 2.2139194202923766) rotate(-0.0 153.5595 114.9545)">
<g transform="translate(-0.0 -0.0)">

<g>
	<rect x="121.322" y="148.638" fill="#D6D7D8" width="69.889" height="77.764"/>
	<rect x="78.01" y="223.88" fill="#428DFC" width="156.513" height="6.029"/>
	<linearGradient id="SVGID_1_-i0" gradientUnits="userSpaceOnUse" x1="0" y1="99.42" x2="307.1193" y2="99.42">
		<stop offset="0" style="stop-color:#EEEEEE"/>
		<stop offset="1" style="stop-color:#D6D7D8"/>
	</linearGradient>
	<rect x="0" y="0" fill="url(#SVGID_1_-i0)" width="307.119" height="198.84"/>
	<rect x="5.414" y="4.958" fill="#FFFFFF" width="296.291" height="163.755"/>
</g>
<circle fill="#EEEEEE" cx="284.522" cy="183.469" r="8.754"/>

</g>
</g>

<!-- ITEM 1 -->
<g transform="translate(221.0 355.0) scale(1.1450833383977148 1.1461986031918718) rotate(0.0 156.3205 154.4235)">
<g transform="translate(-0.0 -0.0)">

<path fill="#FFA29D" d="M147.374,44.65c0.196,2.369,0.393,4.738,0.589,7.107c-0.683,0.401-1.604,0.047-2.106-0.566  s-0.693-1.414-0.895-2.179c-0.364-1.374-0.809-2.726-1.334-4.046c-0.239-0.602-0.499-1.22-0.479-1.867  c0.015-0.479,0.184-0.939,0.357-1.386c0.659-1.7,1.41-3.364,2.251-4.982c3.792,1.434,7.583,2.869,11.374,4.303  c-0.031,0.384-0.062,0.769-0.092,1.153c-1.138-0.041-2.275-0.082-3.413-0.123c-0.937-0.034-1.932-0.053-2.738,0.425  c-0.011,2.676-0.023,5.352-0.034,8.028c-0.001,0.29-0.022,0.622-0.252,0.798c-0.381,0.293-0.91-0.106-1.176-0.507  c-0.7-1.052-1.033-2.299-1.355-3.521C147.838,46.41,147.606,45.53,147.374,44.65z"/>
<g id="shoes_10_-i1">
	<path id="R_shoe_10_-i1" fill="#F7931E" d="M190.001,269.762l-14.01,39.082l98.908,0.003c0,0-5.071-9.782-21.978-17.028   s-30.639-22.061-30.639-22.061L190.001,269.762"/>
</g>
<path fill="#0A134F" d="M132.67,158.396c3.286,11.124,5.432,22.585,6.393,34.145c0.911,10.951,1.288,23.229,9.232,30.822  c5.2,4.97,12.921,7.029,17.252,12.772c4.333,5.746,4.157,13.659,6.895,20.315c4.894,11.899,15.747,18.809,15.747,18.809  s26.68,0.824,52.756-0.393c-10.489-6.23-7.831-16.093-15.079-25.906c-18.156-24.582-34.746-50.32-49.638-77.006  c-6.889-12.346-13.486-24.999-22.614-35.795c-2.077-2.456-4.63-4.979-7.843-5.111c-2.296-0.094-4.436,1.073-6.405,2.256  c-41.327,24.834-78.945,43.45-108.62,61.997c-12.777,9.892,12.22,49.48,23.45,58.992c13.318-13.755,26.636-27.51,39.954-41.266  c8.616-8.899,17.257-17.826,24.733-27.703C125.015,177.221,130.423,168.306,132.67,158.396z"/>
<g id="shoes_9_-i1">
	<path id="R_shoe_9_-i1" fill="#FBB03B" d="M222.492,269.762l-8.759,39.082l98.908,0.003c0,0-5.071-9.782-21.978-17.028   s-30.639-22.061-30.639-22.061l-32.28,0.003"/>
</g>
<linearGradient id="SVGID_1_-i1" gradientUnits="userSpaceOnUse" x1="211.2498" y1="112.3638" x2="-7.0442" y2="85.6431" gradientTransform="matrix(1 0 0 -1 0 310)">
	<stop offset="0" style="stop-color:#1B236D"/>
	<stop offset="1" style="stop-color:#0A134F"/>
</linearGradient>
<path fill="url(#SVGID_1_-i1)" d="M59.522,253.402c21.783-11.414,38.708-30.238,53.637-49.78  c10.578-13.846,20.629-28.739,24.387-45.754c1.203,14.658,3.472,31.267,15.518,39.705c3.964,2.776,9.008,4.709,11.024,9.108  c1.165,2.543,1.065,5.453,1.287,8.242c0.724,9.073,5.271,17.778,12.304,23.556c7.883,6.477,17.755,16.39,26.244,22.049  c8.759,5.839,10.178,5.932,16.304,14.493c12.183-0.318,29.729-0.495,41.604-3.238c-3.327-4.508-6.654-9.016-9.873-13.602  c-30.688-43.712-52.201-95.103-92.716-129.904c-2.424-2.082-5.247-4.211-8.434-3.992c-2.014,0.138-3.829,1.208-5.558,2.25  c-20.888,12.585-36.735,21.509-57.623,34.094c-5.941,3.579-16.716,11.138-22.096,15.515c-10.881,8.851-23.245,19.155-23.245,19.155  s0.738,22.128-2.319,21.551c1.907-15.781-1.391-31.03-1.391-31.03s-17.789-7.65-25.476-13.333  c-9.286,10.777-14.011,27.605-12.954,41.792s7.95,27.851,18.732,37.133c3.737,3.217,7.994,5.958,12.752,7.254  C40.981,261.214,50.937,257.901,59.522,253.402z"/>
<path fill="#FFA29D" d="M138.738,30.917c-8.423,13.452-16.532,27.1-24.32,40.929c-3.657-4.034-8.727-6.761-14.109-7.59  c6.567-11.669,12.235-23.844,16.938-36.381C124.411,28.89,131.575,29.903,138.738,30.917z"/>
<path fill="#FFBFB7" d="M97.234,44.605c-4.496-1.998-4.389-12.826-3.856-17.717c1.012-9.29,5.731-18.125,12.89-24.132  c2.148-1.802,2.563-1,5.351-1.293c4.938-0.519,13.946,1.909,16.297,6.283c1.055,1.964,3.05,5.084,4.701,6.582  s3.19,0.614,5.382,3.628c0.912,1.254,4.961,10.789,4.961,17.058c0,6.373-0.09,9.316-5.856,11.312  c-2.448,0.847-16.596,1.29-21.256,0.958C108.226,46.742,103.214,47.262,97.234,44.605z"/>
<linearGradient id="SVGID_2_-i1" gradientUnits="userSpaceOnUse" x1="119.3677" y1="203.0878" x2="63.1134" y2="183.0758" gradientTransform="matrix(1 0 0 -1 0 310)">
	<stop offset="0" style="stop-color:#92C4FE"/>
	<stop offset="1" style="stop-color:#74B4F7"/>
</linearGradient>
<path fill="url(#SVGID_2_-i1)" d="M41.314,191.364c-10.076-5.356-19.789-11.395-29.05-18.061  c16.945-20.003,34.019-40.192,46.466-63.264c6.742-12.496,12.2-25.94,21.625-36.56c7.948-8.955,12.927-14.802,24.482-17.938  c-0.182,1.653-0.717,2.732,14.993,6.953c1.373,0.369,4.628,17.931,4.917,19.322c0.258,1.243-1.86,17.519-2.346,18.691  c-4.401,10.607-17.21,28.985-27.173,38.949C71.848,162.838,54.771,176.292,41.314,191.364z"/>
<path fill="#FFBFB7" d="M154.43,117.016c-0.705,0.116-1.363,0.422-2.01,0.725c-4.18,1.955-5.64,2.315-9.82,4.27  c-1.482,0.693-2.31,2.079-6.469,5.159c-1.315,0.974-0.57,2.951,0.997,3.421c1.002,0.301,2.849-0.397,3.777-0.88  c2.221-1.157,3.645-2.114,5.866-3.271c2.928-1.526,6.524-3.048,9.359-1.354c-1.357,2.74-2.179,5.743-2.406,8.792  c-0.209,2.81-0.757,5.821-1.113,8.616c-0.482,3.78-1.084,5.235-2.002,8.933s-2.463,10.473,1.316,10.965  c1.928,0.251,2.038-3.255,2.451-5.155c1.443-6.63,2.839-11.329,4.584-17.887c0.28-1.054,1.034-3.189,1.583-2.247  c0.508,0.873-1.617,5.005-3.542,11.089c-0.984,3.109-5.601,13.35-3.112,15.457c1.71,1.447,2.827-1.47,3.728-3.521  c0.267-0.608,0.158-1.086,0.616-1.925c-1.155,1.771,0.792,3.074,1.52,2.383c1.695-1.608,3.452-7.658,3.954-9.025  c3.228-8.787,6.498-17.802,6.493-27.163c0-0.821-0.044-1.697-0.525-2.362c-0.503-0.697-1.371-1.008-2.186-1.281  c-3.115-1.044-6.229-2.089-9.344-3.133C156.943,117.218,155.682,116.81,154.43,117.016z"/>
<path fill="#FFBFB7" d="M144.566,34.272c0.725-0.328,1.549-0.335,2.345-0.336c5.078-0.007,7.822,1.264,12.9,1.257  c0.696-0.001,1.419,0.004,2.046,0.306c1.27,0.613,2.262,3.056,2.93,4.298c4.048,7.519,6.909,11.271,11.527,18.137  c1.01,1.502,2.874,9.257,3.016,11.061c0.142,1.804-0.801-0.384-2.53,0.15c-0.36-0.751-1.472-0.718-2.207-0.326  s-1.371,1.029-2.194,1.157c-1.594,0.248-4.735-7.952-5.63-9.294c-3.019-4.528-7.354-3.329-11.095-6.793  c-2.038-1.887-3.849-3.472-6.51-6.011c-1.919-1.831-4.933-4.987-2.84-6.616c2.685-2.091,5.064,1.5,7.765,3.57  c2.234,1.712,4.101,3.218,7.321,5.283c-2.411-2.358-3.472-3.849-4.849-6.423c-0.357-0.668-0.478-1.494-1.071-1.966  c-0.396-0.315-0.9-0.45-1.39-0.578c-2.958-0.772-7.191-2.231-7.191-2.231l-2.344,6.154c0,0,0.035,0.557,0.618,1.497  c1.039,1.674,0.755,2.717,0.749,3.112c-0.005,0.779-0.845,1.348-1.623,1.326s-3.751-5.699-3.805-6.476  c-0.151-2.189,0.566-2.743,1.811-6.113C142.718,37.331,143.51,34.75,144.566,34.272z"/>
<linearGradient id="SVGID_3_-i1" gradientUnits="userSpaceOnUse" x1="169.3357" y1="205.4298" x2="194.0403" y2="222.0058" gradientTransform="matrix(1 0 0 -1 0 310)">
	<stop offset="0" style="stop-color:#92C4FE"/>
	<stop offset="1" style="stop-color:#74B4F7"/>
</linearGradient>
<path fill="url(#SVGID_3_-i1)" d="M149.233,70.996c3.86-1.896,26.449-14.106,26.449-14.106s31.848,65.558,23.35,74.771  c-3.136,3.399-21.806-9.905-22.469-10.412c-10.305-7.888-1.657-9.789-3.554-22.627C171.114,85.784,155.986,82.077,149.233,70.996z"/>
<path fill="#0073DC" d="M84.716,18.154c-0.364,3.639-1.135,15.63,3.134,20.904c4.659,5.755,11.626,10.532,24.232,7.792  c0.753-0.164,8.587-10.601,9.252-21.238c0.235-3.761,3.258-7.314,3.761-14.104c0.47-6.347-2.238-8.615-3.761-9.403  c-2.811-1.454-4.012-1.368-7.522-1.881c-4.631-0.676-9.734,0.227-13.686,2.073C94.79,4.79,93.123,5.479,89.365,9.861  C87.256,12.32,85.051,14.802,84.716,18.154z"/>
<circle fill="#008EFF" cx="75.887" cy="19.187" r="8.933"/>
<rect x="80.04" y="16.288" fill="#F92424" width="7.992" height="7.992"/>
<g>
	<path fill="#008EFF" d="M50.806,33.003c-0.368,0-0.743-0.084-1.122-0.252c-1.492-0.661-2.887-1.556-4.235-2.421   c-2.93-1.88-5.7-3.653-8.884-2.626c-0.26,0.086-0.544-0.06-0.629-0.322s0.06-0.544,0.322-0.629c3.635-1.175,6.735,0.813,9.73,2.735   c1.317,0.845,2.679,1.719,4.1,2.349c0.479,0.211,0.919,0.22,1.343,0.024c1.782-0.815,3.016-4.856,3.752-7.271l0.096-0.315   c1.514-4.939,3.785-7.536,6.75-7.716c3.489-0.239,5.938,3.156,7.487,5.709c0.143,0.236,0.067,0.544-0.168,0.688   c-0.234,0.142-0.543,0.067-0.688-0.168c-1.414-2.33-3.594-5.396-6.571-5.23c-2.506,0.152-4.476,2.511-5.854,7.011l-0.097,0.314   c-0.836,2.742-2.101,6.886-4.292,7.888C51.508,32.926,51.16,33.003,50.806,33.003z"/>
</g>
<path fill="#FFBFB7" d="M119.71,31.884c1.57,1.45,3.139,2.9,4.709,4.35c3.43-4.692,2.147-12.127-2.658-15.397  c-0.919-0.626-1.99-1.121-3.1-1.059c-2.601,0.144-4.107,3.358-3.488,5.889C115.791,28.197,117.797,30.116,119.71,31.884z"/>
<g>
	<path fill="#F92424" d="M89.943,91.518c-0.355,0-0.706-0.127-0.983-0.367l-14.807-12.86c-0.396-0.344-0.584-0.869-0.495-1.386   c0.089-0.518,0.44-0.95,0.928-1.143l17.379-6.855c0.496-0.194,1.054-0.113,1.474,0.213c0.418,0.326,0.633,0.85,0.564,1.377   l-2.572,19.716c-0.071,0.548-0.438,1.012-0.955,1.208C90.302,91.486,90.122,91.518,89.943,91.518z M77.985,77.646l10.831,9.407   l1.882-14.422L77.985,77.646z"/>
</g>
<g>
	<path fill="#008EFF" d="M88.694,74.135l-5.335,1.917c0.139-3.294,0.39-6.866,2.417-10.003c2.028-3.137,8.564-7.7,12.399-8.117   c-3.501,1.75-6.58,6.751-8.005,9.975C89.121,70.28,88.811,71.36,88.694,74.135z"/>
</g>
<g>
	<path fill="#008EFF" d="M55.513,161.057c-2.198,0-4.363-0.571-6.802-2.603l3.95-4.741c1.715,1.428,2.43,1.371,5.936,0.825   c0.969-0.15,1.824-0.246,2.693-0.343c2.811-0.313,5.717-0.636,12.02-3.027c13.12-4.976,19.247-8.059,22.346-12.138   c0,0-10.266,13.889-20.158,17.908c-6.969,2.832-10.482,3.052-13.526,3.391c-0.782,0.087-1.552,0.172-2.377,0.3   C58.179,160.849,56.839,161.057,55.513,161.057z"/>
</g>
<path fill="#008EFF" d="M80.859,79.219c0,0,4.859,4.545,6.418,5.251c-2.029,1.815-4.698,5.243-6.085,7.585  c-2.521-1.347-7.38-5.912-7.419-6.168C73.736,85.646,80.859,79.219,80.859,79.219z"/>
<linearGradient id="SVGID_4_-i1" gradientUnits="userSpaceOnUse" x1="30.5053" y1="189.5317" x2="88.0338" y2="189.5317" gradientTransform="matrix(1 0 0 -1 0 310)">
	<stop offset="0" style="stop-color:#008EFF"/>
	<stop offset="1" style="stop-color:#0073DC"/>
</linearGradient>
<path fill="url(#SVGID_4_-i1)" d="M71.356,80.016c0,0,11.86,9.391,16.678,13.092c-9.337,32.458-18.617,49.48-32.694,67.813  c-20.718-3.233-24.928-17.768-24.833-19.396C31.389,126.538,55.34,82.457,71.356,80.016z"/>
<g>
	<path fill="#0073DC" d="M87.487,94.175c-0.88-1.364-2.811-1.117-4.384-0.716s-2.889,1.459-4.084,2.557   c-5.296,4.867-9.372,11.128-15.436,14.997c-2.642,1.685-5.992,2.871-8.877,1.647c-3.43-1.455-4.77-5.869-3.95-9.503   c0.82-3.635,3.25-6.661,5.609-9.545c2.264-2.768,4.529-5.536,6.793-8.304c1.787-2.185,3.913-4.551,6.732-4.704"/>
	<path fill="#F92424" d="M57.263,113.661c-0.916,0-1.846-0.157-2.752-0.542c-3.861-1.638-5.068-6.413-4.242-10.074   c0.861-3.824,3.438-6.973,5.71-9.751l6.793-8.304c1.864-2.279,4.104-4.725,7.092-4.887c0.296-0.032,0.511,0.196,0.526,0.472   c0.016,0.276-0.196,0.512-0.472,0.526c-2.582,0.141-4.564,2.311-6.373,4.521l-6.793,8.304c-2.202,2.692-4.698,5.745-5.509,9.339   c-0.746,3.312,0.418,7.559,3.658,8.934c3.077,1.303,6.593-0.446,8.413-1.608c3.739-2.386,6.788-5.78,9.736-9.063   c1.785-1.988,3.632-4.045,5.63-5.881c1.235-1.135,2.61-2.243,4.298-2.674c1.595-0.407,3.842-0.753,4.928,0.93   c0.15,0.232,0.083,0.542-0.148,0.691c-0.229,0.15-0.54,0.084-0.691-0.148c-0.561-0.87-1.782-1.027-3.841-0.504   c-1.473,0.376-2.729,1.396-3.869,2.441c-1.962,1.804-3.792,3.842-5.562,5.813c-2.993,3.333-6.089,6.779-9.943,9.238   C62.38,112.373,59.882,113.661,57.263,113.661z"/>
</g>
<path fill="#F92424" d="M55.129,109.29l6.811-1.697c0.713-0.178,0.908-1.098,0.33-1.55l-5.405-4.225  c-0.506-0.396-1.252-0.134-1.401,0.491l-1.405,5.922C53.905,108.874,54.488,109.45,55.129,109.29z"/>
<g>
	<path fill="#1B236D" d="M128.218,15.769c-0.117,0-0.232-0.005-0.349-0.016c-0.274-0.026-0.477-0.27-0.451-0.545   c0.026-0.274,0.266-0.473,0.545-0.451c0.999,0.094,2.099-0.37,3.006-1.275c0.853-0.85,1.452-1.961,2.032-3.036   c0.132-0.244,0.438-0.331,0.678-0.203c0.243,0.132,0.334,0.435,0.203,0.678c-0.615,1.139-1.25,2.316-2.207,3.27   C130.657,15.205,129.414,15.769,128.218,15.769z"/>
</g>
<g>
	<path fill="#008EFF" d="M43.902,49.842c-0.244,0-0.458-0.18-0.494-0.429c-0.482-3.362,1.895-6.898,5.191-7.722   c0.846-0.21,1.718-0.259,2.562-0.306c1.183-0.065,2.301-0.128,3.278-0.611c2.347-1.161,2.858-4.242,2.97-5.514   c0.078-0.895,0.079-1.821,0.079-2.719c0.001-1.439,0.001-2.929,0.317-4.383c1.097-5.049,6.362-8.823,11.496-8.253   c0.274,0.031,0.472,0.278,0.441,0.553c-0.032,0.275-0.292,0.461-0.553,0.441c-4.646-0.527-9.415,2.901-10.408,7.472   c-0.293,1.349-0.293,2.719-0.294,4.17c0,0.919-0.001,1.868-0.083,2.807c-0.266,3.041-1.55,5.346-3.522,6.322   c-1.161,0.574-2.435,0.646-3.667,0.714c-0.833,0.046-1.621,0.09-2.374,0.277c-2.822,0.704-4.856,3.73-4.443,6.608   c0.039,0.273-0.15,0.527-0.424,0.566C43.95,49.84,43.927,49.842,43.902,49.842z"/>
</g>
<path id="texture-3_9_-i1" opacity="0.51" fill="#FFFFFF" enable-background="new    " d="M193.646,189.371  c-0.084-0.105-0.066-0.259,0.039-0.343s0.259-0.066,0.344,0.039c0.084,0.105,0.066,0.259-0.039,0.343l0,0  C193.884,189.495,193.73,189.479,193.646,189.371L193.646,189.371z M198.361,185.692c-0.083-0.111-0.066-0.268,0.038-0.36  c0.111-0.079,0.266-0.054,0.345,0.056c0.084,0.095,0.078,0.241-0.017,0.327c-0.006,0.006-0.014,0.011-0.022,0.016  C198.6,185.815,198.445,185.798,198.361,185.692L198.361,185.692L198.361,185.692z M187.082,165.179  c-0.138-0.015-0.237-0.138-0.221-0.276l0,0c0.01-0.125,0.12-0.22,0.246-0.21c0.01,0,0.021,0.002,0.031,0.005  c0.133,0.012,0.23,0.127,0.22,0.259C187.343,165.093,187.22,165.194,187.082,165.179L187.082,165.179L187.082,165.179z   M205.264,195.116c-0.115-0.065-0.157-0.21-0.094-0.327c0.065-0.115,0.21-0.157,0.327-0.094c0.117,0.063,0.157,0.21,0.094,0.327  c-0.055,0.114-0.191,0.161-0.305,0.106C205.279,195.124,205.27,195.119,205.264,195.116L205.264,195.116z M191.195,177.218  c-0.135,0.027-0.268-0.051-0.312-0.18c-0.037-0.135,0.043-0.275,0.18-0.312c0.137-0.037,0.275,0.043,0.312,0.18l0,0  C191.401,177.041,191.324,177.174,191.195,177.218L191.195,177.218z M196.96,175.617c-0.131,0.032-0.263-0.05-0.295-0.181l0,0  c-0.044-0.123,0.019-0.258,0.143-0.302c0.007-0.001,0.014-0.005,0.02-0.006c0.135-0.032,0.271,0.047,0.312,0.18  C197.167,175.44,197.09,175.574,196.96,175.617L196.96,175.617z M200.837,221.219c-0.232-0.108-0.333-0.385-0.225-0.617  c0.001-0.005,0.005-0.01,0.007-0.015c0.108-0.228,0.383-0.326,0.612-0.218l0.004,0.001c0.232,0.108,0.333,0.385,0.225,0.617  c-0.002,0.005-0.005,0.01-0.007,0.015c-0.108,0.228-0.383,0.326-0.612,0.218L200.837,221.219z M205.748,210.997  c-0.235-0.113-0.333-0.396-0.217-0.632c0.113-0.235,0.396-0.333,0.632-0.217l0,0c0.228,0.108,0.326,0.383,0.218,0.612  c0,0.001-0.001,0.001-0.001,0.004C206.263,210.995,205.987,211.1,205.748,210.997L205.748,210.997z M164.418,195.884  c-0.246,0.081-0.511-0.05-0.597-0.294c-0.091-0.233,0.022-0.495,0.254-0.586c0.009-0.004,0.015-0.006,0.024-0.008  c0.246-0.081,0.511,0.05,0.597,0.294C164.783,195.529,164.659,195.796,164.418,195.884L164.418,195.884L164.418,195.884z   M175.117,192.132c-0.244,0.086-0.515-0.041-0.601-0.287c-0.086-0.244,0.041-0.515,0.288-0.601c0.004-0.001,0.009-0.003,0.009-0.003  c0.244-0.088,0.509,0.036,0.597,0.277l0,0C175.487,191.768,175.36,192.035,175.117,192.132L175.117,192.132z M185.829,188.363  c-0.241,0.086-0.505-0.037-0.591-0.279c-0.001-0.005-0.003-0.01-0.005-0.015c-0.091-0.233,0.022-0.495,0.254-0.586  c0.009-0.004,0.015-0.006,0.024-0.008c0.249-0.077,0.516,0.05,0.614,0.293C186.205,188.012,186.073,188.277,185.829,188.363  L185.829,188.363z M196.527,184.611c-0.246,0.083-0.513-0.048-0.597-0.294s0.047-0.513,0.294-0.597  c0.241-0.088,0.506,0.036,0.595,0.277l0,0c0.093,0.243-0.031,0.515-0.274,0.608C196.545,184.605,196.534,184.609,196.527,184.611  L196.527,184.611z M221.06,221.048c-0.26-0.017-0.457-0.241-0.441-0.499c0.017-0.258,0.241-0.457,0.499-0.441h0.005  c0.258,0.019,0.454,0.243,0.438,0.502c-0.015,0.257-0.235,0.454-0.492,0.439c-0.004-0.001-0.007-0.002-0.007-0.002h-0.002V221.048z   M180.819,213.747c-0.166-0.196-0.141-0.49,0.058-0.656c0.196-0.166,0.49-0.141,0.656,0.058c0.162,0.193,0.141,0.48-0.046,0.647  C181.287,213.962,180.991,213.942,180.819,213.747L180.819,213.747z M189.276,206.176c-0.166-0.196-0.141-0.49,0.058-0.656  c0.196-0.166,0.49-0.141,0.656,0.058c0.162,0.193,0.141,0.48-0.048,0.647C189.743,206.392,189.448,206.37,189.276,206.176  L189.276,206.176z M197.713,198.607c-0.171-0.202-0.143-0.502,0.058-0.672c0.193-0.164,0.482-0.147,0.656,0.038  c0.181,0.192,0.171,0.493-0.021,0.674s-0.494,0.171-0.674-0.021C197.725,198.618,197.718,198.613,197.713,198.607z M166.411,173.059  c-0.258-0.019-0.454-0.243-0.438-0.502c0.012-0.253,0.227-0.447,0.48-0.436h0.005c0.248-0.002,0.451,0.198,0.453,0.447  c0,0.011,0,0.024,0,0.037C166.886,172.863,166.671,173.06,166.411,173.059L166.411,173.059z M177.749,173.677  c-0.258-0.023-0.456-0.241-0.454-0.499c0.02-0.258,0.244-0.453,0.502-0.438c0.257,0.014,0.454,0.235,0.439,0.492  c0,0.004,0,0.005,0,0.009c-0.012,0.253-0.227,0.447-0.479,0.436c-0.005,0.001-0.006,0.001-0.006,0.001L177.749,173.677z   M189.068,174.296c-0.248-0.006-0.444-0.213-0.436-0.461c0-0.006,0-0.015,0.002-0.022c0.004-0.257,0.218-0.461,0.475-0.456  c0.009,0,0.015,0,0.024,0c0.26,0.017,0.457,0.241,0.441,0.499c-0.017,0.26-0.241,0.457-0.499,0.441  C189.071,174.296,189.07,174.296,189.068,174.296z M188.462,221.838c-0.167-0.156-0.18-0.418-0.027-0.589  c0.155-0.17,0.418-0.182,0.589-0.027c0.17,0.155,0.182,0.418,0.027,0.589l0,0C188.893,221.979,188.633,221.991,188.462,221.838  L188.462,221.838z M195.326,214.391c-0.168-0.156-0.18-0.418-0.027-0.589c0.15-0.175,0.413-0.193,0.588-0.043  s0.193,0.413,0.043,0.588c-0.005,0.006-0.01,0.011-0.017,0.018c-0.148,0.17-0.407,0.187-0.576,0.039  C195.334,214.399,195.329,214.394,195.326,214.391L195.326,214.391z M202.472,207.041c-0.104,0.012-0.208-0.024-0.284-0.099  c-0.168-0.156-0.18-0.418-0.027-0.589c0.158-0.175,0.427-0.19,0.603-0.032c0.001,0.001,0.001,0.001,0.004,0.004  c0.103,0.094,0.154,0.234,0.133,0.373l0.001,0.017c-0.007,0.079-0.047,0.151-0.11,0.2  C202.716,207.008,202.594,207.056,202.472,207.041L202.472,207.041z M209.051,199.495c-0.171-0.16-0.18-0.428-0.018-0.598  c0.161-0.17,0.428-0.179,0.598-0.018c0.167,0.156,0.18,0.418,0.027,0.589c-0.158,0.175-0.427,0.19-0.603,0.032  C209.055,199.496,209.053,199.496,209.051,199.495L209.051,199.495z M170.875,183.259c-0.235,0.001-0.429-0.182-0.444-0.416  c-0.011-0.223,0.161-0.413,0.385-0.424c0,0,0.011,0,0.019,0c0.23-0.014,0.428,0.161,0.44,0.391c0,0.004,0,0.005,0,0.009  C171.279,183.045,171.104,183.238,170.875,183.259z M180.976,182.835c-0.228,0.006-0.418-0.174-0.425-0.401  c-0.011-0.223,0.161-0.413,0.385-0.423c0.006,0,0.011,0,0.019,0c0.23-0.014,0.428,0.161,0.442,0.391c0,0.004,0,0.005,0,0.009  C181.393,182.64,181.208,182.829,180.976,182.835L180.976,182.835z M191.113,182.425c-0.23,0.014-0.428-0.161-0.44-0.391  c0-0.004,0-0.005,0-0.009c-0.018-0.217,0.146-0.406,0.362-0.424c0.014-0.001,0.027-0.001,0.04-0.001  c0.23-0.014,0.428,0.161,0.442,0.391c0,0.004,0,0.005,0,0.009C191.516,182.225,191.339,182.413,191.113,182.425L191.113,182.425z   M212.956,219.518c-0.214-0.076-0.324-0.312-0.247-0.527c0.001-0.006,0.005-0.011,0.007-0.019c0.071-0.207,0.296-0.317,0.503-0.248  c0.009,0.004,0.016,0.005,0.024,0.009c0.217,0.073,0.336,0.31,0.262,0.528c-0.001,0.005-0.004,0.01-0.005,0.014  C213.411,219.489,213.172,219.596,212.956,219.518L212.956,219.518z M181.07,202.983c-0.213,0.09-0.458-0.005-0.553-0.216  c-0.097-0.208-0.008-0.454,0.199-0.55c0.211-0.093,0.46-0.008,0.567,0.196C181.38,202.629,181.285,202.882,181.07,202.983z   M190.263,198.717c-0.198,0.1-0.44,0.021-0.54-0.176c-0.004-0.007-0.006-0.015-0.011-0.022c-0.097-0.208-0.008-0.454,0.199-0.55  c0.211-0.093,0.46-0.008,0.567,0.196C190.569,198.376,190.474,198.622,190.263,198.717z M199.458,194.469  c-0.208,0.097-0.454,0.008-0.55-0.199c-0.097-0.208-0.008-0.454,0.199-0.55c0.208-0.097,0.454-0.008,0.55,0.199  C199.754,194.127,199.664,194.371,199.458,194.469L199.458,194.469z M178.856,164.273c-0.207-0.071-0.317-0.296-0.247-0.503  c0.004-0.009,0.005-0.016,0.009-0.024c0.073-0.217,0.31-0.336,0.528-0.262c0.005,0.002,0.01,0.004,0.014,0.005  c0.212,0.088,0.318,0.327,0.241,0.545c-0.076,0.214-0.312,0.323-0.527,0.247C178.868,164.278,178.861,164.275,178.856,164.273  L178.856,164.273z M188.368,167.768c-0.217-0.081-0.332-0.321-0.257-0.542c0.086-0.217,0.332-0.326,0.552-0.239  c0.207,0.083,0.315,0.311,0.247,0.523c-0.07,0.216-0.302,0.336-0.518,0.266C188.383,167.776,188.376,167.772,188.368,167.768  L188.368,167.768z M212.494,214.568c-0.117-0.074-0.152-0.228-0.079-0.345c0.074-0.117,0.229-0.152,0.345-0.078  c0.116,0.073,0.152,0.229,0.078,0.345l0,0C212.765,214.601,212.613,214.636,212.494,214.568L212.494,214.568z M197.951,194.209  c-0.131,0.032-0.263-0.05-0.295-0.181c-0.032-0.131,0.05-0.263,0.181-0.295s0.263,0.05,0.295,0.181l0,0  C198.164,194.046,198.084,194.178,197.951,194.209L197.951,194.209L197.951,194.209z M203.764,192.841  c-0.136,0.024-0.266-0.063-0.296-0.198c-0.032-0.131,0.05-0.263,0.181-0.295l0,0c0.125-0.035,0.255,0.038,0.29,0.163  c0.001,0.007,0.003,0.012,0.005,0.019c0.037,0.133-0.04,0.271-0.173,0.31C203.769,192.839,203.766,192.839,203.764,192.841z   M205.793,204.085c-0.071-0.114-0.046-0.261,0.056-0.345c0.105-0.081,0.258-0.061,0.339,0.046c0.004,0.004,0.005,0.006,0.009,0.012  c0.081,0.101,0.064,0.251-0.038,0.332c-0.006,0.005-0.012,0.01-0.012,0.01C206.027,204.22,205.873,204.195,205.793,204.085z   M200.499,181.976c-0.134-0.02-0.225-0.144-0.205-0.278c0.02-0.134,0.144-0.225,0.278-0.205l0,0c0.125,0.01,0.22,0.12,0.21,0.246  c0,0.01-0.002,0.021-0.005,0.031c-0.017,0.13-0.138,0.223-0.269,0.206c-0.001-0.001-0.005-0.001-0.005-0.001L200.499,181.976  L200.499,181.976z M207.905,220.245c-0.111-0.099-0.121-0.27-0.022-0.381c0.001-0.001,0.004-0.005,0.004-0.005  c0.1-0.118,0.273-0.133,0.389-0.036c0.005,0.005,0.011,0.01,0.016,0.015c0.112,0.099,0.121,0.27,0.022,0.381  c-0.001,0.001-0.004,0.005-0.004,0.005C208.201,220.34,208.022,220.348,207.905,220.245L207.905,220.245z M212.476,215.195  c-0.116-0.105-0.126-0.287-0.019-0.403c0.107-0.116,0.287-0.126,0.403-0.019l0,0c0.112,0.099,0.121,0.27,0.022,0.381  c0,0-0.004,0.005-0.005,0.006c-0.092,0.12-0.265,0.143-0.385,0.049C212.486,215.205,212.481,215.2,212.476,215.195L212.476,215.195z   M195.775,194.392c-0.144,0.015-0.272-0.091-0.288-0.233c-0.001-0.011-0.001-0.021-0.001-0.034  c-0.005-0.153,0.114-0.282,0.267-0.289c0.154,0,0.284,0.112,0.305,0.266c0.003,0.158-0.124,0.289-0.282,0.29H195.775  L195.775,194.392z M202.586,194.061c-0.158,0.003-0.289-0.124-0.29-0.282v-0.001c-0.005-0.153,0.114-0.282,0.267-0.289  c0.154,0,0.284,0.112,0.306,0.265C202.867,193.911,202.745,194.044,202.586,194.061L202.586,194.061z M222.076,224.419  c-0.149-0.046-0.233-0.202-0.188-0.352c0.002-0.005,0.004-0.009,0.005-0.014c0.062-0.142,0.221-0.214,0.368-0.167  c0.146,0.052,0.222,0.212,0.17,0.359c-0.001,0.004-0.001,0.006-0.004,0.009C222.375,224.395,222.218,224.469,222.076,224.419  L222.076,224.419z M202.472,207.041c-0.031-0.025-0.058-0.056-0.079-0.091c-0.067-0.136-0.008-0.302,0.128-0.37  c0.004-0.001,0.005-0.004,0.009-0.005c0.136-0.062,0.297-0.01,0.371,0.12l0.001,0.016c0.067,0.136,0.008,0.302-0.128,0.37  c-0.004,0.001-0.006,0.004-0.006,0.004C202.669,207.136,202.55,207.117,202.472,207.041L202.472,207.041z M208.932,204.148  c-0.135,0.069-0.299,0.017-0.37-0.117c0-0.001-0.001-0.001-0.001-0.004c-0.067-0.14-0.015-0.309,0.119-0.388  c0.145-0.061,0.314-0.003,0.39,0.135C209.135,203.915,209.072,204.083,208.932,204.148L208.932,204.148z M178.144,224.88  c-0.248,0.1-0.53-0.011-0.644-0.254c-0.11-0.243-0.004-0.529,0.237-0.64c0.248-0.103,0.534,0.01,0.644,0.254  C178.493,224.483,178.385,224.768,178.144,224.88z M188.804,220.066c-0.243,0.111-0.529,0.004-0.64-0.237  c-0.111-0.243-0.004-0.529,0.237-0.64c0.243-0.111,0.529-0.004,0.64,0.237C189.153,219.669,189.047,219.955,188.804,220.066  L188.804,220.066z M199.468,215.271c-0.248,0.103-0.534-0.01-0.644-0.254c-0.101-0.247,0.016-0.526,0.26-0.628  c0.246-0.101,0.526,0.016,0.628,0.26C199.813,214.889,199.704,215.163,199.468,215.271z M210.13,210.458  c-0.243,0.11-0.529,0-0.639-0.243c-0.108-0.242-0.004-0.524,0.235-0.637c0.243-0.11,0.529,0,0.639,0.243  C210.473,210.062,210.37,210.347,210.13,210.458z M176.267,175.682c-0.251-0.103-0.377-0.384-0.286-0.64  c0.103-0.249,0.39-0.366,0.639-0.261c0.241,0.1,0.36,0.372,0.27,0.617C176.793,175.643,176.518,175.769,176.267,175.682  L176.267,175.682z M187.201,179.822c-0.246-0.098-0.372-0.372-0.285-0.623c0.093-0.251,0.372-0.378,0.623-0.285  c0.251,0.093,0.378,0.372,0.285,0.623C187.727,179.784,187.452,179.91,187.201,179.822z M198.134,183.962  c-0.247-0.097-0.375-0.372-0.285-0.623c0.103-0.251,0.384-0.377,0.64-0.286c0.249,0.105,0.365,0.392,0.26,0.641  C198.649,183.93,198.379,184.049,198.134,183.962L198.134,183.962z M212.233,224.606c-0.197-0.185-0.207-0.494-0.022-0.692  c0.185-0.197,0.494-0.207,0.692-0.022c0.197,0.185,0.207,0.494,0.022,0.692C212.736,224.774,212.432,224.784,212.233,224.606  L212.233,224.606z M177.831,201.122c-0.265-0.005-0.483-0.212-0.503-0.476c0.002-0.266,0.214-0.481,0.479-0.486  c0.262-0.013,0.487,0.187,0.5,0.451c0,0.004,0,0.006,0,0.01C178.316,200.888,178.103,201.113,177.831,201.122L177.831,201.122  L177.831,201.122z M189.531,200.76c-0.271,0.007-0.494-0.205-0.503-0.474c0,0,0,0,0-0.001c-0.007-0.261,0.2-0.478,0.461-0.483l0,0  c0.266-0.013,0.489,0.19,0.503,0.456c0.014,0.266-0.19,0.489-0.456,0.503h-0.005V200.76z M201.214,200.401  c-0.262,0.013-0.486-0.187-0.5-0.449c0-0.004,0-0.006,0-0.01c-0.016-0.268,0.189-0.501,0.459-0.516  c0.269-0.016,0.502,0.189,0.517,0.459c0.016,0.269-0.189,0.502-0.459,0.517C201.226,200.4,201.221,200.401,201.214,200.401z   M220.584,226.221c-0.191-0.18-0.216-0.478-0.056-0.687c0.182-0.196,0.486-0.213,0.689-0.039c0.2,0.16,0.232,0.451,0.071,0.65  c-0.005,0.006-0.012,0.013-0.017,0.02c-0.17,0.205-0.474,0.233-0.679,0.063C220.592,226.226,220.588,226.224,220.584,226.221  L220.584,226.221z M176.079,208.95c-0.264,0.012-0.488-0.194-0.5-0.459s0.194-0.488,0.459-0.5c0.257-0.011,0.478,0.183,0.499,0.441  C176.552,208.702,176.348,208.932,176.079,208.95L176.079,208.95z M187.699,208.109c-0.269,0.016-0.499-0.189-0.517-0.457  c-0.012-0.261,0.182-0.487,0.441-0.515c0.271-0.012,0.503,0.187,0.534,0.455C188.167,207.859,187.964,208.085,187.699,208.109  L187.699,208.109z M199.319,207.266c-0.269,0.016-0.499-0.189-0.517-0.457c-0.021-0.264,0.177-0.495,0.441-0.515  s0.495,0.177,0.515,0.441l0,0C199.777,207.001,199.584,207.236,199.319,207.266L199.319,207.266z M210.938,206.409  c-0.256,0.029-0.483-0.155-0.512-0.411c-0.001-0.01-0.001-0.02-0.003-0.03c-0.018-0.264,0.179-0.492,0.441-0.515  c0.264-0.019,0.493,0.179,0.512,0.442C211.395,206.159,211.2,206.387,210.938,206.409L210.938,206.409z M199.165,225.382  c-0.237,0.116-0.52,0.018-0.637-0.217c0,0-0.001-0.001-0.001-0.004c-0.123-0.237-0.033-0.527,0.202-0.652  c0.242-0.116,0.532-0.019,0.656,0.219C199.497,224.969,199.402,225.256,199.165,225.382L199.165,225.382z M209.583,220.143  c-0.237,0.121-0.526,0.029-0.647-0.207c-0.121-0.236-0.029-0.526,0.207-0.647c0.001-0.001,0.005-0.001,0.006-0.004  c0.242-0.113,0.531-0.018,0.656,0.219c0.116,0.237,0.018,0.521-0.217,0.637l-0.004,0.001L209.583,220.143z M184.785,186.198  c-0.252-0.09-0.387-0.367-0.301-0.621c0.085-0.249,0.355-0.383,0.604-0.299c0.25,0.072,0.394,0.332,0.323,0.583  c-0.001,0.006-0.004,0.014-0.007,0.02c-0.077,0.256-0.349,0.401-0.603,0.322C184.795,186.201,184.79,186.199,184.785,186.198  L184.785,186.198z M195.843,189.864c-0.252-0.09-0.387-0.367-0.301-0.621c0.085-0.249,0.355-0.383,0.604-0.299  c0.25,0.072,0.394,0.332,0.322,0.583c-0.001,0.006-0.004,0.014-0.007,0.02c-0.078,0.256-0.348,0.401-0.604,0.322  C195.853,189.867,195.848,189.865,195.843,189.864L195.843,189.864z M195.411,203.394c-0.199-0.027-0.338-0.212-0.309-0.411  c0.027-0.194,0.205-0.333,0.401-0.311c0.191,0.019,0.332,0.188,0.314,0.38c-0.002,0.011-0.004,0.025-0.005,0.036  C195.781,203.281,195.605,203.417,195.411,203.394L195.411,203.394z M204.098,204.594c-0.199-0.029-0.338-0.217-0.309-0.416  c0.029-0.201,0.217-0.338,0.416-0.309l0,0c0.198,0.026,0.337,0.207,0.311,0.403c0,0.005-0.002,0.009-0.002,0.014  C204.482,204.484,204.298,204.62,204.098,204.594L204.098,204.594z M212.804,205.793c-0.199-0.029-0.338-0.217-0.309-0.416  s0.217-0.338,0.416-0.309s0.338,0.217,0.309,0.416l0,0C213.186,205.683,213.002,205.818,212.804,205.793L212.804,205.793z   M201.182,221.124c-0.194,0.047-0.39-0.072-0.44-0.263c-0.038-0.193,0.075-0.384,0.263-0.44c0.194-0.05,0.39,0.067,0.44,0.261  c0,0.001,0,0.001,0.001,0.004c0.053,0.185-0.053,0.38-0.238,0.434C201.198,221.119,201.189,221.123,201.182,221.124z   M209.693,218.911c-0.197,0.047-0.397-0.068-0.457-0.262c-0.05-0.194,0.067-0.39,0.26-0.44h0.001  c0.187-0.057,0.383,0.048,0.438,0.233c0.001,0.005,0.001,0.009,0.003,0.014c0.058,0.192-0.048,0.394-0.241,0.454L209.693,218.911  L209.693,218.911z M218.188,216.683c-0.185,0.053-0.38-0.053-0.434-0.238c-0.001-0.009-0.005-0.016-0.006-0.025  c-0.057-0.184,0.046-0.377,0.229-0.434c0.007-0.001,0.012-0.004,0.019-0.005c0.197-0.047,0.397,0.068,0.457,0.262  c0.05,0.194-0.067,0.39-0.26,0.44c-0.002-0.001-0.004-0.001-0.004-0.001h-0.001V216.683z M220.443,218.132  c-0.109,0.012-0.211-0.065-0.226-0.174c-0.014-0.111,0.063-0.212,0.174-0.226c0.111-0.014,0.212,0.063,0.226,0.174  c0,0.005,0.001,0.012,0.001,0.017C220.622,218.028,220.546,218.118,220.443,218.132L220.443,218.132z M211.488,214.766  c-0.171-0.057-0.264-0.241-0.207-0.414l0,0c0.042-0.161,0.206-0.256,0.365-0.214c0.01,0.004,0.02,0.005,0.03,0.01  c0.164,0.038,0.266,0.205,0.228,0.369c-0.002,0.009-0.005,0.016-0.007,0.025c-0.044,0.171-0.218,0.275-0.389,0.229  C211.502,214.771,211.495,214.769,211.488,214.766L211.488,214.766z M219.1,217.056c-0.164-0.038-0.266-0.205-0.228-0.369  c0.002-0.009,0.005-0.016,0.007-0.025c0.044-0.171,0.218-0.274,0.389-0.229c0.006,0.002,0.015,0.004,0.021,0.007  c0.174,0.052,0.273,0.236,0.224,0.41c-0.051,0.167-0.228,0.263-0.395,0.212C219.111,217.059,219.106,217.057,219.1,217.056  L219.1,217.056z"/>
<path fill="#FFBEB6" d="M170.436,122.771c0.145,9.942-0.167,17.922-0.365,27.863c-0.014,0.704-0.005,4.308-0.276,4.958  c-0.334,0.804-0.668,0.931-1.413,1.059c-0.327,0.056-1.077-0.194-1.617-0.578c-1.967-1.397,0.514-21.1,0.575-31.984  C168.3,123.502,169.347,123.056,170.436,122.771z"/>
<linearGradient id="SVGID_5_-i1" gradientUnits="userSpaceOnUse" x1="100.0652" y1="212.1402" x2="200.0906" y2="212.1402" gradientTransform="matrix(1 0 0 -1 0 310)">
	<stop offset="0" style="stop-color:#92C4FE"/>
	<stop offset="1" style="stop-color:#74B4F7"/>
</linearGradient>
<path fill="url(#SVGID_5_-i1)" d="M100.78,69.347c0.702-3.164,6.627-7.094,9.764-7.965c4.308-1.197,8.99,0.509,12.692,3.431  c26.666,21.043,49.382,38.427,76.048,59.47c3.292,8.691-4.036,12.368-12.125,9.462c-18.911-8.383-18.553-10.176-37.044-19.549  c-12.71-6.443-34.483-11.158-43.168-22.494C101.019,83.964,98.781,78.354,100.78,69.347z"/>
<g>
	<path fill="#008EFF" d="M88.861,82.303l0.834-6.418l0.917-0.667c8.365-4.001,14.145-6.223,24.924-9.169   c1.879-0.514,5.087-0.953,7.835-0.667c2.245,0.234,3.935,0.769,5.335,2.001c2.084,1.834,5.745,6.069,5.83,6.122   c-2.004-1.195-7.393-3.127-9.665-3.037c-8.419,0.333-22.256,5.085-34.98,11.538L88.861,82.303z"/>
</g>

</g>
</g>

<!-- ITEM 2 -->
<g transform="translate(202.0 650.0) scale(0.8 0.8) rotate(0.0 75.0 40.0)">
<g transform="translate(-0.0 -0.0)">

<rect x="16.733" y="0.022" style="fill:#D62929;" width="125.536" height="29.706"/>
<rect x="24.464" y="29.398" style="fill:#428DFC;" width="125.536" height="20.43"/>
<rect x="15.774" y="6.25" style="fill:#D6D7D8;" width="117.87" height="17.249"/>
<rect x="15.774" y="8.28" style="fill:#EEEEEE;" width="117.87" height="2.174"/>
<rect x="15.774" y="12.629" style="fill:#EEEEEE;" width="117.87" height="2.174"/>
<rect x="15.774" y="16.978" style="fill:#EEEEEE;" width="117.87" height="2.174"/>
<rect x="15.774" y="21.325" style="fill:#EEEEEE;" width="117.87" height="2.174"/>
<rect x="1.132" y="50.271" style="fill:#D62929;" width="148.094" height="29.706"/>
<rect y="56.501" style="fill:#D6D7D8;" width="139.051" height="17.249"/>
<rect y="58.529" style="fill:#EEEEEE;" width="139.051" height="2.174"/>
<rect y="62.878" style="fill:#EEEEEE;" width="139.051" height="2.174"/>
<rect y="67.227" style="fill:#EEEEEE;" width="139.051" height="2.174"/>
<rect y="71.576" style="fill:#EEEEEE;" width="139.051" height="2.174"/>

</g>
</g>

<!-- ITEM 3 -->
<g transform="translate(785.0 402.0) scale(1.5276452682749535 1.5230161937027942) rotate(0.0 88.044 96.519)">
<g transform="translate(-0.0 -0.0)">

<path fill="#F2A19C" d="M76.7,103.648c-0.136,1.429,0.707,4.188,0.863,5.974c0.071,0.813-0.042,2.603,0.368,3.31  c0.657,1.136,4.291,0.75,5.604,0.736c2.269-0.025,4.306-0.627,6.401-1.457c3.318-1.314,0.687-2.268-1.323-2.715  c0.916-0.424,4.203-0.92,4.176-2.511c-0.033-1.933-3.58-1.143-4.424-1.382c1.35-1.267,3.212-2.286,3.309-4.421  c0.102-2.268-2.7-2.75-4.456-2.731c-2.252,0.025-4.619,0.792-6.651,1.765c-1.716,0.821-2.45,2.324-3.896,3.279  C76.637,103.628,76.482,103.679,76.7,103.648z"/>
<path fill="#FFBEB6" d="M80.658,105.009c-2.008,4.556-3.636,23.739-10.761,21.538c1.277-4.663,3.076-9.538,4.23-14.187  c1.451-5.845,0.983-9.782,5.22-13.566c9.017-8.054,19.922-1.271,30.928-3.502c-0.067,3.217,1.179,6.162,0.598,9.227  c-4.426,0.239-11.86-3.257-15.125-0.376c-6.308,5.566-4.292,3.067-8.535,7.298c-3.44,3.431-7.777,9.277-7.138,2.112  c0.351-3.93,4.825-7.522,6.215-11.12C83.379,102.164,80.711,105.636,80.658,105.009z"/>
<path fill="#428DFC" d="M89.877,172.467c4.215,2.638,9.241,3.947,13.583,6.588c3.241,1.972,6.274,4.071,9.623,5.819  c4.304,2.246,9.939,5.282,14.753,5.812c15.492,1.707-1.188-17.318-4.649-21.821c-1.963-2.555-3.9-4.977-5.887-7.42  c-0.961-1.181-1.57-2.046-2.764-3.04c-0.673-0.561-2.646-2.96-3.311-3.136c-1.517-0.402-4.406,2.049-5.833,2.79  c-3.033,1.573-6.092,3.005-9.088,4.656c-3.042,1.676-6.302,2.87-9.115,4.746C89.109,170.527,86.825,170.557,89.877,172.467z"/>
<path fill="#151A4F" d="M95.685,130.584c-18.816,0.786-32.841-0.325-45.613,1.59c-13.266,1.989-38.31,3.544-34.901,24.347  c4.508,27.509,60.257,16.113,78.517,16.11c6.687-0.001,19.711,0.788,29.589,0.818c3.144-12.05,2.08-29.587-0.003-41.835  C113.493,131.118,94.18,131.09,95.685,130.584z"/>
<linearGradient id="SVGID_1_-i3" gradientUnits="userSpaceOnUse" x1="56.5832" y1="148.6378" x2="171.0216" y2="148.6378">
	<stop offset="0" style="stop-color:#23286B"/>
	<stop offset="1" style="stop-color:#151A4F"/>
</linearGradient>
<path fill="url(#SVGID_1_-i3)" d="M170.811,121.64c0,15.251,2.393,36.482-8.967,48.293c-11.465,11.919-29.031,5.347-43.8,5.369  c-14.666,0.022-30.447,1.333-44.718-0.695c-16.454-2.339-24.204-25.676-7.155-35.097c7.176-3.965,21.397-4.962,29.62-5.775  c9.799-0.969,20.767-0.273,30.273-2.766c0.365-4.368,0.019-6.725-0.727-10.783C136.774,124.447,163.03,121.119,170.811,121.64z"/>
<linearGradient id="SVGID_2_-i3" gradientUnits="userSpaceOnUse" x1="102.5608" y1="73.8386" x2="147.2086" y2="118.4864">
	<stop offset="0" style="stop-color:#428DFC"/>
	<stop offset="1" style="stop-color:#1D72D8"/>
</linearGradient>
<path fill="url(#SVGID_2_-i3)" d="M112.976,39.84c14.029-0.368,22.207,4.471,28.021,8.863c8.421,6.362,16.698,12.938,22.063,21.84  c11.83,19.627,11.566,41.274,9.452,62.371c-12.083,0.808-77.499-0.782-77.499-0.782L94.779,53.63c0,0,3.172-8.128,6.405-10.693  C103.913,40.771,107.244,39.99,112.976,39.84z"/>
<path fill="#F2A19C" d="M83.361,48.723c6.448,2.542,9.01,4.88,16.214,9.313c3.854,2.372,7.55,1.583,10.254-2.579  c1.651-2.54,4.538-7.209,3.876-10.444c-0.805-3.938-4.431-5.071-7.75-6.996c-2.454-1.424-7.823-6.798-10.271-7.016  C91.661,30.644,82.693,44.35,83.361,48.723z"/>
<linearGradient id="SVGID_3_-i3" gradientUnits="userSpaceOnUse" x1="86.4118" y1="39.4635" x2="76.5608" y2="27.5743">
	<stop offset="0" style="stop-color:#FFBEB6"/>
	<stop offset="1" style="stop-color:#F8AFA9"/>
</linearGradient>
<path fill="url(#SVGID_3_-i3)" d="M59.005,26.633c-4.333,14.14,10.393,24.786,22.634,24.946c7.96,0.104,13.357-5.442,16.942-13.187  c10.031-21.666-22.314-36.586-35.786-19.616c-1.638,2.063-2.99,4.272-3.58,6.865C58.653,25.973,59.328,27.423,59.005,26.633z"/>
<path fill="#23286B" d="M67.248,9.861c6.62-3.885,14.221-5.424,21.733-1.971c20.915,9.614,10.468,31.77,10.468,31.77L58.626,26.516  C58.626,26.516,56.384,16.237,67.248,9.861z"/>
<linearGradient id="SVGID_4_-i3" gradientUnits="userSpaceOnUse" x1="87.3831" y1="37.4459" x2="77.8248" y2="25.9101">
	<stop offset="0" style="stop-color:#FFBEB6"/>
	<stop offset="1" style="stop-color:#F8AFA9"/>
</linearGradient>
<path fill="url(#SVGID_4_-i3)" d="M78.394,34.887c1.13-3.291,5.737-6.67,9.242-5.009c4.334,2.055,3.829,7.301,2.937,10.941  c-3.347-1.868-8.375-4.396-12.111-5.366C78.744,35.545,78.125,34.76,78.394,34.887z"/>
<circle fill="#A1C3FC" cx="90.766" cy="39.508" r="8.496"/>
<rect x="57.048" y="127.328" fill="#89B3F4" width="46.78" height="6.833"/>
<polygon fill="#A1C3FC" points="0,85.913 58.134,85.913 71.537,134.161 13.403,134.161 "/>
<circle fill="#89B3F4" cx="34.031" cy="110.867" r="4.993"/>
<linearGradient id="SVGID_5_-i3" gradientUnits="userSpaceOnUse" x1="95.2565" y1="133.0706" x2="110.2565" y2="124.5706">
	<stop offset="0" style="stop-color:#FFBEB6"/>
	<stop offset="1" style="stop-color:#F8AFA9"/>
</linearGradient>
<path fill="url(#SVGID_5_-i3)" d="M130.006,124.302c-1.566-3.306-3.426-6.523-5.042-9.77c-0.804-1.615-0.279-2.413-2.321-2.396  c-0.917,0.007-2.771,1.461-3.639,1.729c0.223-0.254-0.958-0.06-0.679-0.252c-4.095,1.494-7.921,2.741-11.861,4.638  c-1.886,0.908-3.82,1.623-5.718,2.437c-0.624-0.131-1.238-0.272-1.899-0.33c-2.238-0.197-3.669,0.419-5.736,1.134  c-3.739,1.293-7.559,1.376-10.714,3.841c-1.303,3.603,6.467,2.898,10.584,2.509c-1.292,2.77-2.457,5.617-3.867,8.273  c-0.733,1.379-3.046,4.537-0.553,5.751c1.807,0.879,2.022-0.597,3.09-0.826c2.167-0.466,1.615-0.369,4.21,0.126  c3.045,0.581,5.045-0.585,7.607-0.377c1.265,0.103,2.406,1.427,3.664,0.713c0.55-0.312,0.902-3.022,1.097-3.594  c0.582-1.704,0.958-3.607,1.383-5.519c1.778-0.425,3.542-0.829,5.146-1.375C120.062,129.21,124.634,125.708,130.006,124.302z"/>
<g>
	<path fill="#23286B" d="M65.718,48.128c-1.977,0-4.239-1.213-5.906-3.167c-1.228-1.439-2.013-3.116-2.211-4.722   c-0.208-1.682,0.247-3.093,1.28-3.975c0.671-0.572,1.548-0.875,2.534-0.875c1.978,0,4.24,1.213,5.907,3.167   c1.228,1.44,2.013,3.117,2.211,4.723c0.207,1.682-0.247,3.093-1.281,3.975C67.581,47.826,66.705,48.128,65.718,48.128z    M61.415,36.39c-0.756,0-1.391,0.214-1.886,0.635c-0.769,0.656-1.102,1.754-0.937,3.091c0.175,1.413,0.878,2.903,1.98,4.195   c1.481,1.737,3.453,2.816,5.145,2.816c0.757,0,1.392-0.213,1.886-0.635c0.77-0.656,1.103-1.754,0.937-3.091   c-0.174-1.413-0.877-2.903-1.979-4.196C65.079,37.469,63.108,36.39,61.415,36.39z"/>
</g>
<linearGradient id="SVGID_6_-i3" gradientUnits="userSpaceOnUse" x1="113.0396" y1="86.4613" x2="174.2236" y2="116.2265">
	<stop offset="0" style="stop-color:#428DFC"/>
	<stop offset="1" style="stop-color:#1D72D8"/>
</linearGradient>
<path fill="url(#SVGID_6_-i3)" d="M121.803,66.379c-1.307-7.094-0.956-18.482,9.013-18.891c8.158-0.334,16.051,12.106,20.077,17.927  c9.769,14.124,16.487,28.188,20.106,44.655c-12.684,12.546-32.253,22.633-48.048,30.01c-4.773-7.483-10.473-15.522-13.23-23.953  c12.631-6.853,21.013-9.945,31.928-16.136C137.006,96.403,123.831,77.383,121.803,66.379z"/>
<g>
	<path fill="#23286B" d="M102.145,40.11c-0.04,0-0.082-0.005-0.123-0.016c-0.268-0.068-0.43-0.34-0.361-0.608   c2.12-8.318,1.263-16.534-2.353-22.542c-2.598-4.317-6.52-7.216-11.341-8.385c-0.268-0.065-0.433-0.335-0.368-0.604   c0.066-0.269,0.335-0.433,0.604-0.368c5.087,1.233,9.223,4.291,11.961,8.841c3.752,6.235,4.65,14.729,2.465,23.305   C102.572,39.959,102.368,40.11,102.145,40.11z"/>
</g>
<g>
	<path fill="#A1C3FC" d="M96.504,35.383l-2.832-0.991c0.5-1.428,1-2.754,1.479-4.026c1.491-3.958,2.779-7.375,3.215-11.726   c0.736-7.363-2.826-12.619-9.277-14.84c-10.562-3.636-19.726,4.89-19.726,4.89c-1.969,1.006-4.237,2.354-6.098,4.172   c2.96-9.614,15.724-15.168,26.672-11.941c7.919,2.334,12.292,9.237,11.414,18.017c-0.475,4.742-1.826,8.33-3.393,12.485   C97.487,32.675,96.995,33.978,96.504,35.383z"/>
</g>
<circle fill="#B9D3FD" cx="90.766" cy="39.508" r="5.64"/>
<path id="texture-2_15_-i3" fill="#FFFFFF" d="M142.346,59.223c0.028,0.08,0.118,0.122,0.198,0.092c0.08-0.028,0.122-0.118,0.093-0.198  c-0.028-0.08-0.118-0.122-0.198-0.092l0,0C142.359,59.054,142.317,59.141,142.346,59.223L142.346,59.223z M153.194,70.785  c-0.038,0.079-0.004,0.174,0.076,0.211l0,0c0.071,0.037,0.158,0.008,0.195-0.062c0.004-0.006,0.006-0.012,0.008-0.019  c0.038-0.075,0.008-0.166-0.067-0.205C153.327,70.674,153.232,70.707,153.194,70.785L153.194,70.785L153.194,70.785z   M148.077,64.576c-0.059,0.063-0.062,0.161-0.007,0.228c0.061,0.065,0.162,0.068,0.228,0.007c0.065-0.061,0.068-0.162,0.007-0.228  C148.24,64.524,148.144,64.521,148.077,64.576z M129.141,72.799c-0.125,0.105-0.143,0.292-0.04,0.42  c0.095,0.126,0.274,0.152,0.4,0.058c0.004-0.004,0.008-0.006,0.013-0.01c0.125-0.105,0.143-0.292,0.04-0.42  C129.453,72.72,129.268,72.698,129.141,72.799L129.141,72.799z M134.711,68.284c-0.126,0.107-0.141,0.294-0.034,0.42  c0.104,0.124,0.288,0.141,0.414,0.039c0.127-0.101,0.149-0.285,0.048-0.412l0,0C135.029,68.206,134.843,68.186,134.711,68.284z   M140.296,63.766c-0.126,0.101-0.147,0.284-0.046,0.41c0.002,0.003,0.005,0.005,0.007,0.008c0.095,0.126,0.274,0.152,0.4,0.058  c0.004-0.004,0.008-0.006,0.013-0.01c0.124-0.108,0.144-0.295,0.047-0.428C140.609,63.681,140.423,63.663,140.296,63.766z   M124.965,58.04c0.051,0.155,0.217,0.238,0.372,0.187c0.155-0.051,0.238-0.217,0.187-0.372c-0.05-0.151-0.212-0.235-0.365-0.189  C125.004,57.717,124.918,57.883,124.965,58.04L124.965,58.04z M131.847,56c0.051,0.154,0.217,0.238,0.372,0.187  c0.155-0.051,0.238-0.217,0.187-0.372c-0.05-0.151-0.212-0.235-0.365-0.189C131.887,55.676,131.8,55.843,131.847,56L131.847,56z   M142.092,79.3c-0.075,0.146-0.02,0.324,0.125,0.402c0.14,0.078,0.316,0.026,0.394-0.114c0,0,0.002-0.002,0.001-0.003  c0.084-0.134,0.043-0.309-0.09-0.392c-0.006-0.004-0.013-0.008-0.02-0.012C142.355,79.109,142.177,79.16,142.092,79.3z   M145.521,72.99c-0.073,0.147-0.022,0.325,0.118,0.41c0.146,0.075,0.325,0.02,0.402-0.125c0.078-0.143,0.024-0.322-0.119-0.399  c-0.001-0.001-0.004-0.002-0.004-0.002c-0.141-0.078-0.317-0.027-0.394,0.112C145.522,72.989,145.522,72.99,145.521,72.99z   M148.944,66.69c-0.078,0.136-0.033,0.31,0.104,0.387c0.004,0.002,0.008,0.005,0.012,0.006c0.14,0.083,0.321,0.035,0.403-0.104  c0.003-0.004,0.005-0.009,0.008-0.013c0.077-0.145,0.023-0.326-0.122-0.403c-0.145-0.077-0.326-0.022-0.403,0.122  C148.946,66.689,148.945,66.69,148.944,66.69z M123.144,51.241c0.028,0.142,0.166,0.236,0.309,0.21  c0.142-0.027,0.237-0.165,0.21-0.309c-0.027-0.143-0.165-0.237-0.309-0.21l0,0C123.213,50.961,123.119,51.098,123.144,51.241z   M138.081,73.512c-0.078,0.127-0.045,0.291,0.077,0.377c0.116,0.08,0.276,0.05,0.355-0.066c0.002-0.004,0.004-0.006,0.006-0.01  c0.084-0.119,0.055-0.284-0.064-0.366c-0.001-0.001-0.003-0.001-0.004-0.003C138.33,73.367,138.168,73.396,138.081,73.512  L138.081,73.512z M141.662,68.213c-0.079,0.121-0.045,0.283,0.074,0.362c0.116,0.08,0.276,0.05,0.355-0.066  c0.002-0.004,0.004-0.006,0.006-0.01c0.084-0.119,0.055-0.284-0.063-0.368c-0.001-0.001-0.003-0.001-0.004-0.003  C141.905,68.054,141.742,68.091,141.662,68.213L141.662,68.213z M145.246,62.892c-0.084,0.119-0.055,0.284,0.063,0.368l0.004,0.003  c0.111,0.082,0.267,0.056,0.349-0.055c0.005-0.006,0.01-0.014,0.014-0.022c0.084-0.119,0.055-0.284-0.063-0.368  c-0.001-0.001-0.003-0.001-0.004-0.003C145.487,62.742,145.328,62.775,145.246,62.892L145.246,62.892z M130.844,61.476  c-0.119,0.085-0.149,0.248-0.067,0.369c0.08,0.121,0.241,0.155,0.362,0.075c0.12-0.083,0.157-0.245,0.082-0.37  C131.138,61.427,130.97,61.395,130.844,61.476L130.844,61.476z M136.192,57.943c-0.119,0.074-0.158,0.23-0.085,0.349  c0.003,0.004,0.006,0.008,0.008,0.013c0.08,0.121,0.241,0.155,0.362,0.075c0.12-0.083,0.157-0.245,0.082-0.37  C136.477,57.892,136.313,57.861,136.192,57.943L136.192,57.943z M150.952,75.516c-0.03,0.135,0.054,0.269,0.189,0.3  c0.005,0.001,0.011,0.003,0.015,0.003c0.142,0.033,0.283-0.056,0.317-0.197c0-0.003,0.001-0.007,0.002-0.009  c0.023-0.144-0.071-0.28-0.213-0.31c-0.14-0.029-0.278,0.061-0.307,0.201C150.952,75.508,150.953,75.512,150.952,75.516  L150.952,75.516z M152.227,69.234c-0.028,0.144,0.062,0.286,0.207,0.318c0.146,0.025,0.285-0.071,0.311-0.217  c0.025-0.139-0.063-0.273-0.2-0.307c-0.14-0.034-0.281,0.052-0.315,0.191C152.228,69.223,152.227,69.229,152.227,69.234  L152.227,69.234z M118.084,55.786c-0.136,0.101-0.17,0.289-0.076,0.431c0.094,0.14,0.283,0.178,0.423,0.085  c0.138-0.099,0.172-0.29,0.076-0.431C118.413,55.731,118.224,55.693,118.084,55.786L118.084,55.786z M124.213,51.643  c-0.14,0.094-0.178,0.283-0.085,0.423c0.093,0.14,0.283,0.178,0.423,0.085c0.14-0.094,0.178-0.283,0.085-0.423  C124.542,51.587,124.353,51.55,124.213,51.643L124.213,51.643z M143.95,73.123c-0.027,0.169,0.082,0.33,0.249,0.367  c0.168,0.027,0.327-0.089,0.353-0.258c0.026-0.163-0.082-0.316-0.242-0.35C144.145,72.854,143.986,72.959,143.95,73.123  L143.95,73.123z M145.349,65.862c-0.028,0.165,0.077,0.323,0.241,0.36c0.166,0.033,0.327-0.075,0.36-0.241  c0.033-0.166-0.075-0.327-0.241-0.36C145.544,65.591,145.385,65.699,145.349,65.862L145.349,65.862z M130.772,63.838  c-0.085,0.144-0.046,0.33,0.089,0.429c0.143,0.087,0.33,0.044,0.421-0.096c0.095-0.136,0.061-0.324-0.077-0.418  c0,0-0.004-0.002-0.006-0.004C131.058,63.655,130.867,63.695,130.772,63.838L130.772,63.838L130.772,63.838z M134.849,57.659  c-0.094,0.143-0.053,0.334,0.089,0.428l0.001,0.001c0.138,0.09,0.324,0.051,0.413-0.088l0,0c0.092-0.14,0.055-0.329-0.084-0.421  C135.13,57.486,134.943,57.523,134.849,57.659L134.849,57.659z M125.975,62.185c-0.094,0.138-0.058,0.327,0.082,0.422  c0.139,0.095,0.327,0.058,0.422-0.082c0.091-0.135,0.06-0.318-0.072-0.414C126.266,62.012,126.074,62.046,125.975,62.185  L125.975,62.185z M130.284,56.207c-0.097,0.139-0.064,0.332,0.075,0.43c0.136,0.093,0.322,0.063,0.423-0.066  c0.096-0.142,0.066-0.333-0.068-0.438C130.574,56.038,130.385,56.072,130.284,56.207L130.284,56.207z M141.115,65.047  c-0.035,0.166,0.069,0.33,0.234,0.368c0.162,0.037,0.324-0.064,0.361-0.226c0.044-0.158-0.048-0.322-0.206-0.367  c-0.004-0.001-0.008-0.003-0.013-0.002c-0.164-0.044-0.331,0.054-0.374,0.218C141.116,65.041,141.115,65.044,141.115,65.047  L141.115,65.047z"/>

</g>
</g>

<!-- ITEM 4 -->
<g transform="translate(399.0 135.0) scale(0.9575 0.9566666666666667) rotate(0.0 199.99999999999997 150.0)">
<g transform="translate(-0.0 -0.0)">

<linearGradient id="SVGID_1_-i4" gradientUnits="userSpaceOnUse" x1="-51.6426" y1="337.5" x2="468.4023" y2="337.5" gradientTransform="matrix(0.5714 0 0 -0.5714 100 342.8571)">
	<stop offset="0" style="stop-color:#D6D7D8"/>
	<stop offset="1" style="stop-color:#EEEEEE"/>
</linearGradient>
<ellipse fill="url(#SVGID_1_-i4)" cx="219.074" cy="150" rx="148.584" ry="150"/>
<linearGradient id="SVGID_2_-i4" gradientUnits="userSpaceOnUse" x1="-138.3169" y1="455.075" x2="399.8164" y2="455.075" gradientTransform="matrix(0.5714 0 0 -0.5714 100 342.8571)">
	<stop offset="0" style="stop-color:#D6D7D8"/>
	<stop offset="1" style="stop-color:#FFFFFF"/>
</linearGradient>
<rect x="20.962" y="72.267" opacity="0.58" fill="url(#SVGID_2_-i4)" enable-background="new    " width="307.505" height="21.094"/>
<rect x="132.389" y="227.455" opacity="0.58" fill="#FFFFFF" enable-background="new    " width="267.611" height="7.91"/>
<linearGradient id="SVGID_3_-i4" gradientUnits="userSpaceOnUse" x1="-642.5378" y1="-2301.5779" x2="-145.3297" y2="-2301.5779" gradientTransform="matrix(-0.5714 0 0 0.5714 21.8307 1522.2946)">
	<stop offset="0" style="stop-color:#D6D7D8"/>
	<stop offset="1" style="stop-color:#FFFFFF"/>
</linearGradient>
<rect x="104.876" y="189.309" opacity="0.58" fill="url(#SVGID_3_-i4)" enable-background="new    " width="284.119" height="35.596"/>
<linearGradient id="SVGID_4_-i4" gradientUnits="userSpaceOnUse" x1="-19.7378" y1="378.5242" x2="242.7515" y2="378.5242" gradientTransform="matrix(0.5714 0 0 -0.5714 100 342.8571)">
	<stop offset="0" style="stop-color:#D6D7D8"/>
	<stop offset="1" style="stop-color:#FFFFFF"/>
</linearGradient>
<rect x="88.721" y="116.011" opacity="0.58" fill="url(#SVGID_4_-i4)" enable-background="new    " width="149.994" height="21.094"/>
<g>
	<rect x="163.058" y="43.848" fill="#A1C3FC" width="202.299" height="6.154"/>
</g>
<g>
	<rect y="164.615" fill="#A1C3FC" width="253.731" height="6.154"/>
</g>
<g>
	<rect x="192.013" y="185.384" fill="#A1C3FC" width="131.818" height="6.154"/>
</g>

</g>
</g>

              </svg>